<?xml version="1.0" encoding="UTF-8" standalone="no"?><svg xmlns="http://www.w3.org/2000/svg" xmlns:xlink="http://www.w3.org/1999/xlink" height="892" version="1.1" width="1068"><defs/><g><g transform="translate(-46,-6) scale(1,1)"><path d="M 136 16 L 1104 16 L 1104 888 L 136 888 L 136 16" fill="none" stroke="#000000" stroke-miterlimit="10"/></g><g transform="translate(-46,-6) scale(1,1)"><path d="M 136 16 L 136 38 L 308.7998046875 38 L 319.7998046875 27 L 319.7998046875 16 L 136 16" fill="#ffffff" stroke="none"/></g><g transform="translate(-46,-6) scale(1,1)"><path d="M 136 16 L 136 38 L 308.7998046875 38 L 319.7998046875 27 L 319.7998046875 16 L 136 16 L 136 16" fill="none" stroke="#000000" stroke-miterlimit="10"/></g><g transform="translate(-46,-6) scale(1,1)"><g><path fill="none" stroke="none"/><text fill="#000000" font-family="Arial" font-size="13px" font-style="normal" font-weight="normal" stroke="none" text-decoration="none" x="199.03173828125" y="33.5">Use case diagram</text></g></g><g transform="translate(-46,-6) scale(1,1)"><g><path fill="none" stroke="none"/><text fill="#000000" font-family="Arial" font-size="13px" font-style="normal" font-weight="bold" stroke="none" text-decoration="none" x="141" y="33.5">use case</text></g></g><g transform="translate(-46,-6) scale(1,1)"><path d="M 90.47478000710227 777.6800000000001 C 90.47478000710227 772.8861679360001 94.36062233204773 769 99.154052734375 769 C 103.94748313670227 769 107.83332546164773 772.8861679360001 107.83332546164773 777.6800000000001 C 107.83332546164773 782.473832064 103.94748313670227 786.36 99.154052734375 786.36 C 94.36062233204773 786.36 90.47478000710227 782.473832064 90.47478000710227 777.6800000000001 Z" fill="#ffffff" stroke="none"/></g><g transform="translate(-46,-6) scale(1,1)"><path d="M 90.47478000710227 777.6800000000001 C 90.47478000710227 772.8861679360001 94.36062233204773 769 99.154052734375 769 C 103.94748313670227 769 107.83332546164773 772.8861679360001 107.83332546164773 777.6800000000001 C 107.83332546164773 782.473832064 103.94748313670227 786.36 99.154052734375 786.36 C 94.36062233204773 786.36 90.47478000710227 782.473832064 90.47478000710227 777.6800000000001 Z" fill="none" stroke="#000000" stroke-miterlimit="10"/></g><g transform="translate(-46,-6) scale(1,1)"><path d="M 99.154052734375 786.36 L 99.154052734375 803.64" fill="none" stroke="#000000" stroke-miterlimit="10"/></g><g transform="translate(-46,-6) scale(1,1)"><path d="M 89.96423455255682 792.84 L 108.34387091619318 792.84" fill="none" stroke="#000000" stroke-miterlimit="10"/></g><g transform="translate(-46,-6) scale(1,1)"><path d="M 99.154052734375 803.64 L 86.39041637073863 821" fill="none" stroke="#000000" stroke-miterlimit="10"/></g><g transform="translate(-46,-6) scale(1,1)"><path d="M 99.154052734375 803.64 L 111.91768909801137 821" fill="none" stroke="#000000" stroke-miterlimit="10"/></g><g transform="translate(-46,-6) scale(1,1)"><g><path fill="none" stroke="none"/><text fill="#000000" font-family="Arial" font-size="13px" font-style="normal" font-weight="bold" stroke="none" text-decoration="none" x="80.72998046875" y="841.5">Admin</text></g></g><g transform="translate(-46,-6) scale(1,1)"><path d="M 295 816 C 295 806.6111584 341.7862384 799 399.5 799 C 457.2137616 799 504 806.6111584 504 816 C 504 825.3888416 457.2137616 833 399.5 833 C 341.7862384 833 295 825.3888416 295 816 Z" fill="#C0C0C0" opacity="0.2" stroke="none"/></g><g transform="translate(-46,-6) scale(1,1)"><path d="M 288 809 C 288 799.6111584 334.7862384 792 392.5 792 C 450.2137616 792 497 799.6111584 497 809 C 497 818.3888416 450.2137616 826 392.5 826 C 334.7862384 826 288 818.3888416 288 809 Z" fill="#00ffd4" stroke="none"/></g><g transform="translate(-46,-6) scale(1,1)"><path d="M 288 809 C 288 799.6111584 334.7862384 792 392.5 792 C 450.2137616 792 497 799.6111584 497 809 C 497 818.3888416 450.2137616 826 392.5 826 C 334.7862384 826 288 818.3888416 288 809 Z" fill="none" stroke="#000000" stroke-miterlimit="10"/></g><g transform="translate(-46,-6) scale(1,1)"><g><path fill="none" stroke="none"/><text fill="#000000" font-family="Arial" font-size="13px" font-style="normal" font-weight="bold" stroke="none" text-decoration="none" x="326.85888671875" y="816">View main admin page</text></g></g><g transform="translate(-46,-6) scale(1,1)"><path d="M 999 440 C 999 430.6111584 1022.9527632 423 1052.5 423 C 1082.0472368 423 1106 430.6111584 1106 440 C 1106 449.3888416 1082.0472368 457 1052.5 457 C 1022.9527632 457 999 449.3888416 999 440 Z" fill="#C0C0C0" opacity="0.2" stroke="none"/></g><g transform="translate(-46,-6) scale(1,1)"><path d="M 992 433 C 992 423.6111584 1015.9527632 416 1045.5 416 C 1075.0472368 416 1099 423.6111584 1099 433 C 1099 442.3888416 1075.0472368 450 1045.5 450 C 1015.9527632 450 992 442.3888416 992 433 Z" fill="#ffff00" stroke="none"/></g><g transform="translate(-46,-6) scale(1,1)"><path d="M 992 433 C 992 423.6111584 1015.9527632 416 1045.5 416 C 1075.0472368 416 1099 423.6111584 1099 433 C 1099 442.3888416 1075.0472368 450 1045.5 450 C 1015.9527632 450 992 442.3888416 992 433 Z" fill="none" stroke="#000000" stroke-miterlimit="10"/></g><g transform="translate(-46,-6) scale(1,1)"><g><path fill="none" stroke="none"/><text fill="#000000" font-family="Arial" font-size="13px" font-style="normal" font-weight="bold" stroke="none" text-decoration="none" x="1015.1455078125" y="440">Login user</text></g></g><g transform="translate(-46,-6) scale(1,1)"><path d="M 88.40935031960227 33.68 C 88.40935031960227 28.886167936 92.29519264454773 25 97.088623046875 25 C 101.88205344920227 25 105.76789577414773 28.886167936 105.76789577414773 33.68 C 105.76789577414773 38.473832064 101.88205344920227 42.36 97.088623046875 42.36 C 92.29519264454773 42.36 88.40935031960227 38.473832064 88.40935031960227 33.68 Z" fill="#ffffff" stroke="none"/></g><g transform="translate(-46,-6) scale(1,1)"><path d="M 88.40935031960227 33.68 C 88.40935031960227 28.886167936 92.29519264454773 25 97.088623046875 25 C 101.88205344920227 25 105.76789577414773 28.886167936 105.76789577414773 33.68 C 105.76789577414773 38.473832064 101.88205344920227 42.36 97.088623046875 42.36 C 92.29519264454773 42.36 88.40935031960227 38.473832064 88.40935031960227 33.68 Z" fill="none" stroke="#000000" stroke-miterlimit="10"/></g><g transform="translate(-46,-6) scale(1,1)"><path d="M 97.088623046875 42.36 L 97.088623046875 59.64" fill="none" stroke="#000000" stroke-miterlimit="10"/></g><g transform="translate(-46,-6) scale(1,1)"><path d="M 87.89880486505682 48.84 L 106.27844122869318 48.84" fill="none" stroke="#000000" stroke-miterlimit="10"/></g><g transform="translate(-46,-6) scale(1,1)"><path d="M 97.088623046875 59.64 L 84.32498668323863 77" fill="none" stroke="#000000" stroke-miterlimit="10"/></g><g transform="translate(-46,-6) scale(1,1)"><path d="M 97.088623046875 59.64 L 109.85225941051137 77" fill="none" stroke="#000000" stroke-miterlimit="10"/></g><g transform="translate(-46,-6) scale(1,1)"><g><path fill="none" stroke="none"/><text fill="#000000" font-family="Arial" font-size="13px" font-style="normal" font-weight="bold" stroke="none" text-decoration="none" x="79.38818359375" y="97.5">Tester</text></g></g><g transform="translate(-46,-6) scale(1,1)"><path d="M 90.47478000710227 385.68 C 90.47478000710227 380.886167936 94.36062233204773 377 99.154052734375 377 C 103.94748313670227 377 107.83332546164773 380.886167936 107.83332546164773 385.68 C 107.83332546164773 390.473832064 103.94748313670227 394.36 99.154052734375 394.36 C 94.36062233204773 394.36 90.47478000710227 390.473832064 90.47478000710227 385.68 Z" fill="#ffffff" stroke="none"/></g><g transform="translate(-46,-6) scale(1,1)"><path d="M 90.47478000710227 385.68 C 90.47478000710227 380.886167936 94.36062233204773 377 99.154052734375 377 C 103.94748313670227 377 107.83332546164773 380.886167936 107.83332546164773 385.68 C 107.83332546164773 390.473832064 103.94748313670227 394.36 99.154052734375 394.36 C 94.36062233204773 394.36 90.47478000710227 390.473832064 90.47478000710227 385.68 Z" fill="none" stroke="#000000" stroke-miterlimit="10"/></g><g transform="translate(-46,-6) scale(1,1)"><path d="M 99.154052734375 394.36 L 99.154052734375 411.64" fill="none" stroke="#000000" stroke-miterlimit="10"/></g><g transform="translate(-46,-6) scale(1,1)"><path d="M 89.96423455255682 400.84 L 108.34387091619318 400.84" fill="none" stroke="#000000" stroke-miterlimit="10"/></g><g transform="translate(-46,-6) scale(1,1)"><path d="M 99.154052734375 411.64 L 86.39041637073863 429" fill="none" stroke="#000000" stroke-miterlimit="10"/></g><g transform="translate(-46,-6) scale(1,1)"><path d="M 99.154052734375 411.64 L 111.91768909801137 429" fill="none" stroke="#000000" stroke-miterlimit="10"/></g><g transform="translate(-46,-6) scale(1,1)"><g><path fill="none" stroke="none"/><text fill="#000000" font-family="Arial" font-size="13px" font-style="normal" font-weight="bold" stroke="none" text-decoration="none" x="63.035888671875" y="449.5">Programmer</text></g></g><g transform="translate(-46,-6) scale(1,1)"><path d="M 287 424 C 287 414.6111584 346.0984064 407 419 407 C 491.9015936 407 551 414.6111584 551 424 C 551 433.3888416 491.9015936 441 419 441 C 346.0984064 441 287 433.3888416 287 424 Z" fill="#C0C0C0" opacity="0.2" stroke="none"/></g><g transform="translate(-46,-6) scale(1,1)"><path d="M 280 417 C 280 407.6111584 339.0984064 400 412 400 C 484.9015936 400 544 407.6111584 544 417 C 544 426.3888416 484.9015936 434 412 434 C 339.0984064 434 280 426.3888416 280 417 Z" fill="#9bff38" stroke="none"/></g><g transform="translate(-46,-6) scale(1,1)"><path d="M 280 417 C 280 407.6111584 339.0984064 400 412 400 C 484.9015936 400 544 407.6111584 544 417 C 544 426.3888416 484.9015936 434 412 434 C 339.0984064 434 280 426.3888416 280 417 Z" fill="none" stroke="#000000" stroke-miterlimit="10"/></g><g transform="translate(-46,-6) scale(1,1)"><g><path fill="none" stroke="none"/><text fill="#000000" font-family="Arial" font-size="13px" font-style="normal" font-weight="bold" stroke="none" text-decoration="none" x="328.664794921875" y="424">View main programmer page</text></g></g><g transform="translate(-46,-6) scale(1,1)"><path d="M 295 72 C 295 62.6111584 340.890808 55 397.5 55 C 454.109192 55 500 62.6111584 500 72 C 500 81.3888416 454.109192 89 397.5 89 C 340.890808 89 295 81.3888416 295 72 Z" fill="#C0C0C0" opacity="0.2" stroke="none"/></g><g transform="translate(-46,-6) scale(1,1)"><path d="M 288 65 C 288 55.6111584 333.890808 48 390.5 48 C 447.109192 48 493 55.6111584 493 65 C 493 74.3888416 447.109192 82 390.5 82 C 333.890808 82 288 74.3888416 288 65 Z" fill="#ffff00" stroke="none"/></g><g transform="translate(-46,-6) scale(1,1)"><path d="M 288 65 C 288 55.6111584 333.890808 48 390.5 48 C 447.109192 48 493 55.6111584 493 65 C 493 74.3888416 447.109192 82 390.5 82 C 333.890808 82 288 74.3888416 288 65 Z" fill="none" stroke="#000000" stroke-miterlimit="10"/></g><g transform="translate(-46,-6) scale(1,1)"><g><path fill="none" stroke="none"/><text fill="#000000" font-family="Arial" font-size="13px" font-style="normal" font-weight="bold" stroke="none" text-decoration="none" x="326.30615234375" y="72">View main tester page</text></g></g><g transform="translate(-46,-6) scale(1,1)"><path d="M 422 83 L 1013 415" fill="none" stroke="#000000" stroke-dasharray="3" stroke-miterlimit="10"/></g><g transform="translate(-46,-6) scale(1,1)"><path d="M 1002.0779606934193 413.6926907842801 L 1013 415 L 1006.201359153474 406.35254473038754" fill="none" stroke="#000000" stroke-miterlimit="10"/></g><g transform="translate(-46,-6) scale(1,1)"><g><path fill="none" stroke="none"/><text fill="#000000" font-family="Arial" font-size="13px" font-style="normal" font-weight="normal" stroke="none" text-decoration="none" x="703.5" y="228.5">«include»</text></g></g><g transform="translate(-46,-6) scale(1,1)"><path d="M 545 420 L 991 432" fill="none" stroke="#000000" stroke-dasharray="3" stroke-miterlimit="10"/></g><g transform="translate(-46,-6) scale(1,1)"><path d="M 980.7277820531169 435.93465861946544 L 991 432 L 980.9542212404547 427.51866882341096" fill="none" stroke="#000000" stroke-miterlimit="10"/></g><g transform="translate(-46,-6) scale(1,1)"><g><path fill="none" stroke="none"/><text fill="#000000" font-family="Arial" font-size="13px" font-style="normal" font-weight="normal" stroke="none" text-decoration="none" x="740.5" y="402.5">«include»</text></g></g><g transform="translate(-46,-6) scale(1,1)"><path d="M 423 791 L 1014 451" fill="none" stroke="#000000" stroke-dasharray="3" stroke-miterlimit="10"/></g><g transform="translate(-46,-6) scale(1,1)"><path d="M 1007.290175466356 459.7165506209572 L 1014 451 L 1003.0919055190539 452.4189696243231" fill="none" stroke="#000000" stroke-miterlimit="10"/></g><g transform="translate(-46,-6) scale(1,1)"><g><path fill="none" stroke="none"/><text fill="#000000" font-family="Arial" font-size="13px" font-style="normal" font-weight="normal" stroke="none" text-decoration="none" x="675.5" y="600.5">«include»</text></g></g><g transform="translate(-46,-6) scale(1,1)"><path d="M 123 63 L 287 64" fill="none" stroke="#000000" stroke-miterlimit="10"/></g><g transform="translate(-46,-6) scale(1,1)"><path d="M 143 415 L 279 416" fill="none" stroke="#000000" stroke-miterlimit="10"/></g><g transform="translate(-46,-6) scale(1,1)"><path d="M 143 807 L 287 808" fill="none" stroke="#000000" stroke-miterlimit="10"/></g><g transform="translate(-46,-6) scale(1,1)"><path d="M 191 256 C 191 246.6111584 213.6096176 239 241.5 239 C 269.3903824 239 292 246.6111584 292 256 C 292 265.3888416 269.3903824 273 241.5 273 C 213.6096176 273 191 265.3888416 191 256 Z" fill="#C0C0C0" opacity="0.2" stroke="none"/></g><g transform="translate(-46,-6) scale(1,1)"><path d="M 184 249 C 184 239.6111584 206.6096176 232 234.5 232 C 262.3903824 232 285 239.6111584 285 249 C 285 258.3888416 262.3903824 266 234.5 266 C 206.6096176 266 184 258.3888416 184 249 Z" fill="#ffff00" stroke="none"/></g><g transform="translate(-46,-6) scale(1,1)"><path d="M 184 249 C 184 239.6111584 206.6096176 232 234.5 232 C 262.3903824 232 285 239.6111584 285 249 C 285 258.3888416 262.3903824 266 234.5 266 C 206.6096176 266 184 258.3888416 184 249 Z" fill="none" stroke="#000000" stroke-miterlimit="10"/></g><g transform="translate(-46,-6) scale(1,1)"><g><path fill="none" stroke="none"/><text fill="#000000" font-family="Arial" font-size="13px" font-style="normal" font-weight="bold" stroke="none" text-decoration="none" x="210.648681640625" y="256">Edit bug</text></g></g><g transform="translate(-46,-6) scale(1,1)"><path d="M 347 256 C 347 246.6111584 369.6096176 239 397.5 239 C 425.3903824 239 448 246.6111584 448 256 C 448 265.3888416 425.3903824 273 397.5 273 C 369.6096176 273 347 265.3888416 347 256 Z" fill="#C0C0C0" opacity="0.2" stroke="none"/></g><g transform="translate(-46,-6) scale(1,1)"><path d="M 340 249 C 340 239.6111584 362.6096176 232 390.5 232 C 418.3903824 232 441 239.6111584 441 249 C 441 258.3888416 418.3903824 266 390.5 266 C 362.6096176 266 340 258.3888416 340 249 Z" fill="#ffff00" stroke="none"/></g><g transform="translate(-46,-6) scale(1,1)"><path d="M 340 249 C 340 239.6111584 362.6096176 232 390.5 232 C 418.3903824 232 441 239.6111584 441 249 C 441 258.3888416 418.3903824 266 390.5 266 C 362.6096176 266 340 258.3888416 340 249 Z" fill="none" stroke="#000000" stroke-miterlimit="10"/></g><g transform="translate(-46,-6) scale(1,1)"><g><path fill="none" stroke="none"/><text fill="#000000" font-family="Arial" font-size="13px" font-style="normal" font-weight="bold" stroke="none" text-decoration="none" x="366.28369140625" y="256">Add bug</text></g></g><g transform="translate(-46,-6) scale(1,1)"><path d="M 503 256 C 503 246.6111584 525.6096176 239 553.5 239 C 581.3903824 239 604 246.6111584 604 256 C 604 265.3888416 581.3903824 273 553.5 273 C 525.6096176 273 503 265.3888416 503 256 Z" fill="#C0C0C0" opacity="0.2" stroke="none"/></g><g transform="translate(-46,-6) scale(1,1)"><path d="M 496 249 C 496 239.6111584 518.6096176 232 546.5 232 C 574.3903824 232 597 239.6111584 597 249 C 597 258.3888416 574.3903824 266 546.5 266 C 518.6096176 266 496 258.3888416 496 249 Z" fill="#7fff00" stroke="none"/></g><g transform="translate(-46,-6) scale(1,1)"><path d="M 496 249 C 496 239.6111584 518.6096176 232 546.5 232 C 574.3903824 232 597 239.6111584 597 249 C 597 258.3888416 574.3903824 266 546.5 266 C 518.6096176 266 496 258.3888416 496 249 Z" fill="none" stroke="#000000" stroke-miterlimit="10"/></g><g transform="translate(-46,-6) scale(1,1)"><g><path fill="none" stroke="none"/><text fill="#000000" font-family="Arial" font-size="13px" font-style="normal" font-weight="bold" stroke="none" text-decoration="none" x="517.589599609375" y="256">Solve bug</text></g></g><g transform="translate(-46,-6) scale(1,1)"><path d="M 249 231 L 375 83" fill="none" stroke="#000000" stroke-dasharray="3" stroke-miterlimit="10"/></g><g transform="translate(-46,-6) scale(1,1)"><path d="M 371.6173495563716 93.46698027017443 L 375 83 L 365.20683220534056 88.00937766051284" fill="none" stroke="#000000" stroke-miterlimit="10"/></g><g transform="translate(-46,-6) scale(1,1)"><g><path fill="none" stroke="none"/><text fill="#000000" font-family="Arial" font-size="13px" font-style="normal" font-weight="normal" stroke="none" text-decoration="none" x="262.5" y="143.5">«extend»</text></g></g><g transform="translate(-46,-6) scale(1,1)"><path d="M 390 231 L 390 83" fill="none" stroke="#000000" stroke-dasharray="3" stroke-miterlimit="10"/></g><g transform="translate(-46,-6) scale(1,1)"><path d="M 394.209517756016 93.16267485762415 L 390 83 L 385.790482243984 93.16267485762415" fill="none" stroke="#000000" stroke-miterlimit="10"/></g><g transform="translate(-46,-6) scale(1,1)"><g><path fill="none" stroke="none"/><text fill="#000000" font-family="Arial" font-size="13px" font-style="normal" font-weight="normal" stroke="none" text-decoration="none" x="333.5" y="162.5">«extend»</text></g></g><g transform="translate(-46,-6) scale(1,1)"><path d="M 253 267 L 393 399" fill="none" stroke="#000000" stroke-dasharray="3" stroke-miterlimit="10"/></g><g transform="translate(-46,-6) scale(1,1)"><path d="M 382.7179620834851 395.0910747917938 L 393 399 L 388.4935287866887 388.96547374294147" fill="none" stroke="#000000" stroke-miterlimit="10"/></g><g transform="translate(-46,-6) scale(1,1)"><g><path fill="none" stroke="none"/><text fill="#000000" font-family="Arial" font-size="13px" font-style="normal" font-weight="normal" stroke="none" text-decoration="none" x="316.5" y="317.5">«extend»</text></g></g><g transform="translate(-46,-6) scale(1,1)"><path d="M 392 267 L 410 399" fill="none" stroke="#000000" stroke-dasharray="3" stroke-miterlimit="10"/></g><g transform="translate(-46,-6) scale(1,1)"><path d="M 404.45597124574493 389.4992765974378 L 410 399 L 412.7978056169025 388.3617537286436" fill="none" stroke="#000000" stroke-miterlimit="10"/></g><g transform="translate(-46,-6) scale(1,1)"><g><path fill="none" stroke="none"/><text fill="#000000" font-family="Arial" font-size="13px" font-style="normal" font-weight="normal" stroke="none" text-decoration="none" x="403.5" y="334.5">«extend»</text></g></g><g transform="translate(-46,-6) scale(1,1)"><path d="M 532 267 L 426 399" fill="none" stroke="#000000" stroke-dasharray="3" stroke-miterlimit="10"/></g><g transform="translate(-46,-6) scale(1,1)"><path d="M 429.0809796133741 388.44028576987176 L 426 399 L 435.6454271168301 393.7117360377985" fill="none" stroke="#000000" stroke-miterlimit="10"/></g><g transform="translate(-46,-6) scale(1,1)"><g><path fill="none" stroke="none"/><text fill="#000000" font-family="Arial" font-size="13px" font-style="normal" font-weight="normal" stroke="none" text-decoration="none" x="475.5" y="357.5">«extend»</text></g></g><g transform="translate(-46,-6) scale(1,1)"><path d="M 335 664 C 335 654.6111584 364.101488 647 400 647 C 435.898512 647 465 654.6111584 465 664 C 465 673.3888416 435.898512 681 400 681 C 364.101488 681 335 673.3888416 335 664 Z" fill="#C0C0C0" opacity="0.2" stroke="none"/></g><g transform="translate(-46,-6) scale(1,1)"><path d="M 328 657 C 328 647.6111584 357.101488 640 393 640 C 428.898512 640 458 647.6111584 458 657 C 458 666.3888416 428.898512 674 393 674 C 357.101488 674 328 666.3888416 328 657 Z" fill="#00ffd4" stroke="none"/></g><g transform="translate(-46,-6) scale(1,1)"><path d="M 328 657 C 328 647.6111584 357.101488 640 393 640 C 428.898512 640 458 647.6111584 458 657 C 458 666.3888416 428.898512 674 393 674 C 357.101488 674 328 666.3888416 328 657 Z" fill="none" stroke="#000000" stroke-miterlimit="10"/></g><g transform="translate(-46,-6) scale(1,1)"><g><path fill="none" stroke="none"/><text fill="#000000" font-family="Arial" font-size="13px" font-style="normal" font-weight="bold" stroke="none" text-decoration="none" x="354.345947265625" y="664">Register user</text></g></g><g transform="translate(-46,-6) scale(1,1)"><path d="M 393 675 L 392 791" fill="none" stroke="#000000" stroke-dasharray="3" stroke-miterlimit="10"/></g><g transform="translate(-46,-6) scale(1,1)"><path d="M 387.87824466393533 780.8014151496582 L 392 791 L 396.2969673576599 780.8739903452937" fill="none" stroke="#000000" stroke-miterlimit="10"/></g><g transform="translate(-46,-6) scale(1,1)"><g><path fill="none" stroke="none"/><text fill="#000000" font-family="Arial" font-size="13px" font-style="normal" font-weight="normal" stroke="none" text-decoration="none" x="394.5" y="738.5">«extend»</text></g></g><g transform="translate(-46,-6) scale(1,1)"><path d="M 1008 40 L 1066 40 L 1076 50 L 1076 78 L 1008 78 L 1008 40" fill="#ffff00" stroke="none"/></g><g transform="translate(-46,-6) scale(1,1)"><path d="M 1008 40 L 1066 40 L 1076 50 L 1076 78 L 1008 78 L 1008 40 L 1008 40" fill="none" stroke="#000000" stroke-miterlimit="10"/></g><g transform="translate(-46,-6) scale(1,1)"><path d="M 1066 40 L 1066 50 L 1076 50 L 1066 40" fill="none" stroke="#000000" stroke-miterlimit="10"/></g><g transform="translate(-46,-6) scale(1,1)"><g><path fill="none" stroke="none"/><text fill="#000000" font-family="Arial" font-size="13px" font-style="normal" font-weight="normal" stroke="none" text-decoration="none" x="1013" y="58">First</text><text fill="#000000" font-family="Arial" font-size="13px" font-style="normal" font-weight="normal" stroke="none" text-decoration="none" x="1013" y="71">phase</text></g></g><g transform="translate(-46,-6) scale(1,1)"><path d="M 1008 96 L 1066 96 L 1076 106 L 1076 134 L 1008 134 L 1008 96" fill="#9bff38" stroke="none"/></g><g transform="translate(-46,-6) scale(1,1)"><path d="M 1008 96 L 1066 96 L 1076 106 L 1076 134 L 1008 134 L 1008 96 L 1008 96" fill="none" stroke="#000000" stroke-miterlimit="10"/></g><g transform="translate(-46,-6) scale(1,1)"><path d="M 1066 96 L 1066 106 L 1076 106 L 1066 96" fill="none" stroke="#000000" stroke-miterlimit="10"/></g><g transform="translate(-46,-6) scale(1,1)"><g><path fill="none" stroke="none"/><text fill="#000000" font-family="Arial" font-size="13px" font-style="normal" font-weight="normal" stroke="none" text-decoration="none" x="1013" y="114">Second</text><text fill="#000000" font-family="Arial" font-size="13px" font-style="normal" font-weight="normal" stroke="none" text-decoration="none" x="1013" y="127">phase</text></g></g><g transform="translate(-46,-6) scale(1,1)"><path d="M 1008 160 L 1066 160 L 1076 170 L 1076 198 L 1008 198 L 1008 160" fill="#00ffd4" stroke="none"/></g><g transform="translate(-46,-6) scale(1,1)"><path d="M 1008 160 L 1066 160 L 1076 170 L 1076 198 L 1008 198 L 1008 160 L 1008 160" fill="none" stroke="#000000" stroke-miterlimit="10"/></g><g transform="translate(-46,-6) scale(1,1)"><path d="M 1066 160 L 1066 170 L 1076 170 L 1066 160" fill="none" stroke="#000000" stroke-miterlimit="10"/></g><g transform="translate(-46,-6) scale(1,1)"><g><path fill="none" stroke="none"/><text fill="#000000" font-family="Arial" font-size="13px" font-style="normal" font-weight="normal" stroke="none" text-decoration="none" x="1013" y="178">Third</text><text fill="#000000" font-family="Arial" font-size="13px" font-style="normal" font-weight="normal" stroke="none" text-decoration="none" x="1013" y="191">phase</text></g></g></g></svg>