<?xml version="1.0" encoding="UTF-8" standalone="no"?><svg xmlns="http://www.w3.org/2000/svg" xmlns:xlink="http://www.w3.org/1999/xlink" height="1394" version="1.1" width="1353.95361328125"><defs/><g><g transform="translate(-46,-30) scale(1,1)"><rect fill="#C0C0C0" height="39" opacity="0.2" stroke="none" width="108.58447265625" x="63" y="47"/></g><g transform="translate(-46,-30) scale(1,1)"><rect fill="#ffffff" height="39" stroke="none" width="108.58447265625" x="56" y="40"/></g><g transform="translate(-46,-30) scale(1,1)"><path d="M 56 40 L 164.58447265625 40 L 164.58447265625 79 L 56 79 L 56 40 Z Z" fill="none" stroke="#000000" stroke-miterlimit="10"/></g><g transform="translate(-46,-30) scale(1,1)"><g><path fill="none" stroke="none"/><text fill="#000000" font-family="Arial" font-size="13px" font-style="normal" font-weight="bold" stroke="none" text-decoration="none" x="68.74365234375" y="59.5">Lifeline1: User</text></g></g><g transform="translate(-46,-30) scale(1,1)"><path d="M 111.5 80 L 111.5 1414" fill="none" stroke="#000000" stroke-dasharray="3" stroke-miterlimit="10"/></g><g transform="translate(-46,-30) scale(1,1)"><rect fill="#C0C0C0" height="39" opacity="0.2" stroke="none" width="117.95361328125" x="1279" y="47"/></g><g transform="translate(-46,-30) scale(1,1)"><rect fill="#ffffff" height="39" stroke="none" width="117.95361328125" x="1272" y="40"/></g><g transform="translate(-46,-30) scale(1,1)"><path d="M 1272 40 L 1389.95361328125 40 L 1389.95361328125 79 L 1272 79 L 1272 40 Z Z" fill="none" stroke="#000000" stroke-miterlimit="10"/></g><g transform="translate(-46,-30) scale(1,1)"><g><path fill="none" stroke="none"/><text fill="#000000" font-family="Arial" font-size="13px" font-style="normal" font-weight="bold" stroke="none" text-decoration="none" x="1284.372314453125" y="59.5">Lifeline2: DBMS</text></g></g><g transform="translate(-46,-30) scale(1,1)"><path d="M 1331.5 80 L 1331.5 1406" fill="none" stroke="#000000" stroke-dasharray="3" stroke-miterlimit="10"/></g><g transform="translate(-46,-30) scale(1,1)"><rect fill="#C0C0C0" height="39" opacity="0.2" stroke="none" width="68.7021484375" x="327" y="47"/></g><g transform="translate(-46,-30) scale(1,1)"><rect fill="#ffffff" height="39" stroke="none" width="68.7021484375" x="320" y="40"/></g><g transform="translate(-46,-30) scale(1,1)"><path d="M 320 40 L 388.7021484375 40 L 388.7021484375 79 L 320 79 L 320 40 Z Z" fill="none" stroke="#000000" stroke-miterlimit="10"/></g><g transform="translate(-46,-30) scale(1,1)"><g><path fill="none" stroke="none"/><text fill="#000000" font-family="Arial" font-size="13px" font-style="normal" font-weight="bold" stroke="none" text-decoration="none" x="331.23291015625" y="59.5">Window</text></g></g><g transform="translate(-46,-30) scale(1,1)"><path d="M 355.5 80 L 355.5 1414" fill="none" stroke="#000000" stroke-dasharray="3" stroke-miterlimit="10"/></g><g transform="translate(-46,-30) scale(1,1)"><rect fill="#C0C0C0" height="39" opacity="0.2" stroke="none" width="170.00439453125" x="791" y="47"/></g><g transform="translate(-46,-30) scale(1,1)"><rect fill="#ffffff" height="39" stroke="none" width="170.00439453125" x="784" y="40"/></g><g transform="translate(-46,-30) scale(1,1)"><path d="M 784 40 L 954.00439453125 40 L 954.00439453125 79 L 784 79 L 784 40 Z Z" fill="none" stroke="#000000" stroke-miterlimit="10"/></g><g transform="translate(-46,-30) scale(1,1)"><g><path fill="none" stroke="none"/><text fill="#000000" font-family="Arial" font-size="13px" font-style="normal" font-weight="bold" stroke="none" text-decoration="none" x="798.911376953125" y="59.5">BugService: BugService</text></g></g><g transform="translate(-46,-30) scale(1,1)"><path d="M 870.5 80 L 870.5 1401" fill="none" stroke="#000000" stroke-dasharray="3" stroke-miterlimit="10"/></g><g transform="translate(-46,-30) scale(1,1)"><rect fill="#C0C0C0" height="39" opacity="0.2" stroke="none" width="141.07177734375" x="503" y="47"/></g><g transform="translate(-46,-30) scale(1,1)"><rect fill="#ffffff" height="39" stroke="none" width="141.07177734375" x="496" y="40"/></g><g transform="translate(-46,-30) scale(1,1)"><path d="M 496 40 L 637.07177734375 40 L 637.07177734375 79 L 496 79 L 496 40 Z Z" fill="none" stroke="#000000" stroke-miterlimit="10"/></g><g transform="translate(-46,-30) scale(1,1)"><g><path fill="none" stroke="none"/><text fill="#000000" font-family="Arial" font-size="13px" font-style="normal" font-weight="bold" stroke="none" text-decoration="none" x="510.156005859375" y="59.5">api_bugs: api_bugs</text></g></g><g transform="translate(-46,-30) scale(1,1)"><path d="M 567.5 80 L 567.5 1401" fill="none" stroke="#000000" stroke-dasharray="3" stroke-miterlimit="10"/></g><g transform="translate(-46,-30) scale(1,1)"><rect fill="#C0C0C0" height="39" opacity="0.2" stroke="none" width="84.75537109375" x="1111" y="47"/></g><g transform="translate(-46,-30) scale(1,1)"><rect fill="#ffffff" height="39" stroke="none" width="84.75537109375" x="1104" y="40"/></g><g transform="translate(-46,-30) scale(1,1)"><path d="M 1104 40 L 1188.75537109375 40 L 1188.75537109375 79 L 1104 79 L 1104 40 Z Z" fill="none" stroke="#000000" stroke-miterlimit="10"/></g><g transform="translate(-46,-30) scale(1,1)"><g><path fill="none" stroke="none"/><text fill="#000000" font-family="Arial" font-size="13px" font-style="normal" font-weight="bold" stroke="none" text-decoration="none" x="1119.635009765625" y="59.5">Bug: Bug</text></g></g><g transform="translate(-46,-30) scale(1,1)"><path d="M 1147.5 80 L 1147.5 1406" fill="none" stroke="#000000" stroke-dasharray="3" stroke-miterlimit="10"/></g><g transform="translate(-46,-30) scale(1,1)"><path d="M 111 104 L 348 104" fill="none" stroke="#000000" stroke-miterlimit="10"/></g><g transform="translate(-46,-30) scale(1,1)"><path d="M 337.83732514237585 108.20951775601598 L 348 104 L 337.83732514237585 99.79048224398402" fill="#000000" stroke="none"/></g><g transform="translate(-46,-30) scale(1,1)"><path d="M 337.83732514237585 108.20951775601598 L 348 104 L 337.83732514237585 99.79048224398402 L 337.83732514237585 108.20951775601598" fill="none" stroke="#000000" stroke-miterlimit="10"/></g><g transform="translate(-46,-30) scale(1,1)"><g><path fill="none" stroke="none"/><text fill="#000000" font-family="Arial" font-size="13px" font-style="normal" font-weight="normal" stroke="none" text-decoration="none" x="205.029541015625" y="100.5">1 : open</text></g></g><g transform="translate(-46,-30) scale(1,1)"><rect fill="#ffffff" height="64" stroke="none" width="13" x="348" y="104"/></g><g transform="translate(-46,-30) scale(1,1)"><path d="M 348 104 L 361 104 L 361 168 L 348 168 L 348 104 Z Z" fill="none" stroke="#000000" stroke-miterlimit="10"/></g><g transform="translate(-46,-30) scale(1,1)"><path d="M 361 109 L 560 109" fill="none" stroke="#000000" stroke-miterlimit="10"/></g><g transform="translate(-46,-30) scale(1,1)"><path d="M 549.8373251423759 113.20951775601598 L 560 109 L 549.8373251423758 104.79048224398402" fill="#000000" stroke="none"/></g><g transform="translate(-46,-30) scale(1,1)"><path d="M 549.8373251423759 113.20951775601598 L 560 109 L 549.8373251423758 104.79048224398402 L 549.8373251423759 113.20951775601598" fill="none" stroke="#000000" stroke-miterlimit="10"/></g><g transform="translate(-46,-30) scale(1,1)"><g><path fill="none" stroke="none"/><text fill="#000000" font-family="Arial" font-size="13px" font-style="normal" font-weight="normal" stroke="none" text-decoration="none" x="379.5" y="105.5">2 : get(status: BugStatuses)</text></g></g><g transform="translate(-46,-30) scale(1,1)"><rect fill="#ffffff" height="28" stroke="none" width="13" x="560" y="109"/></g><g transform="translate(-46,-30) scale(1,1)"><path d="M 560 109 L 573 109 L 573 137 L 560 137 L 560 109 Z Z" fill="none" stroke="#000000" stroke-miterlimit="10"/></g><g transform="translate(-46,-30) scale(1,1)"><path d="M 573 112 L 863 112" fill="none" stroke="#000000" stroke-miterlimit="10"/></g><g transform="translate(-46,-30) scale(1,1)"><path d="M 852.8373251423759 116.20951775601598 L 863 112 L 852.8373251423758 107.79048224398402" fill="#000000" stroke="none"/></g><g transform="translate(-46,-30) scale(1,1)"><path d="M 852.8373251423759 116.20951775601598 L 863 112 L 852.8373251423758 107.79048224398402 L 852.8373251423759 116.20951775601598" fill="none" stroke="#000000" stroke-miterlimit="10"/></g><g transform="translate(-46,-30) scale(1,1)"><g><path fill="none" stroke="none"/><text fill="#000000" font-family="Arial" font-size="13px" font-style="normal" font-weight="normal" stroke="none" text-decoration="none" x="589.5" y="108.5">3 : getBugs(user: User, status: BugStatuses)</text></g></g><g transform="translate(-46,-30) scale(1,1)"><rect fill="#ffffff" height="28" stroke="none" width="13" x="863" y="112"/></g><g transform="translate(-46,-30) scale(1,1)"><path d="M 863 112 L 876 112 L 876 140 L 863 140 L 863 112 Z Z" fill="none" stroke="#000000" stroke-miterlimit="10"/></g><g transform="translate(-46,-30) scale(1,1)"><path d="M 876 112 L 1140 112" fill="none" stroke="#000000" stroke-miterlimit="10"/></g><g transform="translate(-46,-30) scale(1,1)"><path d="M 1129.837325142376 116.20951775601598 L 1140 112 L 1129.837325142376 107.79048224398402" fill="#000000" stroke="none"/></g><g transform="translate(-46,-30) scale(1,1)"><path d="M 1129.837325142376 116.20951775601598 L 1140 112 L 1129.837325142376 107.79048224398402 L 1129.837325142376 116.20951775601598" fill="none" stroke="#000000" stroke-miterlimit="10"/></g><g transform="translate(-46,-30) scale(1,1)"><g><path fill="none" stroke="none"/><text fill="#000000" font-family="Arial" font-size="13px" font-style="normal" font-weight="normal" stroke="none" text-decoration="none" x="950.5" y="108.5">4 : mongoose query</text></g></g><g transform="translate(-46,-30) scale(1,1)"><rect fill="#ffffff" height="28" stroke="none" width="13" x="1140" y="112"/></g><g transform="translate(-46,-30) scale(1,1)"><path d="M 1140 112 L 1153 112 L 1153 140 L 1140 140 L 1140 112 Z Z" fill="none" stroke="#000000" stroke-miterlimit="10"/></g><g transform="translate(-46,-30) scale(1,1)"><path d="M 1153 120 L 1324 120" fill="none" stroke="#000000" stroke-miterlimit="10"/></g><g transform="translate(-46,-30) scale(1,1)"><path d="M 1313.837325142376 124.20951775601598 L 1324 120 L 1313.837325142376 115.79048224398402" fill="#000000" stroke="none"/></g><g transform="translate(-46,-30) scale(1,1)"><path d="M 1313.837325142376 124.20951775601598 L 1324 120 L 1313.837325142376 115.79048224398402 L 1313.837325142376 124.20951775601598" fill="none" stroke="#000000" stroke-miterlimit="10"/></g><g transform="translate(-46,-30) scale(1,1)"><g><path fill="none" stroke="none"/><text fill="#000000" font-family="Arial" font-size="13px" font-style="normal" font-weight="normal" stroke="none" text-decoration="none" x="1195.5" y="116.5">5 : nosql query</text></g></g><g transform="translate(-46,-30) scale(1,1)"><rect fill="#ffffff" height="28" stroke="none" width="13" x="1324" y="120"/></g><g transform="translate(-46,-30) scale(1,1)"><path d="M 1324 120 L 1337 120 L 1337 148 L 1324 148 L 1324 120 Z Z" fill="none" stroke="#000000" stroke-miterlimit="10"/></g><g transform="translate(-46,-30) scale(1,1)"><path d="M 1140 128 L 876 128" fill="none" stroke="#000000" stroke-dasharray="3" stroke-miterlimit="10"/></g><g transform="translate(-46,-30) scale(1,1)"><path d="M 886.1626748576241 123.79048224398402 L 876 128 L 886.1626748576241 132.209517756016" fill="none" stroke="#000000" stroke-miterlimit="10"/></g><g transform="translate(-46,-30) scale(1,1)"><g><path fill="none" stroke="none"/><text fill="#000000" font-family="Arial" font-size="13px" font-style="normal" font-weight="normal" stroke="none" text-decoration="none" x="982.92724609375" y="144.5">6 : Bug[]</text></g></g><g transform="translate(-46,-30) scale(1,1)"><path d="M 560 129 L 361 129" fill="none" stroke="#000000" stroke-dasharray="3" stroke-miterlimit="10"/></g><g transform="translate(-46,-30) scale(1,1)"><path d="M 371.16267485762415 124.79048224398402 L 361 129 L 371.16267485762415 133.209517756016" fill="none" stroke="#000000" stroke-miterlimit="10"/></g><g transform="translate(-46,-30) scale(1,1)"><g><path fill="none" stroke="none"/><text fill="#000000" font-family="Arial" font-size="13px" font-style="normal" font-weight="normal" stroke="none" text-decoration="none" x="434.312255859375" y="145.5">7 : Bug[]</text></g></g><g transform="translate(-46,-30) scale(1,1)"><path d="M 863 132 L 573 132" fill="none" stroke="#000000" stroke-dasharray="3" stroke-miterlimit="10"/></g><g transform="translate(-46,-30) scale(1,1)"><path d="M 583.1626748576241 127.79048224398402 L 573 132 L 583.1626748576241 136.209517756016" fill="none" stroke="#000000" stroke-miterlimit="10"/></g><g transform="translate(-46,-30) scale(1,1)"><g><path fill="none" stroke="none"/><text fill="#000000" font-family="Arial" font-size="13px" font-style="normal" font-weight="normal" stroke="none" text-decoration="none" x="692.312255859375" y="148.5">8 : Bug[]</text></g></g><g transform="translate(-46,-30) scale(1,1)"><path d="M 1324 134 L 1153 134" fill="none" stroke="#000000" stroke-dasharray="3" stroke-miterlimit="10"/></g><g transform="translate(-46,-30) scale(1,1)"><path d="M 1163.162674857624 129.790482243984 L 1153 134 L 1163.162674857624 138.209517756016" fill="none" stroke="#000000" stroke-miterlimit="10"/></g><g transform="translate(-46,-30) scale(1,1)"><g><path fill="none" stroke="none"/><text fill="#000000" font-family="Arial" font-size="13px" font-style="normal" font-weight="normal" stroke="none" text-decoration="none" x="1196.5" y="150.5">9 : documents</text></g></g><g transform="translate(-46,-30) scale(1,1)"><path d="M 348 152 L 111 152" fill="none" stroke="#000000" stroke-dasharray="3" stroke-miterlimit="10"/></g><g transform="translate(-46,-30) scale(1,1)"><path d="M 121.16267485762415 147.790482243984 L 111 152 L 121.16267485762415 156.209517756016" fill="none" stroke="#000000" stroke-miterlimit="10"/></g><g transform="translate(-46,-30) scale(1,1)"><g><path fill="none" stroke="none"/><text fill="#000000" font-family="Arial" font-size="13px" font-style="normal" font-weight="normal" stroke="none" text-decoration="none" x="183.5" y="168.5">10 : show page</text></g></g><g transform="translate(-46,-30) scale(1,1)"><path d="M 111 233 L 348 233" fill="none" stroke="#000000" stroke-miterlimit="10"/></g><g transform="translate(-46,-30) scale(1,1)"><path d="M 337.83732514237585 237.209517756016 L 348 233 L 337.83732514237585 228.790482243984" fill="#000000" stroke="none"/></g><g transform="translate(-46,-30) scale(1,1)"><path d="M 337.83732514237585 237.209517756016 L 348 233 L 337.83732514237585 228.790482243984 L 337.83732514237585 237.209517756016" fill="none" stroke="#000000" stroke-miterlimit="10"/></g><g transform="translate(-46,-30) scale(1,1)"><g><path fill="none" stroke="none"/><text fill="#000000" font-family="Arial" font-size="13px" font-style="normal" font-weight="normal" stroke="none" text-decoration="none" x="120.982421875" y="229.5">11 : press toggle add bug view button</text></g></g><g transform="translate(-46,-30) scale(1,1)"><rect fill="#ffffff" height="28" stroke="none" width="13" x="348" y="233"/></g><g transform="translate(-46,-30) scale(1,1)"><path d="M 348 233 L 361 233 L 361 261 L 348 261 L 348 233 Z Z" fill="none" stroke="#000000" stroke-miterlimit="10"/></g><g transform="translate(-46,-30) scale(1,1)"><path d="M 348 248 L 111 248" fill="none" stroke="#000000" stroke-dasharray="3" stroke-miterlimit="10"/></g><g transform="translate(-46,-30) scale(1,1)"><path d="M 121.16267485762415 243.790482243984 L 111 248 L 121.16267485762415 252.209517756016" fill="none" stroke="#000000" stroke-miterlimit="10"/></g><g transform="translate(-46,-30) scale(1,1)"><g><path fill="none" stroke="none"/><text fill="#000000" font-family="Arial" font-size="13px" font-style="normal" font-weight="normal" stroke="none" text-decoration="none" x="160.5" y="264.5">12 : show add bug form</text></g></g><g transform="translate(-46,-30) scale(1,1)"><path d="M 111 314 L 348 314" fill="none" stroke="#000000" stroke-miterlimit="10"/></g><g transform="translate(-46,-30) scale(1,1)"><path d="M 337.83732514237585 318.209517756016 L 348 314 L 337.83732514237585 309.790482243984" fill="#000000" stroke="none"/></g><g transform="translate(-46,-30) scale(1,1)"><path d="M 337.83732514237585 318.209517756016 L 348 314 L 337.83732514237585 309.790482243984 L 337.83732514237585 318.209517756016" fill="none" stroke="#000000" stroke-miterlimit="10"/></g><g transform="translate(-46,-30) scale(1,1)"><g><path fill="none" stroke="none"/><text fill="#000000" font-family="Arial" font-size="13px" font-style="normal" font-weight="normal" stroke="none" text-decoration="none" x="157.5" y="310.5">13 : input new bug name</text></g></g><g transform="translate(-46,-30) scale(1,1)"><rect fill="#ffffff" height="28" stroke="none" width="13" x="348" y="314"/></g><g transform="translate(-46,-30) scale(1,1)"><path d="M 348 314 L 361 314 L 361 342 L 348 342 L 348 314 Z Z" fill="none" stroke="#000000" stroke-miterlimit="10"/></g><g transform="translate(-46,-30) scale(1,1)"><path d="M 111 368 L 348 368" fill="none" stroke="#000000" stroke-miterlimit="10"/></g><g transform="translate(-46,-30) scale(1,1)"><path d="M 337.83732514237585 372.209517756016 L 348 368 L 337.83732514237585 363.790482243984" fill="#000000" stroke="none"/></g><g transform="translate(-46,-30) scale(1,1)"><path d="M 337.83732514237585 372.209517756016 L 348 368 L 337.83732514237585 363.790482243984 L 337.83732514237585 372.209517756016" fill="none" stroke="#000000" stroke-miterlimit="10"/></g><g transform="translate(-46,-30) scale(1,1)"><g><path fill="none" stroke="none"/><text fill="#000000" font-family="Arial" font-size="13px" font-style="normal" font-weight="normal" stroke="none" text-decoration="none" x="142.5" y="364.5">14 : input new bug description</text></g></g><g transform="translate(-46,-30) scale(1,1)"><rect fill="#ffffff" height="28" stroke="none" width="13" x="348" y="368"/></g><g transform="translate(-46,-30) scale(1,1)"><path d="M 348 368 L 361 368 L 361 396 L 348 396 L 348 368 Z Z" fill="none" stroke="#000000" stroke-miterlimit="10"/></g><g transform="translate(-46,-30) scale(1,1)"><path d="M 111 440 L 348 440" fill="none" stroke="#000000" stroke-miterlimit="10"/></g><g transform="translate(-46,-30) scale(1,1)"><path d="M 337.83732514237585 444.209517756016 L 348 440 L 337.83732514237585 435.790482243984" fill="#000000" stroke="none"/></g><g transform="translate(-46,-30) scale(1,1)"><path d="M 337.83732514237585 444.209517756016 L 348 440 L 337.83732514237585 435.790482243984 L 337.83732514237585 444.209517756016" fill="none" stroke="#000000" stroke-miterlimit="10"/></g><g transform="translate(-46,-30) scale(1,1)"><g><path fill="none" stroke="none"/><text fill="#000000" font-family="Arial" font-size="13px" font-style="normal" font-weight="normal" stroke="none" text-decoration="none" x="155.5" y="436.5">15 : press add bug button</text></g></g><g transform="translate(-46,-30) scale(1,1)"><rect fill="#ffffff" height="136" stroke="none" width="13" x="348" y="440"/></g><g transform="translate(-46,-30) scale(1,1)"><path d="M 348 440 L 361 440 L 361 576 L 348 576 L 348 440 Z Z" fill="none" stroke="#000000" stroke-miterlimit="10"/></g><g transform="translate(-46,-30) scale(1,1)"><path d="M 361 448 L 560 448" fill="none" stroke="#000000" stroke-miterlimit="10"/></g><g transform="translate(-46,-30) scale(1,1)"><path d="M 549.8373251423759 452.209517756016 L 560 448 L 549.8373251423758 443.790482243984" fill="#000000" stroke="none"/></g><g transform="translate(-46,-30) scale(1,1)"><path d="M 549.8373251423759 452.209517756016 L 560 448 L 549.8373251423758 443.790482243984 L 549.8373251423759 452.209517756016" fill="none" stroke="#000000" stroke-miterlimit="10"/></g><g transform="translate(-46,-30) scale(1,1)"><g><path fill="none" stroke="none"/><text fill="#000000" font-family="Arial" font-size="13px" font-style="normal" font-weight="normal" stroke="none" text-decoration="none" x="418.2236328125" y="444.5">16 : post(data)</text></g></g><g transform="translate(-46,-30) scale(1,1)"><rect fill="#ffffff" height="40" stroke="none" width="13" x="560" y="448"/></g><g transform="translate(-46,-30) scale(1,1)"><path d="M 560 448 L 573 448 L 573 488 L 560 488 L 560 448 Z Z" fill="none" stroke="#000000" stroke-miterlimit="10"/></g><g transform="translate(-46,-30) scale(1,1)"><path d="M 573 448 L 863 448" fill="none" stroke="#000000" stroke-miterlimit="10"/></g><g transform="translate(-46,-30) scale(1,1)"><path d="M 852.8373251423759 452.209517756016 L 863 448 L 852.8373251423758 443.790482243984" fill="#000000" stroke="none"/></g><g transform="translate(-46,-30) scale(1,1)"><path d="M 852.8373251423759 452.209517756016 L 863 448 L 852.8373251423758 443.790482243984 L 852.8373251423759 452.209517756016" fill="none" stroke="#000000" stroke-miterlimit="10"/></g><g transform="translate(-46,-30) scale(1,1)"><g><path fill="none" stroke="none"/><text fill="#000000" font-family="Arial" font-size="13px" font-style="normal" font-weight="normal" stroke="none" text-decoration="none" x="658.5" y="444.5">17 : createBug(data)</text></g></g><g transform="translate(-46,-30) scale(1,1)"><rect fill="#ffffff" height="32" stroke="none" width="13" x="863" y="448"/></g><g transform="translate(-46,-30) scale(1,1)"><path d="M 863 448 L 876 448 L 876 480 L 863 480 L 863 448 Z Z" fill="none" stroke="#000000" stroke-miterlimit="10"/></g><g transform="translate(-46,-30) scale(1,1)"><path d="M 876 448 L 1140 448" fill="none" stroke="#000000" stroke-miterlimit="10"/></g><g transform="translate(-46,-30) scale(1,1)"><path d="M 1129.837325142376 452.209517756016 L 1140 448 L 1129.837325142376 443.790482243984" fill="#000000" stroke="none"/></g><g transform="translate(-46,-30) scale(1,1)"><path d="M 1129.837325142376 452.209517756016 L 1140 448 L 1129.837325142376 443.790482243984 L 1129.837325142376 452.209517756016" fill="none" stroke="#000000" stroke-miterlimit="10"/></g><g transform="translate(-46,-30) scale(1,1)"><g><path fill="none" stroke="none"/><text fill="#000000" font-family="Arial" font-size="13px" font-style="normal" font-weight="normal" stroke="none" text-decoration="none" x="945.5" y="435.5">18 : mongoose query</text></g></g><g transform="translate(-46,-30) scale(1,1)"><rect fill="#ffffff" height="32" stroke="none" width="13" x="1140" y="448"/></g><g transform="translate(-46,-30) scale(1,1)"><path d="M 1140 448 L 1153 448 L 1153 480 L 1140 480 L 1140 448 Z Z" fill="none" stroke="#000000" stroke-miterlimit="10"/></g><g transform="translate(-46,-30) scale(1,1)"><path d="M 1153 448 L 1324 448" fill="none" stroke="#000000" stroke-miterlimit="10"/></g><g transform="translate(-46,-30) scale(1,1)"><path d="M 1313.837325142376 452.209517756016 L 1324 448 L 1313.837325142376 443.790482243984" fill="#000000" stroke="none"/></g><g transform="translate(-46,-30) scale(1,1)"><path d="M 1313.837325142376 452.209517756016 L 1324 448 L 1313.837325142376 443.790482243984 L 1313.837325142376 452.209517756016" fill="none" stroke="#000000" stroke-miterlimit="10"/></g><g transform="translate(-46,-30) scale(1,1)"><g><path fill="none" stroke="none"/><text fill="#000000" font-family="Arial" font-size="13px" font-style="normal" font-weight="normal" stroke="none" text-decoration="none" x="1191.5" y="444.5">19 : nosql query</text></g></g><g transform="translate(-46,-30) scale(1,1)"><rect fill="#ffffff" height="32" stroke="none" width="13" x="1324" y="448"/></g><g transform="translate(-46,-30) scale(1,1)"><path d="M 1324 448 L 1337 448 L 1337 480 L 1324 480 L 1324 448 Z Z" fill="none" stroke="#000000" stroke-miterlimit="10"/></g><g transform="translate(-46,-30) scale(1,1)"><path d="M 560 468 L 361 468" fill="none" stroke="#000000" stroke-dasharray="3" stroke-miterlimit="10"/></g><g transform="translate(-46,-30) scale(1,1)"><path d="M 371.16267485762415 463.790482243984 L 361 468 L 371.16267485762415 472.209517756016" fill="none" stroke="#000000" stroke-miterlimit="10"/></g><g transform="translate(-46,-30) scale(1,1)"><g><path fill="none" stroke="none"/><text fill="#000000" font-family="Arial" font-size="13px" font-style="normal" font-weight="normal" stroke="none" text-decoration="none" x="434.924072265625" y="484.5">20 : Bug</text></g></g><g transform="translate(-46,-30) scale(1,1)"><path d="M 863 468 L 573 468" fill="none" stroke="#000000" stroke-dasharray="3" stroke-miterlimit="10"/></g><g transform="translate(-46,-30) scale(1,1)"><path d="M 583.1626748576241 463.790482243984 L 573 468 L 583.1626748576241 472.209517756016" fill="none" stroke="#000000" stroke-miterlimit="10"/></g><g transform="translate(-46,-30) scale(1,1)"><g><path fill="none" stroke="none"/><text fill="#000000" font-family="Arial" font-size="13px" font-style="normal" font-weight="normal" stroke="none" text-decoration="none" x="692.924072265625" y="484.5">21 : Bug</text></g></g><g transform="translate(-46,-30) scale(1,1)"><path d="M 1140 468 L 876 468" fill="none" stroke="#000000" stroke-dasharray="3" stroke-miterlimit="10"/></g><g transform="translate(-46,-30) scale(1,1)"><path d="M 886.1626748576241 463.790482243984 L 876 468 L 886.1626748576241 472.209517756016" fill="none" stroke="#000000" stroke-miterlimit="10"/></g><g transform="translate(-46,-30) scale(1,1)"><g><path fill="none" stroke="none"/><text fill="#000000" font-family="Arial" font-size="13px" font-style="normal" font-weight="normal" stroke="none" text-decoration="none" x="982.924072265625" y="484.5">22 : Bug</text></g></g><g transform="translate(-46,-30) scale(1,1)"><path d="M 1324 468 L 1153 468" fill="none" stroke="#000000" stroke-dasharray="3" stroke-miterlimit="10"/></g><g transform="translate(-46,-30) scale(1,1)"><path d="M 1163.162674857624 463.790482243984 L 1153 468 L 1163.162674857624 472.209517756016" fill="none" stroke="#000000" stroke-miterlimit="10"/></g><g transform="translate(-46,-30) scale(1,1)"><g><path fill="none" stroke="none"/><text fill="#000000" font-family="Arial" font-size="13px" font-style="normal" font-weight="normal" stroke="none" text-decoration="none" x="1212.924072265625" y="484.5">23 : Bug</text></g></g><g transform="translate(-46,-30) scale(1,1)"><path d="M 361 515 L 560 515" fill="none" stroke="#000000" stroke-miterlimit="10"/></g><g transform="translate(-46,-30) scale(1,1)"><path d="M 549.8373251423759 519.209517756016 L 560 515 L 549.8373251423758 510.790482243984" fill="#000000" stroke="none"/></g><g transform="translate(-46,-30) scale(1,1)"><path d="M 549.8373251423759 519.209517756016 L 560 515 L 549.8373251423758 510.790482243984 L 549.8373251423759 519.209517756016" fill="none" stroke="#000000" stroke-miterlimit="10"/></g><g transform="translate(-46,-30) scale(1,1)"><g><path fill="none" stroke="none"/><text fill="#000000" font-family="Arial" font-size="13px" font-style="normal" font-weight="normal" stroke="none" text-decoration="none" x="376.5" y="511.5">24 : get(status: BugStatuses)</text></g></g><g transform="translate(-46,-30) scale(1,1)"><rect fill="#ffffff" height="28" stroke="none" width="13" x="560" y="515"/></g><g transform="translate(-46,-30) scale(1,1)"><path d="M 560 515 L 573 515 L 573 543 L 560 543 L 560 515 Z Z" fill="none" stroke="#000000" stroke-miterlimit="10"/></g><g transform="translate(-46,-30) scale(1,1)"><path d="M 573 520 L 863 520" fill="none" stroke="#000000" stroke-miterlimit="10"/></g><g transform="translate(-46,-30) scale(1,1)"><path d="M 852.8373251423759 524.209517756016 L 863 520 L 852.8373251423758 515.790482243984" fill="#000000" stroke="none"/></g><g transform="translate(-46,-30) scale(1,1)"><path d="M 852.8373251423759 524.209517756016 L 863 520 L 852.8373251423758 515.790482243984 L 852.8373251423759 524.209517756016" fill="none" stroke="#000000" stroke-miterlimit="10"/></g><g transform="translate(-46,-30) scale(1,1)"><g><path fill="none" stroke="none"/><text fill="#000000" font-family="Arial" font-size="13px" font-style="normal" font-weight="normal" stroke="none" text-decoration="none" x="586.5" y="516.5">25 : getBugs(user: User, status: BugStatuses)</text></g></g><g transform="translate(-46,-30) scale(1,1)"><rect fill="#ffffff" height="28" stroke="none" width="13" x="863" y="520"/></g><g transform="translate(-46,-30) scale(1,1)"><path d="M 863 520 L 876 520 L 876 548 L 863 548 L 863 520 Z Z" fill="none" stroke="#000000" stroke-miterlimit="10"/></g><g transform="translate(-46,-30) scale(1,1)"><path d="M 876 520 L 1140 520" fill="none" stroke="#000000" stroke-miterlimit="10"/></g><g transform="translate(-46,-30) scale(1,1)"><path d="M 1129.837325142376 524.209517756016 L 1140 520 L 1129.837325142376 515.790482243984" fill="#000000" stroke="none"/></g><g transform="translate(-46,-30) scale(1,1)"><path d="M 1129.837325142376 524.209517756016 L 1140 520 L 1129.837325142376 515.790482243984 L 1129.837325142376 524.209517756016" fill="none" stroke="#000000" stroke-miterlimit="10"/></g><g transform="translate(-46,-30) scale(1,1)"><g><path fill="none" stroke="none"/><text fill="#000000" font-family="Arial" font-size="13px" font-style="normal" font-weight="normal" stroke="none" text-decoration="none" x="946.5" y="516.5">26 : mongoose query</text></g></g><g transform="translate(-46,-30) scale(1,1)"><rect fill="#ffffff" height="28" stroke="none" width="13" x="1140" y="520"/></g><g transform="translate(-46,-30) scale(1,1)"><path d="M 1140 520 L 1153 520 L 1153 548 L 1140 548 L 1140 520 Z Z" fill="none" stroke="#000000" stroke-miterlimit="10"/></g><g transform="translate(-46,-30) scale(1,1)"><path d="M 1153 520 L 1324 520" fill="none" stroke="#000000" stroke-miterlimit="10"/></g><g transform="translate(-46,-30) scale(1,1)"><path d="M 1313.837325142376 524.209517756016 L 1324 520 L 1313.837325142376 515.790482243984" fill="#000000" stroke="none"/></g><g transform="translate(-46,-30) scale(1,1)"><path d="M 1313.837325142376 524.209517756016 L 1324 520 L 1313.837325142376 515.790482243984 L 1313.837325142376 524.209517756016" fill="none" stroke="#000000" stroke-miterlimit="10"/></g><g transform="translate(-46,-30) scale(1,1)"><g><path fill="none" stroke="none"/><text fill="#000000" font-family="Arial" font-size="13px" font-style="normal" font-weight="normal" stroke="none" text-decoration="none" x="1191.5" y="516.5">27 : nosql query</text></g></g><g transform="translate(-46,-30) scale(1,1)"><rect fill="#ffffff" height="28" stroke="none" width="13" x="1324" y="520"/></g><g transform="translate(-46,-30) scale(1,1)"><path d="M 1324 520 L 1337 520 L 1337 548 L 1324 548 L 1324 520 Z Z" fill="none" stroke="#000000" stroke-miterlimit="10"/></g><g transform="translate(-46,-30) scale(1,1)"><path d="M 560 535 L 361 535" fill="none" stroke="#000000" stroke-dasharray="3" stroke-miterlimit="10"/></g><g transform="translate(-46,-30) scale(1,1)"><path d="M 371.16267485762415 530.790482243984 L 361 535 L 371.16267485762415 539.209517756016" fill="none" stroke="#000000" stroke-miterlimit="10"/></g><g transform="translate(-46,-30) scale(1,1)"><g><path fill="none" stroke="none"/><text fill="#000000" font-family="Arial" font-size="13px" font-style="normal" font-weight="normal" stroke="none" text-decoration="none" x="431.312255859375" y="551.5">28 : Bug[]</text></g></g><g transform="translate(-46,-30) scale(1,1)"><path d="M 863 540 L 573 540" fill="none" stroke="#000000" stroke-dasharray="3" stroke-miterlimit="10"/></g><g transform="translate(-46,-30) scale(1,1)"><path d="M 583.1626748576241 535.790482243984 L 573 540 L 583.1626748576241 544.209517756016" fill="none" stroke="#000000" stroke-miterlimit="10"/></g><g transform="translate(-46,-30) scale(1,1)"><g><path fill="none" stroke="none"/><text fill="#000000" font-family="Arial" font-size="13px" font-style="normal" font-weight="normal" stroke="none" text-decoration="none" x="689.312255859375" y="556.5">29 : Bug[]</text></g></g><g transform="translate(-46,-30) scale(1,1)"><path d="M 1140 540 L 876 540" fill="none" stroke="#000000" stroke-dasharray="3" stroke-miterlimit="10"/></g><g transform="translate(-46,-30) scale(1,1)"><path d="M 886.1626748576241 535.790482243984 L 876 540 L 886.1626748576241 544.209517756016" fill="none" stroke="#000000" stroke-miterlimit="10"/></g><g transform="translate(-46,-30) scale(1,1)"><g><path fill="none" stroke="none"/><text fill="#000000" font-family="Arial" font-size="13px" font-style="normal" font-weight="normal" stroke="none" text-decoration="none" x="979.312255859375" y="556.5">30 : Bug[]</text></g></g><g transform="translate(-46,-30) scale(1,1)"><path d="M 1324 540 L 1153 540" fill="none" stroke="#000000" stroke-dasharray="3" stroke-miterlimit="10"/></g><g transform="translate(-46,-30) scale(1,1)"><path d="M 1163.162674857624 535.790482243984 L 1153 540 L 1163.162674857624 544.209517756016" fill="none" stroke="#000000" stroke-miterlimit="10"/></g><g transform="translate(-46,-30) scale(1,1)"><g><path fill="none" stroke="none"/><text fill="#000000" font-family="Arial" font-size="13px" font-style="normal" font-weight="normal" stroke="none" text-decoration="none" x="1192.5" y="556.5">31 : documents</text></g></g><g transform="translate(-46,-30) scale(1,1)"><path d="M 348 562 L 111 562" fill="none" stroke="#000000" stroke-dasharray="3" stroke-miterlimit="10"/></g><g transform="translate(-46,-30) scale(1,1)"><path d="M 121.16267485762415 557.790482243984 L 111 562 L 121.16267485762415 566.209517756016" fill="none" stroke="#000000" stroke-miterlimit="10"/></g><g transform="translate(-46,-30) scale(1,1)"><g><path fill="none" stroke="none"/><text fill="#000000" font-family="Arial" font-size="13px" font-style="normal" font-weight="normal" stroke="none" text-decoration="none" x="169.5" y="578.5">32 : refresh bugs list</text></g></g><g transform="translate(-46,-30) scale(1,1)"><path d="M 111 656 L 348 656" fill="none" stroke="#000000" stroke-miterlimit="10"/></g><g transform="translate(-46,-30) scale(1,1)"><path d="M 337.83732514237585 660.209517756016 L 348 656 L 337.83732514237585 651.790482243984" fill="#000000" stroke="none"/></g><g transform="translate(-46,-30) scale(1,1)"><path d="M 337.83732514237585 660.209517756016 L 348 656 L 337.83732514237585 651.790482243984 L 337.83732514237585 660.209517756016" fill="none" stroke="#000000" stroke-miterlimit="10"/></g><g transform="translate(-46,-30) scale(1,1)"><g><path fill="none" stroke="none"/><text fill="#000000" font-family="Arial" font-size="13px" font-style="normal" font-weight="normal" stroke="none" text-decoration="none" x="155.5" y="652.5">33 : press edit bug button</text></g></g><g transform="translate(-46,-30) scale(1,1)"><rect fill="#ffffff" height="28" stroke="none" width="13" x="348" y="656"/></g><g transform="translate(-46,-30) scale(1,1)"><path d="M 348 656 L 361 656 L 361 684 L 348 684 L 348 656 Z Z" fill="none" stroke="#000000" stroke-miterlimit="10"/></g><g transform="translate(-46,-30) scale(1,1)"><path d="M 348 676 L 111 676" fill="none" stroke="#000000" stroke-dasharray="3" stroke-miterlimit="10"/></g><g transform="translate(-46,-30) scale(1,1)"><path d="M 121.16267485762415 671.790482243984 L 111 676 L 121.16267485762415 680.209517756016" fill="none" stroke="#000000" stroke-miterlimit="10"/></g><g transform="translate(-46,-30) scale(1,1)"><g><path fill="none" stroke="none"/><text fill="#000000" font-family="Arial" font-size="13px" font-style="normal" font-weight="normal" stroke="none" text-decoration="none" x="160.5" y="692.5">34 : show edit bug form</text></g></g><g transform="translate(-46,-30) scale(1,1)"><path d="M 111 717 L 348 717" fill="none" stroke="#000000" stroke-miterlimit="10"/></g><g transform="translate(-46,-30) scale(1,1)"><path d="M 337.83732514237585 721.209517756016 L 348 717 L 337.83732514237585 712.790482243984" fill="#000000" stroke="none"/></g><g transform="translate(-46,-30) scale(1,1)"><path d="M 337.83732514237585 721.209517756016 L 348 717 L 337.83732514237585 712.790482243984 L 337.83732514237585 721.209517756016" fill="none" stroke="#000000" stroke-miterlimit="10"/></g><g transform="translate(-46,-30) scale(1,1)"><g><path fill="none" stroke="none"/><text fill="#000000" font-family="Arial" font-size="13px" font-style="normal" font-weight="normal" stroke="none" text-decoration="none" x="152.5" y="713.5">35 : press save bug button</text></g></g><g transform="translate(-46,-30) scale(1,1)"><rect fill="#ffffff" height="211" stroke="none" width="13" x="348" y="717"/></g><g transform="translate(-46,-30) scale(1,1)"><path d="M 348 717 L 361 717 L 361 928 L 348 928 L 348 717 Z Z" fill="none" stroke="#000000" stroke-miterlimit="10"/></g><g transform="translate(-46,-30) scale(1,1)"><path d="M 870 720 L 1140 720" fill="none" stroke="#000000" stroke-miterlimit="10"/></g><g transform="translate(-46,-30) scale(1,1)"><path d="M 1129.837325142376 724.209517756016 L 1140 720 L 1129.837325142376 715.790482243984" fill="#000000" stroke="none"/></g><g transform="translate(-46,-30) scale(1,1)"><path d="M 1129.837325142376 724.209517756016 L 1140 720 L 1129.837325142376 715.790482243984 L 1129.837325142376 724.209517756016" fill="none" stroke="#000000" stroke-miterlimit="10"/></g><g transform="translate(-46,-30) scale(1,1)"><g><path fill="none" stroke="none"/><text fill="#000000" font-family="Arial" font-size="13px" font-style="normal" font-weight="normal" stroke="none" text-decoration="none" x="947.5" y="708.5">36 : mongoose query</text></g></g><g transform="translate(-46,-30) scale(1,1)"><rect fill="#ffffff" height="28" stroke="none" width="13" x="1140" y="720"/></g><g transform="translate(-46,-30) scale(1,1)"><path d="M 1140 720 L 1153 720 L 1153 748 L 1140 748 L 1140 720 Z Z" fill="none" stroke="#000000" stroke-miterlimit="10"/></g><g transform="translate(-46,-30) scale(1,1)"><path d="M 1153 720 L 1324 720" fill="none" stroke="#000000" stroke-miterlimit="10"/></g><g transform="translate(-46,-30) scale(1,1)"><path d="M 1313.837325142376 724.209517756016 L 1324 720 L 1313.837325142376 715.790482243984" fill="#000000" stroke="none"/></g><g transform="translate(-46,-30) scale(1,1)"><path d="M 1313.837325142376 724.209517756016 L 1324 720 L 1313.837325142376 715.790482243984 L 1313.837325142376 724.209517756016" fill="none" stroke="#000000" stroke-miterlimit="10"/></g><g transform="translate(-46,-30) scale(1,1)"><g><path fill="none" stroke="none"/><text fill="#000000" font-family="Arial" font-size="13px" font-style="normal" font-weight="normal" stroke="none" text-decoration="none" x="1191.5" y="716.5">37 : nosql query</text></g></g><g transform="translate(-46,-30) scale(1,1)"><rect fill="#ffffff" height="28" stroke="none" width="13" x="1324" y="720"/></g><g transform="translate(-46,-30) scale(1,1)"><path d="M 1324 720 L 1337 720 L 1337 748 L 1324 748 L 1324 720 Z Z" fill="none" stroke="#000000" stroke-miterlimit="10"/></g><g transform="translate(-46,-30) scale(1,1)"><path d="M 567 722 L 863 722" fill="none" stroke="#000000" stroke-miterlimit="10"/></g><g transform="translate(-46,-30) scale(1,1)"><path d="M 852.8373251423759 726.209517756016 L 863 722 L 852.8373251423758 717.790482243984" fill="#000000" stroke="none"/></g><g transform="translate(-46,-30) scale(1,1)"><path d="M 852.8373251423759 726.209517756016 L 863 722 L 852.8373251423758 717.790482243984 L 852.8373251423759 726.209517756016" fill="none" stroke="#000000" stroke-miterlimit="10"/></g><g transform="translate(-46,-30) scale(1,1)"><g><path fill="none" stroke="none"/><text fill="#000000" font-family="Arial" font-size="13px" font-style="normal" font-weight="normal" stroke="none" text-decoration="none" x="587.5" y="718.5">38 : getBugById(user: User, bugId: ObjectId)</text></g></g><g transform="translate(-46,-30) scale(1,1)"><rect fill="#ffffff" height="28" stroke="none" width="13" x="863" y="722"/></g><g transform="translate(-46,-30) scale(1,1)"><path d="M 863 722 L 876 722 L 876 750 L 863 750 L 863 722 Z Z" fill="none" stroke="#000000" stroke-miterlimit="10"/></g><g transform="translate(-46,-30) scale(1,1)"><path d="M 361 724 L 560 724" fill="none" stroke="#000000" stroke-miterlimit="10"/></g><g transform="translate(-46,-30) scale(1,1)"><path d="M 549.8373251423759 728.209517756016 L 560 724 L 549.8373251423758 719.790482243984" fill="#000000" stroke="none"/></g><g transform="translate(-46,-30) scale(1,1)"><path d="M 549.8373251423759 728.209517756016 L 560 724 L 549.8373251423758 719.790482243984 L 549.8373251423759 728.209517756016" fill="none" stroke="#000000" stroke-miterlimit="10"/></g><g transform="translate(-46,-30) scale(1,1)"><g><path fill="none" stroke="none"/><text fill="#000000" font-family="Arial" font-size="13px" font-style="normal" font-weight="normal" stroke="none" text-decoration="none" x="370.5" y="720.5">39 : post(bugId: ObjectId, data)</text></g></g><g transform="translate(-46,-30) scale(1,1)"><rect fill="#ffffff" height="92" stroke="none" width="13" x="560" y="724"/></g><g transform="translate(-46,-30) scale(1,1)"><path d="M 560 724 L 573 724 L 573 816 L 560 816 L 560 724 Z Z" fill="none" stroke="#000000" stroke-miterlimit="10"/></g><g transform="translate(-46,-30) scale(1,1)"><path d="M 1140 737 L 876 737" fill="none" stroke="#000000" stroke-dasharray="3" stroke-miterlimit="10"/></g><g transform="translate(-46,-30) scale(1,1)"><path d="M 886.1626748576241 732.790482243984 L 876 737 L 886.1626748576241 741.209517756016" fill="none" stroke="#000000" stroke-miterlimit="10"/></g><g transform="translate(-46,-30) scale(1,1)"><g><path fill="none" stroke="none"/><text fill="#000000" font-family="Arial" font-size="13px" font-style="normal" font-weight="normal" stroke="none" text-decoration="none" x="982.5" y="753.5">40 : Bug</text></g></g><g transform="translate(-46,-30) scale(1,1)"><path d="M 1324 737 L 1153 737" fill="none" stroke="#000000" stroke-dasharray="3" stroke-miterlimit="10"/></g><g transform="translate(-46,-30) scale(1,1)"><path d="M 1163.162674857624 732.790482243984 L 1153 737 L 1163.162674857624 741.209517756016" fill="none" stroke="#000000" stroke-miterlimit="10"/></g><g transform="translate(-46,-30) scale(1,1)"><g><path fill="none" stroke="none"/><text fill="#000000" font-family="Arial" font-size="13px" font-style="normal" font-weight="normal" stroke="none" text-decoration="none" x="1195.5" y="753.5">41 : document</text></g></g><g transform="translate(-46,-30) scale(1,1)"><path d="M 863 738 L 573 738" fill="none" stroke="#000000" stroke-dasharray="3" stroke-miterlimit="10"/></g><g transform="translate(-46,-30) scale(1,1)"><path d="M 583.1626748576241 733.790482243984 L 573 738 L 583.1626748576241 742.209517756016" fill="none" stroke="#000000" stroke-miterlimit="10"/></g><g transform="translate(-46,-30) scale(1,1)"><g><path fill="none" stroke="none"/><text fill="#000000" font-family="Arial" font-size="13px" font-style="normal" font-weight="normal" stroke="none" text-decoration="none" x="692.5" y="754.5">42 : Bug</text></g></g><g transform="translate(-46,-30) scale(1,1)"><path d="M 348 755 L 111 755" fill="none" stroke="#000000" stroke-dasharray="3" stroke-miterlimit="10"/></g><g transform="translate(-46,-30) scale(1,1)"><path d="M 121.16267485762415 750.790482243984 L 111 755 L 121.16267485762415 759.209517756016" fill="none" stroke="#000000" stroke-miterlimit="10"/></g><g transform="translate(-46,-30) scale(1,1)"><g><path fill="none" stroke="none"/><text fill="#000000" font-family="Arial" font-size="13px" font-style="normal" font-weight="normal" stroke="none" text-decoration="none" x="158.75" y="771.5">43 : hide edit bug dialog</text></g></g><g transform="translate(-46,-30) scale(1,1)"><path d="M 573 781 L 863 781" fill="none" stroke="#000000" stroke-miterlimit="10"/></g><g transform="translate(-46,-30) scale(1,1)"><path d="M 852.8373251423759 785.209517756016 L 863 781 L 852.8373251423758 776.790482243984" fill="#000000" stroke="none"/></g><g transform="translate(-46,-30) scale(1,1)"><path d="M 852.8373251423759 785.209517756016 L 863 781 L 852.8373251423758 776.790482243984 L 852.8373251423759 785.209517756016" fill="none" stroke="#000000" stroke-miterlimit="10"/></g><g transform="translate(-46,-30) scale(1,1)"><g><path fill="none" stroke="none"/><text fill="#000000" font-family="Arial" font-size="13px" font-style="normal" font-weight="normal" stroke="none" text-decoration="none" x="627.5" y="777.5">44 : updateBug(bug: Bug, data)</text></g></g><g transform="translate(-46,-30) scale(1,1)"><rect fill="#ffffff" height="28" stroke="none" width="13" x="863" y="781"/></g><g transform="translate(-46,-30) scale(1,1)"><path d="M 863 781 L 876 781 L 876 809 L 863 809 L 863 781 Z Z" fill="none" stroke="#000000" stroke-miterlimit="10"/></g><g transform="translate(-46,-30) scale(1,1)"><path d="M 876 784 L 1140 784" fill="none" stroke="#000000" stroke-miterlimit="10"/></g><g transform="translate(-46,-30) scale(1,1)"><path d="M 1129.837325142376 788.209517756016 L 1140 784 L 1129.837325142376 779.790482243984" fill="#000000" stroke="none"/></g><g transform="translate(-46,-30) scale(1,1)"><path d="M 1129.837325142376 788.209517756016 L 1140 784 L 1129.837325142376 779.790482243984 L 1129.837325142376 788.209517756016" fill="none" stroke="#000000" stroke-miterlimit="10"/></g><g transform="translate(-46,-30) scale(1,1)"><g><path fill="none" stroke="none"/><text fill="#000000" font-family="Arial" font-size="13px" font-style="normal" font-weight="normal" stroke="none" text-decoration="none" x="946.5" y="780.5">45 : mongoose query</text></g></g><g transform="translate(-46,-30) scale(1,1)"><rect fill="#ffffff" height="28" stroke="none" width="13" x="1140" y="784"/></g><g transform="translate(-46,-30) scale(1,1)"><path d="M 1140 784 L 1153 784 L 1153 812 L 1140 812 L 1140 784 Z Z" fill="none" stroke="#000000" stroke-miterlimit="10"/></g><g transform="translate(-46,-30) scale(1,1)"><path d="M 1153 788 L 1324 788" fill="none" stroke="#000000" stroke-miterlimit="10"/></g><g transform="translate(-46,-30) scale(1,1)"><path d="M 1313.837325142376 792.209517756016 L 1324 788 L 1313.837325142376 783.790482243984" fill="#000000" stroke="none"/></g><g transform="translate(-46,-30) scale(1,1)"><path d="M 1313.837325142376 792.209517756016 L 1324 788 L 1313.837325142376 783.790482243984 L 1313.837325142376 792.209517756016" fill="none" stroke="#000000" stroke-miterlimit="10"/></g><g transform="translate(-46,-30) scale(1,1)"><g><path fill="none" stroke="none"/><text fill="#000000" font-family="Arial" font-size="13px" font-style="normal" font-weight="normal" stroke="none" text-decoration="none" x="1191.5" y="784.5">46 : nosql query</text></g></g><g transform="translate(-46,-30) scale(1,1)"><rect fill="#ffffff" height="28" stroke="none" width="13" x="1324" y="788"/></g><g transform="translate(-46,-30) scale(1,1)"><path d="M 1324 788 L 1337 788 L 1337 816 L 1324 816 L 1324 788 Z Z" fill="none" stroke="#000000" stroke-miterlimit="10"/></g><g transform="translate(-46,-30) scale(1,1)"><path d="M 560 808 L 361 808" fill="none" stroke="#000000" stroke-dasharray="3" stroke-miterlimit="10"/></g><g transform="translate(-46,-30) scale(1,1)"><path d="M 371.16267485762415 803.790482243984 L 361 808 L 371.16267485762415 812.209517756016" fill="none" stroke="#000000" stroke-miterlimit="10"/></g><g transform="translate(-46,-30) scale(1,1)"><g><path fill="none" stroke="none"/><text fill="#000000" font-family="Arial" font-size="13px" font-style="normal" font-weight="normal" stroke="none" text-decoration="none" x="434.5" y="824.5">47 : Bug</text></g></g><g transform="translate(-46,-30) scale(1,1)"><path d="M 361 872 L 560 872" fill="none" stroke="#000000" stroke-miterlimit="10"/></g><g transform="translate(-46,-30) scale(1,1)"><path d="M 549.8373251423759 876.209517756016 L 560 872 L 549.8373251423758 867.790482243984" fill="#000000" stroke="none"/></g><g transform="translate(-46,-30) scale(1,1)"><path d="M 549.8373251423759 876.209517756016 L 560 872 L 549.8373251423758 867.790482243984 L 549.8373251423759 876.209517756016" fill="none" stroke="#000000" stroke-miterlimit="10"/></g><g transform="translate(-46,-30) scale(1,1)"><g><path fill="none" stroke="none"/><text fill="#000000" font-family="Arial" font-size="13px" font-style="normal" font-weight="normal" stroke="none" text-decoration="none" x="379.5" y="865.5">48 : get(status: BugStatuses)</text></g></g><g transform="translate(-46,-30) scale(1,1)"><rect fill="#ffffff" height="32" stroke="none" width="13" x="560" y="872"/></g><g transform="translate(-46,-30) scale(1,1)"><path d="M 560 872 L 573 872 L 573 904 L 560 904 L 560 872 Z Z" fill="none" stroke="#000000" stroke-miterlimit="10"/></g><g transform="translate(-46,-30) scale(1,1)"><path d="M 573 872 L 863 872" fill="none" stroke="#000000" stroke-miterlimit="10"/></g><g transform="translate(-46,-30) scale(1,1)"><path d="M 852.8373251423759 876.209517756016 L 863 872 L 852.8373251423758 867.790482243984" fill="#000000" stroke="none"/></g><g transform="translate(-46,-30) scale(1,1)"><path d="M 852.8373251423759 876.209517756016 L 863 872 L 852.8373251423758 867.790482243984 L 852.8373251423759 876.209517756016" fill="none" stroke="#000000" stroke-miterlimit="10"/></g><g transform="translate(-46,-30) scale(1,1)"><g><path fill="none" stroke="none"/><text fill="#000000" font-family="Arial" font-size="13px" font-style="normal" font-weight="normal" stroke="none" text-decoration="none" x="586.5" y="868.5">49 : getBugs(user: User, status: BugStatuses)</text></g></g><g transform="translate(-46,-30) scale(1,1)"><rect fill="#ffffff" height="28" stroke="none" width="13" x="863" y="872"/></g><g transform="translate(-46,-30) scale(1,1)"><path d="M 863 872 L 876 872 L 876 900 L 863 900 L 863 872 Z Z" fill="none" stroke="#000000" stroke-miterlimit="10"/></g><g transform="translate(-46,-30) scale(1,1)"><path d="M 876 872 L 1140 872" fill="none" stroke="#000000" stroke-miterlimit="10"/></g><g transform="translate(-46,-30) scale(1,1)"><path d="M 1129.837325142376 876.209517756016 L 1140 872 L 1129.837325142376 867.790482243984" fill="#000000" stroke="none"/></g><g transform="translate(-46,-30) scale(1,1)"><path d="M 1129.837325142376 876.209517756016 L 1140 872 L 1129.837325142376 867.790482243984 L 1129.837325142376 876.209517756016" fill="none" stroke="#000000" stroke-miterlimit="10"/></g><g transform="translate(-46,-30) scale(1,1)"><g><path fill="none" stroke="none"/><text fill="#000000" font-family="Arial" font-size="13px" font-style="normal" font-weight="normal" stroke="none" text-decoration="none" x="941.5" y="867.5">50 : mongoose query</text></g></g><g transform="translate(-46,-30) scale(1,1)"><rect fill="#ffffff" height="28" stroke="none" width="13" x="1140" y="872"/></g><g transform="translate(-46,-30) scale(1,1)"><path d="M 1140 872 L 1153 872 L 1153 900 L 1140 900 L 1140 872 Z Z" fill="none" stroke="#000000" stroke-miterlimit="10"/></g><g transform="translate(-46,-30) scale(1,1)"><path d="M 1153 872 L 1324 872" fill="none" stroke="#000000" stroke-miterlimit="10"/></g><g transform="translate(-46,-30) scale(1,1)"><path d="M 1313.837325142376 876.209517756016 L 1324 872 L 1313.837325142376 867.790482243984" fill="#000000" stroke="none"/></g><g transform="translate(-46,-30) scale(1,1)"><path d="M 1313.837325142376 876.209517756016 L 1324 872 L 1313.837325142376 867.790482243984 L 1313.837325142376 876.209517756016" fill="none" stroke="#000000" stroke-miterlimit="10"/></g><g transform="translate(-46,-30) scale(1,1)"><g><path fill="none" stroke="none"/><text fill="#000000" font-family="Arial" font-size="13px" font-style="normal" font-weight="normal" stroke="none" text-decoration="none" x="1191.5" y="868.5">51 : nosql query</text></g></g><g transform="translate(-46,-30) scale(1,1)"><rect fill="#ffffff" height="28" stroke="none" width="13" x="1324" y="872"/></g><g transform="translate(-46,-30) scale(1,1)"><path d="M 1324 872 L 1337 872 L 1337 900 L 1324 900 L 1324 872 Z Z" fill="none" stroke="#000000" stroke-miterlimit="10"/></g><g transform="translate(-46,-30) scale(1,1)"><path d="M 560 892 L 361 892" fill="none" stroke="#000000" stroke-dasharray="3" stroke-miterlimit="10"/></g><g transform="translate(-46,-30) scale(1,1)"><path d="M 371.16267485762415 887.790482243984 L 361 892 L 371.16267485762415 896.209517756016" fill="none" stroke="#000000" stroke-miterlimit="10"/></g><g transform="translate(-46,-30) scale(1,1)"><g><path fill="none" stroke="none"/><text fill="#000000" font-family="Arial" font-size="13px" font-style="normal" font-weight="normal" stroke="none" text-decoration="none" x="431.44482421875" y="908.5">52 : Bug[]</text></g></g><g transform="translate(-46,-30) scale(1,1)"><path d="M 863 892 L 573 892" fill="none" stroke="#000000" stroke-dasharray="3" stroke-miterlimit="10"/></g><g transform="translate(-46,-30) scale(1,1)"><path d="M 583.1626748576241 887.790482243984 L 573 892 L 583.1626748576241 896.209517756016" fill="none" stroke="#000000" stroke-miterlimit="10"/></g><g transform="translate(-46,-30) scale(1,1)"><g><path fill="none" stroke="none"/><text fill="#000000" font-family="Arial" font-size="13px" font-style="normal" font-weight="normal" stroke="none" text-decoration="none" x="689.44482421875" y="908.5">53 : Bug[]</text></g></g><g transform="translate(-46,-30) scale(1,1)"><path d="M 1140 896 L 876 896" fill="none" stroke="#000000" stroke-dasharray="3" stroke-miterlimit="10"/></g><g transform="translate(-46,-30) scale(1,1)"><path d="M 886.1626748576241 891.790482243984 L 876 896 L 886.1626748576241 900.209517756016" fill="none" stroke="#000000" stroke-miterlimit="10"/></g><g transform="translate(-46,-30) scale(1,1)"><g><path fill="none" stroke="none"/><text fill="#000000" font-family="Arial" font-size="13px" font-style="normal" font-weight="normal" stroke="none" text-decoration="none" x="979.5" y="912.5">54 : Bug[]</text></g></g><g transform="translate(-46,-30) scale(1,1)"><path d="M 1324 896 L 1153 896" fill="none" stroke="#000000" stroke-dasharray="3" stroke-miterlimit="10"/></g><g transform="translate(-46,-30) scale(1,1)"><path d="M 1163.162674857624 891.790482243984 L 1153 896 L 1163.162674857624 900.209517756016" fill="none" stroke="#000000" stroke-miterlimit="10"/></g><g transform="translate(-46,-30) scale(1,1)"><g><path fill="none" stroke="none"/><text fill="#000000" font-family="Arial" font-size="13px" font-style="normal" font-weight="normal" stroke="none" text-decoration="none" x="1192.5" y="912.5">55 : documents</text></g></g><g transform="translate(-46,-30) scale(1,1)"><path d="M 348 912 L 111 912" fill="none" stroke="#000000" stroke-dasharray="3" stroke-miterlimit="10"/></g><g transform="translate(-46,-30) scale(1,1)"><path d="M 121.16267485762415 907.790482243984 L 111 912 L 121.16267485762415 916.209517756016" fill="none" stroke="#000000" stroke-miterlimit="10"/></g><g transform="translate(-46,-30) scale(1,1)"><g><path fill="none" stroke="none"/><text fill="#000000" font-family="Arial" font-size="13px" font-style="normal" font-weight="normal" stroke="none" text-decoration="none" x="169.30908203125" y="928.5">56 : refresh bugs list</text></g></g><g transform="translate(-46,-30) scale(1,1)"><path d="M 111 992 L 348 992" fill="none" stroke="#000000" stroke-miterlimit="10"/></g><g transform="translate(-46,-30) scale(1,1)"><path d="M 337.83732514237585 996.209517756016 L 348 992 L 337.83732514237585 987.790482243984" fill="#000000" stroke="none"/></g><g transform="translate(-46,-30) scale(1,1)"><path d="M 337.83732514237585 996.209517756016 L 348 992 L 337.83732514237585 987.790482243984 L 337.83732514237585 996.209517756016" fill="none" stroke="#000000" stroke-miterlimit="10"/></g><g transform="translate(-46,-30) scale(1,1)"><g><path fill="none" stroke="none"/><text fill="#000000" font-family="Arial" font-size="13px" font-style="normal" font-weight="normal" stroke="none" text-decoration="none" x="150.5" y="988.5">57 : press solve bug button</text></g></g><g transform="translate(-46,-30) scale(1,1)"><rect fill="#ffffff" height="208" stroke="none" width="13" x="348" y="992"/></g><g transform="translate(-46,-30) scale(1,1)"><path d="M 348 992 L 361 992 L 361 1200 L 348 1200 L 348 992 Z Z" fill="none" stroke="#000000" stroke-miterlimit="10"/></g><g transform="translate(-46,-30) scale(1,1)"><path d="M 361 992 L 560 992" fill="none" stroke="#000000" stroke-miterlimit="10"/></g><g transform="translate(-46,-30) scale(1,1)"><path d="M 549.8373251423759 996.209517756016 L 560 992 L 549.8373251423758 987.790482243984" fill="#000000" stroke="none"/></g><g transform="translate(-46,-30) scale(1,1)"><path d="M 549.8373251423759 996.209517756016 L 560 992 L 549.8373251423758 987.790482243984 L 549.8373251423759 996.209517756016" fill="none" stroke="#000000" stroke-miterlimit="10"/></g><g transform="translate(-46,-30) scale(1,1)"><g><path fill="none" stroke="none"/><text fill="#000000" font-family="Arial" font-size="13px" font-style="normal" font-weight="normal" stroke="none" text-decoration="none" x="367.5" y="988.5">58 : solve_post(bugId: ObjectId)</text></g></g><g transform="translate(-46,-30) scale(1,1)"><rect fill="#ffffff" height="96" stroke="none" width="13" x="560" y="992"/></g><g transform="translate(-46,-30) scale(1,1)"><path d="M 560 992 L 573 992 L 573 1088 L 560 1088 L 560 992 Z Z" fill="none" stroke="#000000" stroke-miterlimit="10"/></g><g transform="translate(-46,-30) scale(1,1)"><path d="M 573 1000 L 863 1000" fill="none" stroke="#000000" stroke-miterlimit="10"/></g><g transform="translate(-46,-30) scale(1,1)"><path d="M 852.8373251423759 1004.209517756016 L 863 1000 L 852.8373251423758 995.790482243984" fill="#000000" stroke="none"/></g><g transform="translate(-46,-30) scale(1,1)"><path d="M 852.8373251423759 1004.209517756016 L 863 1000 L 852.8373251423758 995.790482243984 L 852.8373251423759 1004.209517756016" fill="none" stroke="#000000" stroke-miterlimit="10"/></g><g transform="translate(-46,-30) scale(1,1)"><g><path fill="none" stroke="none"/><text fill="#000000" font-family="Arial" font-size="13px" font-style="normal" font-weight="normal" stroke="none" text-decoration="none" x="590.5" y="996.5">59 : getBugById(user: User, bugId: ObjectId)</text></g></g><g transform="translate(-46,-30) scale(1,1)"><rect fill="#ffffff" height="28" stroke="none" width="13" x="863" y="1000"/></g><g transform="translate(-46,-30) scale(1,1)"><path d="M 863 1000 L 876 1000 L 876 1028 L 863 1028 L 863 1000 Z Z" fill="none" stroke="#000000" stroke-miterlimit="10"/></g><g transform="translate(-46,-30) scale(1,1)"><path d="M 876 1000 L 1140 1000" fill="none" stroke="#000000" stroke-miterlimit="10"/></g><g transform="translate(-46,-30) scale(1,1)"><path d="M 1129.837325142376 1004.209517756016 L 1140 1000 L 1129.837325142376 995.790482243984" fill="#000000" stroke="none"/></g><g transform="translate(-46,-30) scale(1,1)"><path d="M 1129.837325142376 1004.209517756016 L 1140 1000 L 1129.837325142376 995.790482243984 L 1129.837325142376 1004.209517756016" fill="none" stroke="#000000" stroke-miterlimit="10"/></g><g transform="translate(-46,-30) scale(1,1)"><g><path fill="none" stroke="none"/><text fill="#000000" font-family="Arial" font-size="13px" font-style="normal" font-weight="normal" stroke="none" text-decoration="none" x="946.5" y="996.5">60 : mongoose query</text></g></g><g transform="translate(-46,-30) scale(1,1)"><rect fill="#ffffff" height="28" stroke="none" width="13" x="1140" y="1000"/></g><g transform="translate(-46,-30) scale(1,1)"><path d="M 1140 1000 L 1153 1000 L 1153 1028 L 1140 1028 L 1140 1000 Z Z" fill="none" stroke="#000000" stroke-miterlimit="10"/></g><g transform="translate(-46,-30) scale(1,1)"><path d="M 1153 1001 L 1324 1001" fill="none" stroke="#000000" stroke-miterlimit="10"/></g><g transform="translate(-46,-30) scale(1,1)"><path d="M 1313.837325142376 1005.209517756016 L 1324 1001 L 1313.837325142376 996.790482243984" fill="#000000" stroke="none"/></g><g transform="translate(-46,-30) scale(1,1)"><path d="M 1313.837325142376 1005.209517756016 L 1324 1001 L 1313.837325142376 996.790482243984 L 1313.837325142376 1005.209517756016" fill="none" stroke="#000000" stroke-miterlimit="10"/></g><g transform="translate(-46,-30) scale(1,1)"><g><path fill="none" stroke="none"/><text fill="#000000" font-family="Arial" font-size="13px" font-style="normal" font-weight="normal" stroke="none" text-decoration="none" x="1191.5" y="997.5">61 : nosql query</text></g></g><g transform="translate(-46,-30) scale(1,1)"><rect fill="#ffffff" height="28" stroke="none" width="13" x="1324" y="1001"/></g><g transform="translate(-46,-30) scale(1,1)"><path d="M 1324 1001 L 1337 1001 L 1337 1029 L 1324 1029 L 1324 1001 Z Z" fill="none" stroke="#000000" stroke-miterlimit="10"/></g><g transform="translate(-46,-30) scale(1,1)"><path d="M 863 1017 L 573 1017" fill="none" stroke="#000000" stroke-dasharray="3" stroke-miterlimit="10"/></g><g transform="translate(-46,-30) scale(1,1)"><path d="M 583.1626748576241 1012.790482243984 L 573 1017 L 583.1626748576241 1021.209517756016" fill="none" stroke="#000000" stroke-miterlimit="10"/></g><g transform="translate(-46,-30) scale(1,1)"><g><path fill="none" stroke="none"/><text fill="#000000" font-family="Arial" font-size="13px" font-style="normal" font-weight="normal" stroke="none" text-decoration="none" x="692.5" y="1033.5">62 : Bug</text></g></g><g transform="translate(-46,-30) scale(1,1)"><path d="M 1140 1017 L 876 1017" fill="none" stroke="#000000" stroke-dasharray="3" stroke-miterlimit="10"/></g><g transform="translate(-46,-30) scale(1,1)"><path d="M 886.1626748576241 1012.790482243984 L 876 1017 L 886.1626748576241 1021.209517756016" fill="none" stroke="#000000" stroke-miterlimit="10"/></g><g transform="translate(-46,-30) scale(1,1)"><g><path fill="none" stroke="none"/><text fill="#000000" font-family="Arial" font-size="13px" font-style="normal" font-weight="normal" stroke="none" text-decoration="none" x="982.5" y="1033.5">63 : Bug</text></g></g><g transform="translate(-46,-30) scale(1,1)"><path d="M 1324 1021 L 1153 1021" fill="none" stroke="#000000" stroke-dasharray="3" stroke-miterlimit="10"/></g><g transform="translate(-46,-30) scale(1,1)"><path d="M 1163.162674857624 1016.790482243984 L 1153 1021 L 1163.162674857624 1025.2095177560159" fill="none" stroke="#000000" stroke-miterlimit="10"/></g><g transform="translate(-46,-30) scale(1,1)"><g><path fill="none" stroke="none"/><text fill="#000000" font-family="Arial" font-size="13px" font-style="normal" font-weight="normal" stroke="none" text-decoration="none" x="1195.55908203125" y="1037.5">64 : document</text></g></g><g transform="translate(-46,-30) scale(1,1)"><path d="M 573 1056 L 863 1056" fill="none" stroke="#000000" stroke-miterlimit="10"/></g><g transform="translate(-46,-30) scale(1,1)"><path d="M 852.8373251423759 1060.2095177560159 L 863 1056 L 852.8373251423758 1051.7904822439841" fill="#000000" stroke="none"/></g><g transform="translate(-46,-30) scale(1,1)"><path d="M 852.8373251423759 1060.2095177560159 L 863 1056 L 852.8373251423758 1051.7904822439841 L 852.8373251423759 1060.2095177560159" fill="none" stroke="#000000" stroke-miterlimit="10"/></g><g transform="translate(-46,-30) scale(1,1)"><g><path fill="none" stroke="none"/><text fill="#000000" font-family="Arial" font-size="13px" font-style="normal" font-weight="normal" stroke="none" text-decoration="none" x="598.5" y="1052.5">65 : solveBug(user: User, bug: Bug, data)</text></g></g><g transform="translate(-46,-30) scale(1,1)"><rect fill="#ffffff" height="28" stroke="none" width="13" x="863" y="1056"/></g><g transform="translate(-46,-30) scale(1,1)"><path d="M 863 1056 L 876 1056 L 876 1084 L 863 1084 L 863 1056 Z Z" fill="none" stroke="#000000" stroke-miterlimit="10"/></g><g transform="translate(-46,-30) scale(1,1)"><path d="M 876 1056 L 1140 1056" fill="none" stroke="#000000" stroke-miterlimit="10"/></g><g transform="translate(-46,-30) scale(1,1)"><path d="M 1129.837325142376 1060.2095177560159 L 1140 1056 L 1129.837325142376 1051.7904822439841" fill="#000000" stroke="none"/></g><g transform="translate(-46,-30) scale(1,1)"><path d="M 1129.837325142376 1060.2095177560159 L 1140 1056 L 1129.837325142376 1051.7904822439841 L 1129.837325142376 1060.2095177560159" fill="none" stroke="#000000" stroke-miterlimit="10"/></g><g transform="translate(-46,-30) scale(1,1)"><g><path fill="none" stroke="none"/><text fill="#000000" font-family="Arial" font-size="13px" font-style="normal" font-weight="normal" stroke="none" text-decoration="none" x="946.5" y="1052.5">66 : mongoose query</text></g></g><g transform="translate(-46,-30) scale(1,1)"><rect fill="#ffffff" height="28" stroke="none" width="13" x="1140" y="1056"/></g><g transform="translate(-46,-30) scale(1,1)"><path d="M 1140 1056 L 1153 1056 L 1153 1084 L 1140 1084 L 1140 1056 Z Z" fill="none" stroke="#000000" stroke-miterlimit="10"/></g><g transform="translate(-46,-30) scale(1,1)"><path d="M 1153 1056 L 1324 1056" fill="none" stroke="#000000" stroke-miterlimit="10"/></g><g transform="translate(-46,-30) scale(1,1)"><path d="M 1313.837325142376 1060.2095177560159 L 1324 1056 L 1313.837325142376 1051.7904822439841" fill="#000000" stroke="none"/></g><g transform="translate(-46,-30) scale(1,1)"><path d="M 1313.837325142376 1060.2095177560159 L 1324 1056 L 1313.837325142376 1051.7904822439841 L 1313.837325142376 1060.2095177560159" fill="none" stroke="#000000" stroke-miterlimit="10"/></g><g transform="translate(-46,-30) scale(1,1)"><g><path fill="none" stroke="none"/><text fill="#000000" font-family="Arial" font-size="13px" font-style="normal" font-weight="normal" stroke="none" text-decoration="none" x="1191.5" y="1052.5">67 : nosql query</text></g></g><g transform="translate(-46,-30) scale(1,1)"><rect fill="#ffffff" height="28" stroke="none" width="13" x="1324" y="1056"/></g><g transform="translate(-46,-30) scale(1,1)"><path d="M 1324 1056 L 1337 1056 L 1337 1084 L 1324 1084 L 1324 1056 Z Z" fill="none" stroke="#000000" stroke-miterlimit="10"/></g><g transform="translate(-46,-30) scale(1,1)"><path d="M 560 1072 L 361 1072" fill="none" stroke="#000000" stroke-dasharray="3" stroke-miterlimit="10"/></g><g transform="translate(-46,-30) scale(1,1)"><path d="M 371.16267485762415 1067.7904822439841 L 361 1072 L 371.16267485762415 1076.2095177560159" fill="none" stroke="#000000" stroke-miterlimit="10"/></g><g transform="translate(-46,-30) scale(1,1)"><g><path fill="none" stroke="none"/><text fill="#000000" font-family="Arial" font-size="13px" font-style="normal" font-weight="normal" stroke="none" text-decoration="none" x="434.5390625" y="1088.5">68 : Bug</text></g></g><g transform="translate(-46,-30) scale(1,1)"><path d="M 361 1151 L 560 1151" fill="none" stroke="#000000" stroke-miterlimit="10"/></g><g transform="translate(-46,-30) scale(1,1)"><path d="M 549.8373251423759 1155.2095177560159 L 560 1151 L 549.8373251423758 1146.7904822439841" fill="#000000" stroke="none"/></g><g transform="translate(-46,-30) scale(1,1)"><path d="M 549.8373251423759 1155.2095177560159 L 560 1151 L 549.8373251423758 1146.7904822439841 L 549.8373251423759 1155.2095177560159" fill="none" stroke="#000000" stroke-miterlimit="10"/></g><g transform="translate(-46,-30) scale(1,1)"><g><path fill="none" stroke="none"/><text fill="#000000" font-family="Arial" font-size="13px" font-style="normal" font-weight="normal" stroke="none" text-decoration="none" x="376.5" y="1147.5">69 : get(status: BugStatuses)</text></g></g><g transform="translate(-46,-30) scale(1,1)"><rect fill="#ffffff" height="28" stroke="none" width="13" x="560" y="1151"/></g><g transform="translate(-46,-30) scale(1,1)"><path d="M 560 1151 L 573 1151 L 573 1179 L 560 1179 L 560 1151 Z Z" fill="none" stroke="#000000" stroke-miterlimit="10"/></g><g transform="translate(-46,-30) scale(1,1)"><path d="M 573 1152 L 863 1152" fill="none" stroke="#000000" stroke-miterlimit="10"/></g><g transform="translate(-46,-30) scale(1,1)"><path d="M 852.8373251423759 1156.2095177560159 L 863 1152 L 852.8373251423758 1147.7904822439841" fill="#000000" stroke="none"/></g><g transform="translate(-46,-30) scale(1,1)"><path d="M 852.8373251423759 1156.2095177560159 L 863 1152 L 852.8373251423758 1147.7904822439841 L 852.8373251423759 1156.2095177560159" fill="none" stroke="#000000" stroke-miterlimit="10"/></g><g transform="translate(-46,-30) scale(1,1)"><g><path fill="none" stroke="none"/><text fill="#000000" font-family="Arial" font-size="13px" font-style="normal" font-weight="normal" stroke="none" text-decoration="none" x="586.5" y="1148.5">70 : getBugs(user: User, status: BugStatuses)</text></g></g><g transform="translate(-46,-30) scale(1,1)"><rect fill="#ffffff" height="28" stroke="none" width="13" x="863" y="1152"/></g><g transform="translate(-46,-30) scale(1,1)"><path d="M 863 1152 L 876 1152 L 876 1180 L 863 1180 L 863 1152 Z Z" fill="none" stroke="#000000" stroke-miterlimit="10"/></g><g transform="translate(-46,-30) scale(1,1)"><path d="M 876 1152 L 1140 1152" fill="none" stroke="#000000" stroke-miterlimit="10"/></g><g transform="translate(-46,-30) scale(1,1)"><path d="M 1129.837325142376 1156.2095177560159 L 1140 1152 L 1129.837325142376 1147.7904822439841" fill="#000000" stroke="none"/></g><g transform="translate(-46,-30) scale(1,1)"><path d="M 1129.837325142376 1156.2095177560159 L 1140 1152 L 1129.837325142376 1147.7904822439841 L 1129.837325142376 1156.2095177560159" fill="none" stroke="#000000" stroke-miterlimit="10"/></g><g transform="translate(-46,-30) scale(1,1)"><g><path fill="none" stroke="none"/><text fill="#000000" font-family="Arial" font-size="13px" font-style="normal" font-weight="normal" stroke="none" text-decoration="none" x="946.5" y="1148.5">71 : mongoose query</text></g></g><g transform="translate(-46,-30) scale(1,1)"><rect fill="#ffffff" height="28" stroke="none" width="13" x="1140" y="1152"/></g><g transform="translate(-46,-30) scale(1,1)"><path d="M 1140 1152 L 1153 1152 L 1153 1180 L 1140 1180 L 1140 1152 Z Z" fill="none" stroke="#000000" stroke-miterlimit="10"/></g><g transform="translate(-46,-30) scale(1,1)"><path d="M 1153 1152 L 1324 1152" fill="none" stroke="#000000" stroke-miterlimit="10"/></g><g transform="translate(-46,-30) scale(1,1)"><path d="M 1313.837325142376 1156.2095177560159 L 1324 1152 L 1313.837325142376 1147.7904822439841" fill="#000000" stroke="none"/></g><g transform="translate(-46,-30) scale(1,1)"><path d="M 1313.837325142376 1156.2095177560159 L 1324 1152 L 1313.837325142376 1147.7904822439841 L 1313.837325142376 1156.2095177560159" fill="none" stroke="#000000" stroke-miterlimit="10"/></g><g transform="translate(-46,-30) scale(1,1)"><g><path fill="none" stroke="none"/><text fill="#000000" font-family="Arial" font-size="13px" font-style="normal" font-weight="normal" stroke="none" text-decoration="none" x="1190.5" y="1147.5">72 : nosql query</text></g></g><g transform="translate(-46,-30) scale(1,1)"><rect fill="#ffffff" height="28" stroke="none" width="13" x="1324" y="1152"/></g><g transform="translate(-46,-30) scale(1,1)"><path d="M 1324 1152 L 1337 1152 L 1337 1180 L 1324 1180 L 1324 1152 Z Z" fill="none" stroke="#000000" stroke-miterlimit="10"/></g><g transform="translate(-46,-30) scale(1,1)"><path d="M 863 1167 L 573 1167" fill="none" stroke="#000000" stroke-dasharray="3" stroke-miterlimit="10"/></g><g transform="translate(-46,-30) scale(1,1)"><path d="M 583.1626748576241 1162.7904822439841 L 573 1167 L 583.1626748576241 1171.2095177560159" fill="none" stroke="#000000" stroke-miterlimit="10"/></g><g transform="translate(-46,-30) scale(1,1)"><g><path fill="none" stroke="none"/><text fill="#000000" font-family="Arial" font-size="13px" font-style="normal" font-weight="normal" stroke="none" text-decoration="none" x="689.5" y="1183.5">73 : Bug[]</text></g></g><g transform="translate(-46,-30) scale(1,1)"><path d="M 1140 1168 L 876 1168" fill="none" stroke="#000000" stroke-dasharray="3" stroke-miterlimit="10"/></g><g transform="translate(-46,-30) scale(1,1)"><path d="M 886.1626748576241 1163.7904822439841 L 876 1168 L 886.1626748576241 1172.2095177560159" fill="none" stroke="#000000" stroke-miterlimit="10"/></g><g transform="translate(-46,-30) scale(1,1)"><g><path fill="none" stroke="none"/><text fill="#000000" font-family="Arial" font-size="13px" font-style="normal" font-weight="normal" stroke="none" text-decoration="none" x="979.5" y="1184.5">74 : Bug[]</text></g></g><g transform="translate(-46,-30) scale(1,1)"><path d="M 1324 1172 L 1153 1172" fill="none" stroke="#000000" stroke-dasharray="3" stroke-miterlimit="10"/></g><g transform="translate(-46,-30) scale(1,1)"><path d="M 1163.162674857624 1167.7904822439841 L 1153 1172 L 1163.162674857624 1176.2095177560159" fill="none" stroke="#000000" stroke-miterlimit="10"/></g><g transform="translate(-46,-30) scale(1,1)"><g><path fill="none" stroke="none"/><text fill="#000000" font-family="Arial" font-size="13px" font-style="normal" font-weight="normal" stroke="none" text-decoration="none" x="1192.30908203125" y="1188.5">75 : documents</text></g></g><g transform="translate(-46,-30) scale(1,1)"><path d="M 560 1174 L 361 1174" fill="none" stroke="#000000" stroke-dasharray="3" stroke-miterlimit="10"/></g><g transform="translate(-46,-30) scale(1,1)"><path d="M 371.16267485762415 1169.7904822439841 L 361 1174 L 371.16267485762415 1178.2095177560159" fill="none" stroke="#000000" stroke-miterlimit="10"/></g><g transform="translate(-46,-30) scale(1,1)"><g><path fill="none" stroke="none"/><text fill="#000000" font-family="Arial" font-size="13px" font-style="normal" font-weight="normal" stroke="none" text-decoration="none" x="431.5" y="1190.5">76 : Bug[]</text></g></g><g transform="translate(-46,-30) scale(1,1)"><path d="M 348 1184 L 111 1184" fill="none" stroke="#000000" stroke-dasharray="3" stroke-miterlimit="10"/></g><g transform="translate(-46,-30) scale(1,1)"><path d="M 121.16267485762415 1179.7904822439841 L 111 1184 L 121.16267485762415 1188.2095177560159" fill="none" stroke="#000000" stroke-miterlimit="10"/></g><g transform="translate(-46,-30) scale(1,1)"><g><path fill="none" stroke="none"/><text fill="#000000" font-family="Arial" font-size="13px" font-style="normal" font-weight="normal" stroke="none" text-decoration="none" x="169.5" y="1200.5">77 : refresh bugs list</text></g></g><g transform="translate(-46,-30) scale(1,1)"><path d="M 111 1248 L 348 1248" fill="none" stroke="#000000" stroke-miterlimit="10"/></g><g transform="translate(-46,-30) scale(1,1)"><path d="M 337.83732514237585 1252.2095177560159 L 348 1248 L 337.83732514237585 1243.7904822439841" fill="#000000" stroke="none"/></g><g transform="translate(-46,-30) scale(1,1)"><path d="M 337.83732514237585 1252.2095177560159 L 348 1248 L 337.83732514237585 1243.7904822439841 L 337.83732514237585 1252.2095177560159" fill="none" stroke="#000000" stroke-miterlimit="10"/></g><g transform="translate(-46,-30) scale(1,1)"><g><path fill="none" stroke="none"/><text fill="#000000" font-family="Arial" font-size="13px" font-style="normal" font-weight="normal" stroke="none" text-decoration="none" x="148.5" y="1244.5">78 : press delete bug button</text></g></g><g transform="translate(-46,-30) scale(1,1)"><rect fill="#ffffff" height="152" stroke="none" width="13" x="348" y="1248"/></g><g transform="translate(-46,-30) scale(1,1)"><path d="M 348 1248 L 361 1248 L 361 1400 L 348 1400 L 348 1248 Z Z" fill="none" stroke="#000000" stroke-miterlimit="10"/></g><g transform="translate(-46,-30) scale(1,1)"><path d="M 361 1248 L 560 1248" fill="none" stroke="#000000" stroke-miterlimit="10"/></g><g transform="translate(-46,-30) scale(1,1)"><path d="M 549.8373251423759 1252.2095177560159 L 560 1248 L 549.8373251423758 1243.7904822439841" fill="#000000" stroke="none"/></g><g transform="translate(-46,-30) scale(1,1)"><path d="M 549.8373251423759 1252.2095177560159 L 560 1248 L 549.8373251423758 1243.7904822439841 L 549.8373251423759 1252.2095177560159" fill="none" stroke="#000000" stroke-miterlimit="10"/></g><g transform="translate(-46,-30) scale(1,1)"><g><path fill="none" stroke="none"/><text fill="#000000" font-family="Arial" font-size="13px" font-style="normal" font-weight="normal" stroke="none" text-decoration="none" x="381.5" y="1244.5">79 : delete(bugId: ObjectId)</text></g></g><g transform="translate(-46,-30) scale(1,1)"><rect fill="#ffffff" height="72" stroke="none" width="13" x="560" y="1248"/></g><g transform="translate(-46,-30) scale(1,1)"><path d="M 560 1248 L 573 1248 L 573 1320 L 560 1320 L 560 1248 Z Z" fill="none" stroke="#000000" stroke-miterlimit="10"/></g><g transform="translate(-46,-30) scale(1,1)"><path d="M 573 1248 L 863 1248" fill="none" stroke="#000000" stroke-miterlimit="10"/></g><g transform="translate(-46,-30) scale(1,1)"><path d="M 852.8373251423759 1252.2095177560159 L 863 1248 L 852.8373251423758 1243.7904822439841" fill="#000000" stroke="none"/></g><g transform="translate(-46,-30) scale(1,1)"><path d="M 852.8373251423759 1252.2095177560159 L 863 1248 L 852.8373251423758 1243.7904822439841 L 852.8373251423759 1252.2095177560159" fill="none" stroke="#000000" stroke-miterlimit="10"/></g><g transform="translate(-46,-30) scale(1,1)"><g><path fill="none" stroke="none"/><text fill="#000000" font-family="Arial" font-size="13px" font-style="normal" font-weight="normal" stroke="none" text-decoration="none" x="590.5" y="1244.5">80 : getBugById(user: User, bugId: ObjectId)</text></g></g><g transform="translate(-46,-30) scale(1,1)"><rect fill="#ffffff" height="28" stroke="none" width="13" x="863" y="1248"/></g><g transform="translate(-46,-30) scale(1,1)"><path d="M 863 1248 L 876 1248 L 876 1276 L 863 1276 L 863 1248 Z Z" fill="none" stroke="#000000" stroke-miterlimit="10"/></g><g transform="translate(-46,-30) scale(1,1)"><path d="M 876 1248 L 1140 1248" fill="none" stroke="#000000" stroke-miterlimit="10"/></g><g transform="translate(-46,-30) scale(1,1)"><path d="M 1129.837325142376 1252.2095177560159 L 1140 1248 L 1129.837325142376 1243.7904822439841" fill="#000000" stroke="none"/></g><g transform="translate(-46,-30) scale(1,1)"><path d="M 1129.837325142376 1252.2095177560159 L 1140 1248 L 1129.837325142376 1243.7904822439841 L 1129.837325142376 1252.2095177560159" fill="none" stroke="#000000" stroke-miterlimit="10"/></g><g transform="translate(-46,-30) scale(1,1)"><g><path fill="none" stroke="none"/><text fill="#000000" font-family="Arial" font-size="13px" font-style="normal" font-weight="normal" stroke="none" text-decoration="none" x="946.5" y="1244.5">81 : mongoose query</text></g></g><g transform="translate(-46,-30) scale(1,1)"><rect fill="#ffffff" height="28" stroke="none" width="13" x="1140" y="1248"/></g><g transform="translate(-46,-30) scale(1,1)"><path d="M 1140 1248 L 1153 1248 L 1153 1276 L 1140 1276 L 1140 1248 Z Z" fill="none" stroke="#000000" stroke-miterlimit="10"/></g><g transform="translate(-46,-30) scale(1,1)"><path d="M 1153 1248 L 1324 1248" fill="none" stroke="#000000" stroke-miterlimit="10"/></g><g transform="translate(-46,-30) scale(1,1)"><path d="M 1313.837325142376 1252.2095177560159 L 1324 1248 L 1313.837325142376 1243.7904822439841" fill="#000000" stroke="none"/></g><g transform="translate(-46,-30) scale(1,1)"><path d="M 1313.837325142376 1252.2095177560159 L 1324 1248 L 1313.837325142376 1243.7904822439841 L 1313.837325142376 1252.2095177560159" fill="none" stroke="#000000" stroke-miterlimit="10"/></g><g transform="translate(-46,-30) scale(1,1)"><g><path fill="none" stroke="none"/><text fill="#000000" font-family="Arial" font-size="13px" font-style="normal" font-weight="normal" stroke="none" text-decoration="none" x="1191.5" y="1244.5">82 : nosql query</text></g></g><g transform="translate(-46,-30) scale(1,1)"><rect fill="#ffffff" height="28" stroke="none" width="13" x="1324" y="1248"/></g><g transform="translate(-46,-30) scale(1,1)"><path d="M 1324 1248 L 1337 1248 L 1337 1276 L 1324 1276 L 1324 1248 Z Z" fill="none" stroke="#000000" stroke-miterlimit="10"/></g><g transform="translate(-46,-30) scale(1,1)"><path d="M 863 1264 L 573 1264" fill="none" stroke="#000000" stroke-dasharray="3" stroke-miterlimit="10"/></g><g transform="translate(-46,-30) scale(1,1)"><path d="M 583.1626748576241 1259.7904822439841 L 573 1264 L 583.1626748576241 1268.2095177560159" fill="none" stroke="#000000" stroke-miterlimit="10"/></g><g transform="translate(-46,-30) scale(1,1)"><g><path fill="none" stroke="none"/><text fill="#000000" font-family="Arial" font-size="13px" font-style="normal" font-weight="normal" stroke="none" text-decoration="none" x="692.5" y="1280.5">83 : Bug</text></g></g><g transform="translate(-46,-30) scale(1,1)"><path d="M 1140 1264 L 876 1264" fill="none" stroke="#000000" stroke-dasharray="3" stroke-miterlimit="10"/></g><g transform="translate(-46,-30) scale(1,1)"><path d="M 886.1626748576241 1259.7904822439841 L 876 1264 L 886.1626748576241 1268.2095177560159" fill="none" stroke="#000000" stroke-miterlimit="10"/></g><g transform="translate(-46,-30) scale(1,1)"><g><path fill="none" stroke="none"/><text fill="#000000" font-family="Arial" font-size="13px" font-style="normal" font-weight="normal" stroke="none" text-decoration="none" x="982.5" y="1280.5">84 : Bug</text></g></g><g transform="translate(-46,-30) scale(1,1)"><path d="M 1324 1264 L 1153 1264" fill="none" stroke="#000000" stroke-dasharray="3" stroke-miterlimit="10"/></g><g transform="translate(-46,-30) scale(1,1)"><path d="M 1163.162674857624 1259.7904822439841 L 1153 1264 L 1163.162674857624 1268.2095177560159" fill="none" stroke="#000000" stroke-miterlimit="10"/></g><g transform="translate(-46,-30) scale(1,1)"><g><path fill="none" stroke="none"/><text fill="#000000" font-family="Arial" font-size="13px" font-style="normal" font-weight="normal" stroke="none" text-decoration="none" x="1195.5" y="1280.5">85 : document</text></g></g><g transform="translate(-46,-30) scale(1,1)"><path d="M 573 1304 L 863 1304" fill="none" stroke="#000000" stroke-miterlimit="10"/></g><g transform="translate(-46,-30) scale(1,1)"><path d="M 852.8373251423759 1308.2095177560159 L 863 1304 L 852.8373251423758 1299.7904822439841" fill="#000000" stroke="none"/></g><g transform="translate(-46,-30) scale(1,1)"><path d="M 852.8373251423759 1308.2095177560159 L 863 1304 L 852.8373251423758 1299.7904822439841 L 852.8373251423759 1308.2095177560159" fill="none" stroke="#000000" stroke-miterlimit="10"/></g><g transform="translate(-46,-30) scale(1,1)"><g><path fill="none" stroke="none"/><text fill="#000000" font-family="Arial" font-size="13px" font-style="normal" font-weight="normal" stroke="none" text-decoration="none" x="645.5" y="1300.5">86 : deleteBug(bug: Bug)</text></g></g><g transform="translate(-46,-30) scale(1,1)"><rect fill="#ffffff" height="28" stroke="none" width="13" x="863" y="1304"/></g><g transform="translate(-46,-30) scale(1,1)"><path d="M 863 1304 L 876 1304 L 876 1332 L 863 1332 L 863 1304 Z Z" fill="none" stroke="#000000" stroke-miterlimit="10"/></g><g transform="translate(-46,-30) scale(1,1)"><path d="M 876 1304 L 1140 1304" fill="none" stroke="#000000" stroke-miterlimit="10"/></g><g transform="translate(-46,-30) scale(1,1)"><path d="M 1129.837325142376 1308.2095177560159 L 1140 1304 L 1129.837325142376 1299.7904822439841" fill="#000000" stroke="none"/></g><g transform="translate(-46,-30) scale(1,1)"><path d="M 1129.837325142376 1308.2095177560159 L 1140 1304 L 1129.837325142376 1299.7904822439841 L 1129.837325142376 1308.2095177560159" fill="none" stroke="#000000" stroke-miterlimit="10"/></g><g transform="translate(-46,-30) scale(1,1)"><g><path fill="none" stroke="none"/><text fill="#000000" font-family="Arial" font-size="13px" font-style="normal" font-weight="normal" stroke="none" text-decoration="none" x="946.5" y="1300.5">87 : mongoose query</text></g></g><g transform="translate(-46,-30) scale(1,1)"><rect fill="#ffffff" height="28" stroke="none" width="13" x="1140" y="1304"/></g><g transform="translate(-46,-30) scale(1,1)"><path d="M 1140 1304 L 1153 1304 L 1153 1332 L 1140 1332 L 1140 1304 Z Z" fill="none" stroke="#000000" stroke-miterlimit="10"/></g><g transform="translate(-46,-30) scale(1,1)"><path d="M 1153 1305 L 1324 1305" fill="none" stroke="#000000" stroke-miterlimit="10"/></g><g transform="translate(-46,-30) scale(1,1)"><path d="M 1313.837325142376 1309.2095177560159 L 1324 1305 L 1313.837325142376 1300.7904822439841" fill="#000000" stroke="none"/></g><g transform="translate(-46,-30) scale(1,1)"><path d="M 1313.837325142376 1309.2095177560159 L 1324 1305 L 1313.837325142376 1300.7904822439841 L 1313.837325142376 1309.2095177560159" fill="none" stroke="#000000" stroke-miterlimit="10"/></g><g transform="translate(-46,-30) scale(1,1)"><g><path fill="none" stroke="none"/><text fill="#000000" font-family="Arial" font-size="13px" font-style="normal" font-weight="normal" stroke="none" text-decoration="none" x="1191.5" y="1301.5">88 : nosql query</text></g></g><g transform="translate(-46,-30) scale(1,1)"><rect fill="#ffffff" height="28" stroke="none" width="13" x="1324" y="1305"/></g><g transform="translate(-46,-30) scale(1,1)"><path d="M 1324 1305 L 1337 1305 L 1337 1333 L 1324 1333 L 1324 1305 Z Z" fill="none" stroke="#000000" stroke-miterlimit="10"/></g><g transform="translate(-46,-30) scale(1,1)"><path d="M 361 1352 L 560 1352" fill="none" stroke="#000000" stroke-miterlimit="10"/></g><g transform="translate(-46,-30) scale(1,1)"><path d="M 549.8373251423759 1356.2095177560159 L 560 1352 L 549.8373251423758 1347.7904822439841" fill="#000000" stroke="none"/></g><g transform="translate(-46,-30) scale(1,1)"><path d="M 549.8373251423759 1356.2095177560159 L 560 1352 L 549.8373251423758 1347.7904822439841 L 549.8373251423759 1356.2095177560159" fill="none" stroke="#000000" stroke-miterlimit="10"/></g><g transform="translate(-46,-30) scale(1,1)"><g><path fill="none" stroke="none"/><text fill="#000000" font-family="Arial" font-size="13px" font-style="normal" font-weight="normal" stroke="none" text-decoration="none" x="376.5" y="1348.5">89 : get(status: BugStatuses)</text></g></g><g transform="translate(-46,-30) scale(1,1)"><rect fill="#ffffff" height="28" stroke="none" width="13" x="560" y="1352"/></g><g transform="translate(-46,-30) scale(1,1)"><path d="M 560 1352 L 573 1352 L 573 1380 L 560 1380 L 560 1352 Z Z" fill="none" stroke="#000000" stroke-miterlimit="10"/></g><g transform="translate(-46,-30) scale(1,1)"><path d="M 573 1352 L 863 1352" fill="none" stroke="#000000" stroke-miterlimit="10"/></g><g transform="translate(-46,-30) scale(1,1)"><path d="M 852.8373251423759 1356.2095177560159 L 863 1352 L 852.8373251423758 1347.7904822439841" fill="#000000" stroke="none"/></g><g transform="translate(-46,-30) scale(1,1)"><path d="M 852.8373251423759 1356.2095177560159 L 863 1352 L 852.8373251423758 1347.7904822439841 L 852.8373251423759 1356.2095177560159" fill="none" stroke="#000000" stroke-miterlimit="10"/></g><g transform="translate(-46,-30) scale(1,1)"><g><path fill="none" stroke="none"/><text fill="#000000" font-family="Arial" font-size="13px" font-style="normal" font-weight="normal" stroke="none" text-decoration="none" x="586.5" y="1348.5">90 : getBugs(user: User, status: BugStatuses)</text></g></g><g transform="translate(-46,-30) scale(1,1)"><rect fill="#ffffff" height="28" stroke="none" width="13" x="863" y="1352"/></g><g transform="translate(-46,-30) scale(1,1)"><path d="M 863 1352 L 876 1352 L 876 1380 L 863 1380 L 863 1352 Z Z" fill="none" stroke="#000000" stroke-miterlimit="10"/></g><g transform="translate(-46,-30) scale(1,1)"><path d="M 876 1352 L 1140 1352" fill="none" stroke="#000000" stroke-miterlimit="10"/></g><g transform="translate(-46,-30) scale(1,1)"><path d="M 1129.837325142376 1356.2095177560159 L 1140 1352 L 1129.837325142376 1347.7904822439841" fill="#000000" stroke="none"/></g><g transform="translate(-46,-30) scale(1,1)"><path d="M 1129.837325142376 1356.2095177560159 L 1140 1352 L 1129.837325142376 1347.7904822439841 L 1129.837325142376 1356.2095177560159" fill="none" stroke="#000000" stroke-miterlimit="10"/></g><g transform="translate(-46,-30) scale(1,1)"><g><path fill="none" stroke="none"/><text fill="#000000" font-family="Arial" font-size="13px" font-style="normal" font-weight="normal" stroke="none" text-decoration="none" x="946.5" y="1348.5">91 : mongoose query</text></g></g><g transform="translate(-46,-30) scale(1,1)"><rect fill="#ffffff" height="28" stroke="none" width="13" x="1140" y="1352"/></g><g transform="translate(-46,-30) scale(1,1)"><path d="M 1140 1352 L 1153 1352 L 1153 1380 L 1140 1380 L 1140 1352 Z Z" fill="none" stroke="#000000" stroke-miterlimit="10"/></g><g transform="translate(-46,-30) scale(1,1)"><path d="M 1153 1355 L 1324 1355" fill="none" stroke="#000000" stroke-miterlimit="10"/></g><g transform="translate(-46,-30) scale(1,1)"><path d="M 1313.837325142376 1359.2095177560159 L 1324 1355 L 1313.837325142376 1350.7904822439841" fill="#000000" stroke="none"/></g><g transform="translate(-46,-30) scale(1,1)"><path d="M 1313.837325142376 1359.2095177560159 L 1324 1355 L 1313.837325142376 1350.7904822439841 L 1313.837325142376 1359.2095177560159" fill="none" stroke="#000000" stroke-miterlimit="10"/></g><g transform="translate(-46,-30) scale(1,1)"><g><path fill="none" stroke="none"/><text fill="#000000" font-family="Arial" font-size="13px" font-style="normal" font-weight="normal" stroke="none" text-decoration="none" x="1189.5" y="1351.5">92 : no sql query</text></g></g><g transform="translate(-46,-30) scale(1,1)"><rect fill="#ffffff" height="28" stroke="none" width="13" x="1324" y="1355"/></g><g transform="translate(-46,-30) scale(1,1)"><path d="M 1324 1355 L 1337 1355 L 1337 1383 L 1324 1383 L 1324 1355 Z Z" fill="none" stroke="#000000" stroke-miterlimit="10"/></g><g transform="translate(-46,-30) scale(1,1)"><path d="M 560 1367 L 361 1367" fill="none" stroke="#000000" stroke-dasharray="3" stroke-miterlimit="10"/></g><g transform="translate(-46,-30) scale(1,1)"><path d="M 371.16267485762415 1362.7904822439841 L 361 1367 L 371.16267485762415 1371.2095177560159" fill="none" stroke="#000000" stroke-miterlimit="10"/></g><g transform="translate(-46,-30) scale(1,1)"><g><path fill="none" stroke="none"/><text fill="#000000" font-family="Arial" font-size="13px" font-style="normal" font-weight="normal" stroke="none" text-decoration="none" x="431.5" y="1383.5">93 : Bug[]</text></g></g><g transform="translate(-46,-30) scale(1,1)"><path d="M 1140 1369 L 876 1369" fill="none" stroke="#000000" stroke-dasharray="3" stroke-miterlimit="10"/></g><g transform="translate(-46,-30) scale(1,1)"><path d="M 886.1626748576241 1364.7904822439841 L 876 1369 L 886.1626748576241 1373.2095177560159" fill="none" stroke="#000000" stroke-miterlimit="10"/></g><g transform="translate(-46,-30) scale(1,1)"><g><path fill="none" stroke="none"/><text fill="#000000" font-family="Arial" font-size="13px" font-style="normal" font-weight="normal" stroke="none" text-decoration="none" x="979.5" y="1385.5">94 : Bug[]</text></g></g><g transform="translate(-46,-30) scale(1,1)"><path d="M 863 1371 L 573 1371" fill="none" stroke="#000000" stroke-dasharray="3" stroke-miterlimit="10"/></g><g transform="translate(-46,-30) scale(1,1)"><path d="M 583.1626748576241 1366.7904822439841 L 573 1371 L 583.1626748576241 1375.2095177560159" fill="none" stroke="#000000" stroke-miterlimit="10"/></g><g transform="translate(-46,-30) scale(1,1)"><g><path fill="none" stroke="none"/><text fill="#000000" font-family="Arial" font-size="13px" font-style="normal" font-weight="normal" stroke="none" text-decoration="none" x="689.5" y="1387.5">95 : Bug[]</text></g></g><g transform="translate(-46,-30) scale(1,1)"><path d="M 1324 1376 L 1153 1376" fill="none" stroke="#000000" stroke-dasharray="3" stroke-miterlimit="10"/></g><g transform="translate(-46,-30) scale(1,1)"><path d="M 1163.162674857624 1371.7904822439841 L 1153 1376 L 1163.162674857624 1380.2095177560159" fill="none" stroke="#000000" stroke-miterlimit="10"/></g><g transform="translate(-46,-30) scale(1,1)"><g><path fill="none" stroke="none"/><text fill="#000000" font-family="Arial" font-size="13px" font-style="normal" font-weight="normal" stroke="none" text-decoration="none" x="1192.5" y="1392.5">96 : documents</text></g></g><g transform="translate(-46,-30) scale(1,1)"><path d="M 348 1381 L 111 1381" fill="none" stroke="#000000" stroke-dasharray="3" stroke-miterlimit="10"/></g><g transform="translate(-46,-30) scale(1,1)"><path d="M 121.16267485762415 1376.7904822439841 L 111 1381 L 121.16267485762415 1385.2095177560159" fill="none" stroke="#000000" stroke-miterlimit="10"/></g><g transform="translate(-46,-30) scale(1,1)"><g><path fill="none" stroke="none"/><text fill="#000000" font-family="Arial" font-size="13px" font-style="normal" font-weight="normal" stroke="none" text-decoration="none" x="169.5" y="1397.5">97 : refresh bugs list</text></g></g></g></svg>