<?xml version="1.0" encoding="UTF-8" standalone="no"?><svg xmlns="http://www.w3.org/2000/svg" xmlns:xlink="http://www.w3.org/1999/xlink" height="580" version="1.1" width="1279.95361328125"><defs/><g><g transform="translate(10,-30) scale(1,1)"><path d="M 42.86314541903409 47.3 C 42.86314541903409 43.82060576 45.74154714121591 41 49.292236328125 41 C 52.84292551503409 41 55.72132723721591 43.82060576 55.72132723721591 47.3 C 55.72132723721591 50.779394239999995 52.84292551503409 53.6 49.292236328125 53.6 C 45.74154714121591 53.6 42.86314541903409 50.779394239999995 42.86314541903409 47.3 Z" fill="#ffffff" stroke="none"/></g><g transform="translate(10,-30) scale(1,1)"><path d="M 42.86314541903409 47.3 C 42.86314541903409 43.82060576 45.74154714121591 41 49.292236328125 41 C 52.84292551503409 41 55.72132723721591 43.82060576 55.72132723721591 47.3 C 55.72132723721591 50.779394239999995 52.84292551503409 53.6 49.292236328125 53.6 C 45.74154714121591 53.6 42.86314541903409 50.779394239999995 42.86314541903409 47.3 Z" fill="none" stroke="#000000" stroke-miterlimit="10"/></g><g transform="translate(10,-30) scale(1,1)"><path d="M 49.292236328125 53.6 L 49.292236328125 66.4" fill="none" stroke="#000000" stroke-miterlimit="10"/></g><g transform="translate(10,-30) scale(1,1)"><path d="M 42.484963600852275 58.4 L 56.099509055397725 58.4" fill="none" stroke="#000000" stroke-miterlimit="10"/></g><g transform="translate(10,-30) scale(1,1)"><path d="M 49.292236328125 66.4 L 39.83769087357955 79" fill="none" stroke="#000000" stroke-miterlimit="10"/></g><g transform="translate(10,-30) scale(1,1)"><path d="M 49.292236328125 66.4 L 58.74678178267045 79" fill="none" stroke="#000000" stroke-miterlimit="10"/></g><g transform="translate(10,-30) scale(1,1)"><g><path fill="none" stroke="none"/><text fill="#000000" font-family="Arial" font-size="13px" font-style="normal" font-weight="bold" stroke="none" text-decoration="none" x="7.74365234375" y="99.5">Lifeline1: User</text></g></g><g transform="translate(10,-30) scale(1,1)"><path d="M 50.5 105 L 50.5 600" fill="none" stroke="#000000" stroke-dasharray="3" stroke-miterlimit="10"/></g><g transform="translate(10,-30) scale(1,1)"><path d="M 1199.547715731534 47.3 C 1199.547715731534 43.82060576 1202.426117453716 41 1205.976806640625 41 C 1209.527495827534 41 1212.405897549716 43.82060576 1212.405897549716 47.3 C 1212.405897549716 50.779394239999995 1209.527495827534 53.6 1205.976806640625 53.6 C 1202.426117453716 53.6 1199.547715731534 50.779394239999995 1199.547715731534 47.3 Z" fill="#ffffff" stroke="none"/></g><g transform="translate(10,-30) scale(1,1)"><path d="M 1199.547715731534 47.3 C 1199.547715731534 43.82060576 1202.426117453716 41 1205.976806640625 41 C 1209.527495827534 41 1212.405897549716 43.82060576 1212.405897549716 47.3 C 1212.405897549716 50.779394239999995 1209.527495827534 53.6 1205.976806640625 53.6 C 1202.426117453716 53.6 1199.547715731534 50.779394239999995 1199.547715731534 47.3 Z" fill="none" stroke="#000000" stroke-miterlimit="10"/></g><g transform="translate(10,-30) scale(1,1)"><path d="M 1205.976806640625 53.6 L 1205.976806640625 66.4" fill="none" stroke="#000000" stroke-miterlimit="10"/></g><g transform="translate(10,-30) scale(1,1)"><path d="M 1199.1695339133523 58.4 L 1212.7840793678977 58.4" fill="none" stroke="#000000" stroke-miterlimit="10"/></g><g transform="translate(10,-30) scale(1,1)"><path d="M 1205.976806640625 66.4 L 1196.5222611860795 79" fill="none" stroke="#000000" stroke-miterlimit="10"/></g><g transform="translate(10,-30) scale(1,1)"><path d="M 1205.976806640625 66.4 L 1215.4313520951705 79" fill="none" stroke="#000000" stroke-miterlimit="10"/></g><g transform="translate(10,-30) scale(1,1)"><g><path fill="none" stroke="none"/><text fill="#000000" font-family="Arial" font-size="13px" font-style="normal" font-weight="bold" stroke="none" text-decoration="none" x="1159.372314453125" y="99.5">Lifeline2: DBMS</text></g></g><g transform="translate(10,-30) scale(1,1)"><path d="M 1206.5 105 L 1206.5 592" fill="none" stroke="#000000" stroke-dasharray="3" stroke-miterlimit="10"/></g><g transform="translate(10,-30) scale(1,1)"><rect fill="#C0C0C0" height="39" opacity="0.2" stroke="none" width="71.736328125" x="151" y="47"/></g><g transform="translate(10,-30) scale(1,1)"><rect fill="#ffffff" height="39" stroke="none" width="71.736328125" x="144" y="40"/></g><g transform="translate(10,-30) scale(1,1)"><path d="M 144 40 L 215.736328125 40 L 215.736328125 79 L 144 79 L 144 40 Z Z" fill="none" stroke="#000000" stroke-miterlimit="10"/></g><g transform="translate(10,-30) scale(1,1)"><g><path fill="none" stroke="none"/><text fill="#000000" font-family="Arial" font-size="13px" font-style="normal" font-weight="bold" stroke="none" text-decoration="none" x="156.75" y="59.5">Window</text></g></g><g transform="translate(10,-30) scale(1,1)"><path d="M 180.5 80 L 180.5 600" fill="none" stroke="#000000" stroke-dasharray="3" stroke-miterlimit="10"/></g><g transform="translate(10,-30) scale(1,1)"><rect fill="#C0C0C0" height="39" opacity="0.2" stroke="none" width="72.45361328125" x="359" y="47"/></g><g transform="translate(10,-30) scale(1,1)"><rect fill="#ffffff" height="39" stroke="none" width="72.45361328125" x="352" y="40"/></g><g transform="translate(10,-30) scale(1,1)"><path d="M 352 40 L 424.45361328125 40 L 424.45361328125 79 L 352 79 L 352 40 Z Z" fill="none" stroke="#000000" stroke-miterlimit="10"/></g><g transform="translate(10,-30) scale(1,1)"><g><path fill="none" stroke="none"/><text fill="#000000" font-family="Arial" font-size="13px" font-style="normal" font-weight="bold" stroke="none" text-decoration="none" x="363.286865234375" y="59.5">auth_api</text></g></g><g transform="translate(10,-30) scale(1,1)"><path d="M 389.5 80 L 389.5 600" fill="none" stroke="#000000" stroke-dasharray="3" stroke-miterlimit="10"/></g><g transform="translate(10,-30) scale(1,1)"><rect fill="#C0C0C0" height="39" opacity="0.2" stroke="none" width="177.27880859375" x="607" y="47"/></g><g transform="translate(10,-30) scale(1,1)"><rect fill="#ffffff" height="39" stroke="none" width="177.27880859375" x="600" y="40"/></g><g transform="translate(10,-30) scale(1,1)"><path d="M 600 40 L 777.27880859375 40 L 777.27880859375 79 L 600 79 L 600 40 Z Z" fill="none" stroke="#000000" stroke-miterlimit="10"/></g><g transform="translate(10,-30) scale(1,1)"><g><path fill="none" stroke="none"/><text fill="#000000" font-family="Arial" font-size="13px" font-style="normal" font-weight="bold" stroke="none" text-decoration="none" x="614.232177734375" y="59.5">UserService: UserService</text></g></g><g transform="translate(10,-30) scale(1,1)"><path d="M 689.5 80 L 689.5 481" fill="none" stroke="#000000" stroke-dasharray="3" stroke-miterlimit="10"/></g><g transform="translate(10,-30) scale(1,1)"><rect fill="#C0C0C0" height="39" opacity="0.2" stroke="none" width="94.86083984375" x="783" y="47"/></g><g transform="translate(10,-30) scale(1,1)"><rect fill="#ffffff" height="39" stroke="none" width="94.86083984375" x="776" y="40"/></g><g transform="translate(10,-30) scale(1,1)"><path d="M 776 40 L 870.86083984375 40 L 870.86083984375 79 L 776 79 L 776 40 Z Z" fill="none" stroke="#000000" stroke-miterlimit="10"/></g><g transform="translate(10,-30) scale(1,1)"><g><path fill="none" stroke="none"/><text fill="#000000" font-family="Arial" font-size="13px" font-style="normal" font-weight="bold" stroke="none" text-decoration="none" x="788.385009765625" y="59.5">AuthService</text></g></g><g transform="translate(10,-30) scale(1,1)"><path d="M 824.5 80 L 824.5 600" fill="none" stroke="#000000" stroke-dasharray="3" stroke-miterlimit="10"/></g><g transform="translate(10,-30) scale(1,1)"><rect fill="#C0C0C0" height="39" opacity="0.2" stroke="none" width="84.75537109375" x="999" y="47"/></g><g transform="translate(10,-30) scale(1,1)"><rect fill="#ffffff" height="39" stroke="none" width="84.75537109375" x="992" y="40"/></g><g transform="translate(10,-30) scale(1,1)"><path d="M 992 40 L 1076.75537109375 40 L 1076.75537109375 79 L 992 79 L 992 40 Z Z" fill="none" stroke="#000000" stroke-miterlimit="10"/></g><g transform="translate(10,-30) scale(1,1)"><g><path fill="none" stroke="none"/><text fill="#000000" font-family="Arial" font-size="13px" font-style="normal" font-weight="bold" stroke="none" text-decoration="none" x="1003.318603515625" y="59.5">User: User</text></g></g><g transform="translate(10,-30) scale(1,1)"><path d="M 1035.5 80 L 1035.5 600" fill="none" stroke="#000000" stroke-dasharray="3" stroke-miterlimit="10"/></g><g transform="translate(10,-30) scale(1,1)"><path d="M 50 121 L 173 121" fill="none" stroke="#000000" stroke-miterlimit="10"/></g><g transform="translate(10,-30) scale(1,1)"><path d="M 162.83732514237585 125.20951775601598 L 173 121 L 162.83732514237585 116.79048224398402" fill="#000000" stroke="none"/></g><g transform="translate(10,-30) scale(1,1)"><path d="M 162.83732514237585 125.20951775601598 L 173 121 L 162.83732514237585 116.79048224398402 L 162.83732514237585 125.20951775601598" fill="none" stroke="#000000" stroke-miterlimit="10"/></g><g transform="translate(10,-30) scale(1,1)"><g><path fill="none" stroke="none"/><text fill="#000000" font-family="Arial" font-size="13px" font-style="normal" font-weight="normal" stroke="none" text-decoration="none" x="87.029541015625" y="117.5">1 : open</text></g></g><g transform="translate(10,-30) scale(1,1)"><rect fill="#ffffff" height="28" stroke="none" width="13" x="173" y="121"/></g><g transform="translate(10,-30) scale(1,1)"><path d="M 173 121 L 186 121 L 186 149 L 173 149 L 173 121 Z Z" fill="none" stroke="#000000" stroke-miterlimit="10"/></g><g transform="translate(10,-30) scale(1,1)"><path d="M 173 134 L 50 134" fill="none" stroke="#000000" stroke-dasharray="3" stroke-miterlimit="10"/></g><g transform="translate(10,-30) scale(1,1)"><path d="M 60.162674857624154 129.790482243984 L 50 134 L 60.162674857624154 138.209517756016" fill="none" stroke="#000000" stroke-miterlimit="10"/></g><g transform="translate(10,-30) scale(1,1)"><g><path fill="none" stroke="none"/><text fill="#000000" font-family="Arial" font-size="13px" font-style="normal" font-weight="normal" stroke="none" text-decoration="none" x="55.5" y="150.5">2 : show login form</text></g></g><g transform="translate(10,-30) scale(1,1)"><path d="M 50 200 L 173 200" fill="none" stroke="#000000" stroke-miterlimit="10"/></g><g transform="translate(10,-30) scale(1,1)"><path d="M 162.83732514237585 204.209517756016 L 173 200 L 162.83732514237585 195.790482243984" fill="#000000" stroke="none"/></g><g transform="translate(10,-30) scale(1,1)"><path d="M 162.83732514237585 204.209517756016 L 173 200 L 162.83732514237585 195.790482243984 L 162.83732514237585 204.209517756016" fill="none" stroke="#000000" stroke-miterlimit="10"/></g><g transform="translate(10,-30) scale(1,1)"><g><path fill="none" stroke="none"/><text fill="#000000" font-family="Arial" font-size="13px" font-style="normal" font-weight="normal" stroke="none" text-decoration="none" x="57.5" y="196.5">3 : input username</text></g></g><g transform="translate(10,-30) scale(1,1)"><rect fill="#ffffff" height="28" stroke="none" width="13" x="173" y="200"/></g><g transform="translate(10,-30) scale(1,1)"><path d="M 173 200 L 186 200 L 186 228 L 173 228 L 173 200 Z Z" fill="none" stroke="#000000" stroke-miterlimit="10"/></g><g transform="translate(10,-30) scale(1,1)"><path d="M 50 273 L 173 273" fill="none" stroke="#000000" stroke-miterlimit="10"/></g><g transform="translate(10,-30) scale(1,1)"><path d="M 162.83732514237585 277.209517756016 L 173 273 L 162.83732514237585 268.790482243984" fill="#000000" stroke="none"/></g><g transform="translate(10,-30) scale(1,1)"><path d="M 162.83732514237585 277.209517756016 L 173 273 L 162.83732514237585 268.790482243984 L 162.83732514237585 277.209517756016" fill="none" stroke="#000000" stroke-miterlimit="10"/></g><g transform="translate(10,-30) scale(1,1)"><g><path fill="none" stroke="none"/><text fill="#000000" font-family="Arial" font-size="13px" font-style="normal" font-weight="normal" stroke="none" text-decoration="none" x="58.58544921875" y="269.5">4 : input password</text></g></g><g transform="translate(10,-30) scale(1,1)"><rect fill="#ffffff" height="28" stroke="none" width="13" x="173" y="273"/></g><g transform="translate(10,-30) scale(1,1)"><path d="M 173 273 L 186 273 L 186 301 L 173 301 L 173 273 Z Z" fill="none" stroke="#000000" stroke-miterlimit="10"/></g><g transform="translate(10,-30) scale(1,1)"><path d="M 50 357 L 173 357" fill="none" stroke="#000000" stroke-miterlimit="10"/></g><g transform="translate(10,-30) scale(1,1)"><path d="M 162.83732514237585 361.209517756016 L 173 357 L 162.83732514237585 352.790482243984" fill="#000000" stroke="none"/></g><g transform="translate(10,-30) scale(1,1)"><path d="M 162.83732514237585 361.209517756016 L 173 357 L 162.83732514237585 352.790482243984 L 162.83732514237585 361.209517756016" fill="none" stroke="#000000" stroke-miterlimit="10"/></g><g transform="translate(10,-30) scale(1,1)"><g><path fill="none" stroke="none"/><text fill="#000000" font-family="Arial" font-size="13px" font-style="normal" font-weight="normal" stroke="none" text-decoration="none" x="53.75634765625" y="353.5">5 : click login button</text></g></g><g transform="translate(10,-30) scale(1,1)"><rect fill="#ffffff" height="163" stroke="none" width="13" x="173" y="357"/></g><g transform="translate(10,-30) scale(1,1)"><path d="M 173 357 L 186 357 L 186 520 L 173 520 L 173 357 Z Z" fill="none" stroke="#000000" stroke-miterlimit="10"/></g><g transform="translate(10,-30) scale(1,1)"><path d="M 186 360 L 382 360" fill="none" stroke="#000000" stroke-miterlimit="10"/></g><g transform="translate(10,-30) scale(1,1)"><path d="M 371.83732514237585 364.209517756016 L 382 360 L 371.83732514237585 355.790482243984" fill="#000000" stroke="none"/></g><g transform="translate(10,-30) scale(1,1)"><path d="M 371.83732514237585 364.209517756016 L 382 360 L 371.83732514237585 355.790482243984 L 371.83732514237585 364.209517756016" fill="none" stroke="#000000" stroke-miterlimit="10"/></g><g transform="translate(10,-30) scale(1,1)"><g><path fill="none" stroke="none"/><text fill="#000000" font-family="Arial" font-size="13px" font-style="normal" font-weight="normal" stroke="none" text-decoration="none" x="196.5" y="356.5">6 : login(username, password)</text></g></g><g transform="translate(10,-30) scale(1,1)"><rect fill="#ffffff" height="160" stroke="none" width="13" x="382" y="360"/></g><g transform="translate(10,-30) scale(1,1)"><path d="M 382 360 L 395 360 L 395 520 L 382 520 L 382 360 Z Z" fill="none" stroke="#000000" stroke-miterlimit="10"/></g><g transform="translate(10,-30) scale(1,1)"><path d="M 395 360 L 682 360" fill="none" stroke="#000000" stroke-miterlimit="10"/></g><g transform="translate(10,-30) scale(1,1)"><path d="M 671.8373251423759 364.209517756016 L 682 360 L 671.8373251423758 355.790482243984" fill="#000000" stroke="none"/></g><g transform="translate(10,-30) scale(1,1)"><path d="M 671.8373251423759 364.209517756016 L 682 360 L 671.8373251423758 355.790482243984 L 671.8373251423759 364.209517756016" fill="none" stroke="#000000" stroke-miterlimit="10"/></g><g transform="translate(10,-30) scale(1,1)"><g><path fill="none" stroke="none"/><text fill="#000000" font-family="Arial" font-size="13px" font-style="normal" font-weight="normal" stroke="none" text-decoration="none" x="434.5" y="356.5">7 : getUserByUserName(username)</text></g></g><g transform="translate(10,-30) scale(1,1)"><rect fill="#ffffff" height="28" stroke="none" width="13" x="682" y="360"/></g><g transform="translate(10,-30) scale(1,1)"><path d="M 682 360 L 695 360 L 695 388 L 682 388 L 682 360 Z Z" fill="none" stroke="#000000" stroke-miterlimit="10"/></g><g transform="translate(10,-30) scale(1,1)"><path d="M 695 360 L 1028 360" fill="none" stroke="#000000" stroke-miterlimit="10"/></g><g transform="translate(10,-30) scale(1,1)"><path d="M 1017.8373251423759 364.209517756016 L 1028 360 L 1017.8373251423758 355.790482243984" fill="#000000" stroke="none"/></g><g transform="translate(10,-30) scale(1,1)"><path d="M 1017.8373251423759 364.209517756016 L 1028 360 L 1017.8373251423758 355.790482243984 L 1017.8373251423759 364.209517756016" fill="none" stroke="#000000" stroke-miterlimit="10"/></g><g transform="translate(10,-30) scale(1,1)"><g><path fill="none" stroke="none"/><text fill="#000000" font-family="Arial" font-size="13px" font-style="normal" font-weight="normal" stroke="none" text-decoration="none" x="770.5" y="356.5">8 : findByUsername(username)</text></g></g><g transform="translate(10,-30) scale(1,1)"><rect fill="#ffffff" height="28" stroke="none" width="13" x="1028" y="360"/></g><g transform="translate(10,-30) scale(1,1)"><path d="M 1028 360 L 1041 360 L 1041 388 L 1028 388 L 1028 360 Z Z" fill="none" stroke="#000000" stroke-miterlimit="10"/></g><g transform="translate(10,-30) scale(1,1)"><path d="M 1041 361 L 1199 361" fill="none" stroke="#000000" stroke-miterlimit="10"/></g><g transform="translate(10,-30) scale(1,1)"><path d="M 1188.837325142376 365.209517756016 L 1199 361 L 1188.837325142376 356.790482243984" fill="#000000" stroke="none"/></g><g transform="translate(10,-30) scale(1,1)"><path d="M 1188.837325142376 365.209517756016 L 1199 361 L 1188.837325142376 356.790482243984 L 1188.837325142376 365.209517756016" fill="none" stroke="#000000" stroke-miterlimit="10"/></g><g transform="translate(10,-30) scale(1,1)"><g><path fill="none" stroke="none"/><text fill="#000000" font-family="Arial" font-size="13px" font-style="normal" font-weight="normal" stroke="none" text-decoration="none" x="1077.5" y="357.5">9 : nosql query</text></g></g><g transform="translate(10,-30) scale(1,1)"><rect fill="#ffffff" height="28" stroke="none" width="13" x="1199" y="361"/></g><g transform="translate(10,-30) scale(1,1)"><path d="M 1199 361 L 1212 361 L 1212 389 L 1199 389 L 1199 361 Z Z" fill="none" stroke="#000000" stroke-miterlimit="10"/></g><g transform="translate(10,-30) scale(1,1)"><path d="M 173 376 L 50 376" fill="none" stroke="#000000" stroke-dasharray="3" stroke-miterlimit="10"/></g><g transform="translate(10,-30) scale(1,1)"><path d="M 60.162674857624154 371.790482243984 L 50 376 L 60.162674857624154 380.209517756016" fill="none" stroke="#000000" stroke-miterlimit="10"/></g><g transform="translate(10,-30) scale(1,1)"><g><path fill="none" stroke="none"/><text fill="#000000" font-family="Arial" font-size="13px" font-style="normal" font-weight="normal" stroke="none" text-decoration="none" x="66.5" y="392.5">10 : show error</text></g></g><g transform="translate(10,-30) scale(1,1)"><path d="M 382 376 L 186 376" fill="none" stroke="#000000" stroke-dasharray="3" stroke-miterlimit="10"/></g><g transform="translate(10,-30) scale(1,1)"><path d="M 196.16267485762415 371.790482243984 L 186 376 L 196.16267485762415 380.209517756016" fill="none" stroke="#000000" stroke-miterlimit="10"/></g><g transform="translate(10,-30) scale(1,1)"><g><path fill="none" stroke="none"/><text fill="#000000" font-family="Arial" font-size="13px" font-style="normal" font-weight="normal" stroke="none" text-decoration="none" x="257.5" y="392.5">11 : User</text></g></g><g transform="translate(10,-30) scale(1,1)"><path d="M 682 379 L 395 379" fill="none" stroke="#000000" stroke-dasharray="3" stroke-miterlimit="10"/></g><g transform="translate(10,-30) scale(1,1)"><path d="M 405.16267485762415 374.790482243984 L 395 379 L 405.16267485762415 383.209517756016" fill="none" stroke="#000000" stroke-miterlimit="10"/></g><g transform="translate(10,-30) scale(1,1)"><g><path fill="none" stroke="none"/><text fill="#000000" font-family="Arial" font-size="13px" font-style="normal" font-weight="normal" stroke="none" text-decoration="none" x="510.5" y="395.5">12 : User</text></g></g><g transform="translate(10,-30) scale(1,1)"><path d="M 1028 379 L 695 379" fill="none" stroke="#000000" stroke-dasharray="3" stroke-miterlimit="10"/></g><g transform="translate(10,-30) scale(1,1)"><path d="M 705.1626748576241 374.790482243984 L 695 379 L 705.1626748576241 383.209517756016" fill="none" stroke="#000000" stroke-miterlimit="10"/></g><g transform="translate(10,-30) scale(1,1)"><g><path fill="none" stroke="none"/><text fill="#000000" font-family="Arial" font-size="13px" font-style="normal" font-weight="normal" stroke="none" text-decoration="none" x="833.5" y="395.5">13 : User</text></g></g><g transform="translate(10,-30) scale(1,1)"><path d="M 1199 379 L 1041 379" fill="none" stroke="#000000" stroke-dasharray="3" stroke-miterlimit="10"/></g><g transform="translate(10,-30) scale(1,1)"><path d="M 1051.162674857624 374.790482243984 L 1041 379 L 1051.162674857624 383.209517756016" fill="none" stroke="#000000" stroke-miterlimit="10"/></g><g transform="translate(10,-30) scale(1,1)"><g><path fill="none" stroke="none"/><text fill="#000000" font-family="Arial" font-size="13px" font-style="normal" font-weight="normal" stroke="none" text-decoration="none" x="1077.5" y="395.5">14 : document</text></g></g><g transform="translate(10,-30) scale(1,1)"><path d="M 173 411 L 50 411" fill="none" stroke="#000000" stroke-dasharray="3" stroke-miterlimit="10"/></g><g transform="translate(10,-30) scale(1,1)"><path d="M 60.162674857624154 406.790482243984 L 50 411 L 60.162674857624154 415.209517756016" fill="none" stroke="#000000" stroke-miterlimit="10"/></g><g transform="translate(10,-30) scale(1,1)"><g><path fill="none" stroke="none"/><text fill="#000000" font-family="Arial" font-size="13px" font-style="normal" font-weight="normal" stroke="none" text-decoration="none" x="56.5" y="427.5">15 : show bugs list</text></g></g><g transform="translate(10,-30) scale(1,1)"><path d="M 395 431 L 682 431" fill="none" stroke="#000000" stroke-miterlimit="10"/></g><g transform="translate(10,-30) scale(1,1)"><path d="M 671.8373251423759 435.209517756016 L 682 431 L 671.8373251423758 426.790482243984" fill="#000000" stroke="none"/></g><g transform="translate(10,-30) scale(1,1)"><path d="M 671.8373251423759 435.209517756016 L 682 431 L 671.8373251423758 426.790482243984 L 671.8373251423759 435.209517756016" fill="none" stroke="#000000" stroke-miterlimit="10"/></g><g transform="translate(10,-30) scale(1,1)"><g><path fill="none" stroke="none"/><text fill="#000000" font-family="Arial" font-size="13px" font-style="normal" font-weight="normal" stroke="none" text-decoration="none" x="433.5" y="427.5">16 : verifyPassword(user, password)</text></g></g><g transform="translate(10,-30) scale(1,1)"><rect fill="#ffffff" height="28" stroke="none" width="13" x="682" y="431"/></g><g transform="translate(10,-30) scale(1,1)"><path d="M 682 431 L 695 431 L 695 459 L 682 459 L 682 431 Z Z" fill="none" stroke="#000000" stroke-miterlimit="10"/></g><g transform="translate(10,-30) scale(1,1)"><path d="M 395 496 L 817 496" fill="none" stroke="#000000" stroke-miterlimit="10"/></g><g transform="translate(10,-30) scale(1,1)"><path d="M 806.8373251423759 500.209517756016 L 817 496 L 806.8373251423758 491.790482243984" fill="#000000" stroke="none"/></g><g transform="translate(10,-30) scale(1,1)"><path d="M 806.8373251423759 500.209517756016 L 817 496 L 806.8373251423758 491.790482243984 L 806.8373251423759 500.209517756016" fill="none" stroke="#000000" stroke-miterlimit="10"/></g><g transform="translate(10,-30) scale(1,1)"><g><path fill="none" stroke="none"/><text fill="#000000" font-family="Arial" font-size="13px" font-style="normal" font-weight="normal" stroke="none" text-decoration="none" x="488.5" y="491.5">17 : createAccessTokenPayload(user)</text></g></g><g transform="translate(10,-30) scale(1,1)"><rect fill="#ffffff" height="28" stroke="none" width="13" x="817" y="496"/></g><g transform="translate(10,-30) scale(1,1)"><path d="M 817 496 L 830 496 L 830 524 L 817 524 L 817 496 Z Z" fill="none" stroke="#000000" stroke-miterlimit="10"/></g><g transform="translate(10,-30) scale(1,1)"><path d="M 817 510 L 395 510" fill="none" stroke="#000000" stroke-dasharray="3" stroke-miterlimit="10"/></g><g transform="translate(10,-30) scale(1,1)"><path d="M 405.16267485762415 505.790482243984 L 395 510 L 405.16267485762415 514.209517756016" fill="none" stroke="#000000" stroke-miterlimit="10"/></g><g transform="translate(10,-30) scale(1,1)"><g><path fill="none" stroke="none"/><text fill="#000000" font-family="Arial" font-size="13px" font-style="normal" font-weight="normal" stroke="none" text-decoration="none" x="575.5" y="526.5">18 : String</text></g></g><g transform="translate(10,-30) scale(1,1)"><path d="M 382 512 L 186 512" fill="none" stroke="#000000" stroke-dasharray="3" stroke-miterlimit="10"/></g><g transform="translate(10,-30) scale(1,1)"><path d="M 196.16267485762415 507.790482243984 L 186 512 L 196.16267485762415 516.209517756016" fill="none" stroke="#000000" stroke-miterlimit="10"/></g><g transform="translate(10,-30) scale(1,1)"><g><path fill="none" stroke="none"/><text fill="#000000" font-family="Arial" font-size="13px" font-style="normal" font-weight="normal" stroke="none" text-decoration="none" x="200.864990234375" y="528.5">19 : set authorization header</text></g></g></g></svg>