<?xml version="1.0" encoding="UTF-8" standalone="no"?><svg xmlns="http://www.w3.org/2000/svg" xmlns:xlink="http://www.w3.org/1999/xlink" height="402" version="1.1" width="1177.95361328125"><defs/><g><g transform="translate(-78,-30) scale(1,1)"><rect fill="#C0C0C0" height="39" opacity="0.2" stroke="none" width="108.58447265625" x="95" y="47"/></g><g transform="translate(-78,-30) scale(1,1)"><rect fill="#ffffff" height="39" stroke="none" width="108.58447265625" x="88" y="40"/></g><g transform="translate(-78,-30) scale(1,1)"><path d="M 88 40 L 196.58447265625 40 L 196.58447265625 79 L 88 79 L 88 40 Z Z" fill="none" stroke="#000000" stroke-miterlimit="10"/></g><g transform="translate(-78,-30) scale(1,1)"><g><path fill="none" stroke="none"/><text fill="#000000" font-family="Arial" font-size="13px" font-style="normal" font-weight="bold" stroke="none" text-decoration="none" x="100.74365234375" y="59.5">Lifeline1: User</text></g></g><g transform="translate(-78,-30) scale(1,1)"><path d="M 143.5 80 L 143.5 414" fill="none" stroke="#000000" stroke-dasharray="3" stroke-miterlimit="10"/></g><g transform="translate(-78,-30) scale(1,1)"><rect fill="#C0C0C0" height="39" opacity="0.2" stroke="none" width="117.95361328125" x="1135" y="47"/></g><g transform="translate(-78,-30) scale(1,1)"><rect fill="#ffffff" height="39" stroke="none" width="117.95361328125" x="1128" y="40"/></g><g transform="translate(-78,-30) scale(1,1)"><path d="M 1128 40 L 1245.95361328125 40 L 1245.95361328125 79 L 1128 79 L 1128 40 Z Z" fill="none" stroke="#000000" stroke-miterlimit="10"/></g><g transform="translate(-78,-30) scale(1,1)"><g><path fill="none" stroke="none"/><text fill="#000000" font-family="Arial" font-size="13px" font-style="normal" font-weight="bold" stroke="none" text-decoration="none" x="1140.372314453125" y="59.5">Lifeline2: DBMS</text></g></g><g transform="translate(-78,-30) scale(1,1)"><path d="M 1187.5 80 L 1187.5 408" fill="none" stroke="#000000" stroke-dasharray="3" stroke-miterlimit="10"/></g><g transform="translate(-78,-30) scale(1,1)"><rect fill="#C0C0C0" height="39" opacity="0.2" stroke="none" width="177.27880859375" x="681" y="47"/></g><g transform="translate(-78,-30) scale(1,1)"><rect fill="#ffffff" height="39" stroke="none" width="177.27880859375" x="674" y="40"/></g><g transform="translate(-78,-30) scale(1,1)"><path d="M 674 40 L 851.27880859375 40 L 851.27880859375 79 L 674 79 L 674 40 Z Z" fill="none" stroke="#000000" stroke-miterlimit="10"/></g><g transform="translate(-78,-30) scale(1,1)"><g><path fill="none" stroke="none"/><text fill="#000000" font-family="Arial" font-size="13px" font-style="normal" font-weight="bold" stroke="none" text-decoration="none" x="688.232177734375" y="59.5">UserService: UserService</text></g></g><g transform="translate(-78,-30) scale(1,1)"><path d="M 763.5 80 L 763.5 422" fill="none" stroke="#000000" stroke-dasharray="3" stroke-miterlimit="10"/></g><g transform="translate(-78,-30) scale(1,1)"><rect fill="#C0C0C0" height="39" opacity="0.2" stroke="none" width="84.75537109375" x="935" y="47"/></g><g transform="translate(-78,-30) scale(1,1)"><rect fill="#ffffff" height="39" stroke="none" width="84.75537109375" x="928" y="40"/></g><g transform="translate(-78,-30) scale(1,1)"><path d="M 928 40 L 1012.75537109375 40 L 1012.75537109375 79 L 928 79 L 928 40 Z Z" fill="none" stroke="#000000" stroke-miterlimit="10"/></g><g transform="translate(-78,-30) scale(1,1)"><g><path fill="none" stroke="none"/><text fill="#000000" font-family="Arial" font-size="13px" font-style="normal" font-weight="bold" stroke="none" text-decoration="none" x="939.318603515625" y="59.5">User: User</text></g></g><g transform="translate(-78,-30) scale(1,1)"><path d="M 971.5 80 L 971.5 408" fill="none" stroke="#000000" stroke-dasharray="3" stroke-miterlimit="10"/></g><g transform="translate(-78,-30) scale(1,1)"><rect fill="#C0C0C0" height="39" opacity="0.2" stroke="none" width="141.1162109375" x="479" y="47"/></g><g transform="translate(-78,-30) scale(1,1)"><rect fill="#ffffff" height="39" stroke="none" width="141.1162109375" x="472" y="40"/></g><g transform="translate(-78,-30) scale(1,1)"><path d="M 472 40 L 613.1162109375 40 L 613.1162109375 79 L 472 79 L 472 40 Z Z" fill="none" stroke="#000000" stroke-miterlimit="10"/></g><g transform="translate(-78,-30) scale(1,1)"><g><path fill="none" stroke="none"/><text fill="#000000" font-family="Arial" font-size="13px" font-style="normal" font-weight="bold" stroke="none" text-decoration="none" x="485.8291015625" y="59.5">api_user: api_users</text></g></g><g transform="translate(-78,-30) scale(1,1)"><path d="M 543.5 80 L 543.5 416" fill="none" stroke="#000000" stroke-dasharray="3" stroke-miterlimit="10"/></g><g transform="translate(-78,-30) scale(1,1)"><rect fill="#C0C0C0" height="39" opacity="0.2" stroke="none" width="68.7021484375" x="304" y="47"/></g><g transform="translate(-78,-30) scale(1,1)"><rect fill="#ffffff" height="39" stroke="none" width="68.7021484375" x="297" y="40"/></g><g transform="translate(-78,-30) scale(1,1)"><path d="M 297 40 L 365.7021484375 40 L 365.7021484375 79 L 297 79 L 297 40 Z Z" fill="none" stroke="#000000" stroke-miterlimit="10"/></g><g transform="translate(-78,-30) scale(1,1)"><g><path fill="none" stroke="none"/><text fill="#000000" font-family="Arial" font-size="13px" font-style="normal" font-weight="bold" stroke="none" text-decoration="none" x="308.23291015625" y="59.5">Window</text></g></g><g transform="translate(-78,-30) scale(1,1)"><path d="M 332.5 80 L 332.5 414" fill="none" stroke="#000000" stroke-dasharray="3" stroke-miterlimit="10"/></g><g transform="translate(-78,-30) scale(1,1)"><path d="M 143 108 L 325 108" fill="none" stroke="#000000" stroke-miterlimit="10"/></g><g transform="translate(-78,-30) scale(1,1)"><path d="M 314.83732514237585 112.20951775601598 L 325 108 L 314.83732514237585 103.79048224398402" fill="#000000" stroke="none"/></g><g transform="translate(-78,-30) scale(1,1)"><path d="M 314.83732514237585 112.20951775601598 L 325 108 L 314.83732514237585 103.79048224398402 L 314.83732514237585 112.20951775601598" fill="none" stroke="#000000" stroke-miterlimit="10"/></g><g transform="translate(-78,-30) scale(1,1)"><g><path fill="none" stroke="none"/><text fill="#000000" font-family="Arial" font-size="13px" font-style="normal" font-weight="normal" stroke="none" text-decoration="none" x="210.029541015625" y="104.5">1 : open</text></g></g><g transform="translate(-78,-30) scale(1,1)"><rect fill="#ffffff" height="68" stroke="none" width="13" x="325" y="108"/></g><g transform="translate(-78,-30) scale(1,1)"><path d="M 325 108 L 338 108 L 338 176 L 325 176 L 325 108 Z Z" fill="none" stroke="#000000" stroke-miterlimit="10"/></g><g transform="translate(-78,-30) scale(1,1)"><path d="M 338 112 L 536 112" fill="none" stroke="#000000" stroke-miterlimit="10"/></g><g transform="translate(-78,-30) scale(1,1)"><path d="M 525.8373251423759 116.20951775601598 L 536 112 L 525.8373251423758 107.79048224398402" fill="#000000" stroke="none"/></g><g transform="translate(-78,-30) scale(1,1)"><path d="M 525.8373251423759 116.20951775601598 L 536 112 L 525.8373251423758 107.79048224398402 L 525.8373251423759 116.20951775601598" fill="none" stroke="#000000" stroke-miterlimit="10"/></g><g transform="translate(-78,-30) scale(1,1)"><g><path fill="none" stroke="none"/><text fill="#000000" font-family="Arial" font-size="13px" font-style="normal" font-weight="normal" stroke="none" text-decoration="none" x="414.12451171875" y="108.5">2 : get()</text></g></g><g transform="translate(-78,-30) scale(1,1)"><rect fill="#ffffff" height="28" stroke="none" width="13" x="536" y="112"/></g><g transform="translate(-78,-30) scale(1,1)"><path d="M 536 112 L 549 112 L 549 140 L 536 140 L 536 112 Z Z" fill="none" stroke="#000000" stroke-miterlimit="10"/></g><g transform="translate(-78,-30) scale(1,1)"><path d="M 971 112 L 1180 112" fill="none" stroke="#000000" stroke-miterlimit="10"/></g><g transform="translate(-78,-30) scale(1,1)"><path d="M 1169.837325142376 116.20951775601598 L 1180 112 L 1169.837325142376 107.79048224398402" fill="#000000" stroke="none"/></g><g transform="translate(-78,-30) scale(1,1)"><path d="M 1169.837325142376 116.20951775601598 L 1180 112 L 1169.837325142376 107.79048224398402 L 1169.837325142376 116.20951775601598" fill="none" stroke="#000000" stroke-miterlimit="10"/></g><g transform="translate(-78,-30) scale(1,1)"><g><path fill="none" stroke="none"/><text fill="#000000" font-family="Arial" font-size="13px" font-style="normal" font-weight="normal" stroke="none" text-decoration="none" x="1032.5" y="108.5">3 : nosql query</text></g></g><g transform="translate(-78,-30) scale(1,1)"><rect fill="#ffffff" height="28" stroke="none" width="13" x="1180" y="112"/></g><g transform="translate(-78,-30) scale(1,1)"><path d="M 1180 112 L 1193 112 L 1193 140 L 1180 140 L 1180 112 Z Z" fill="none" stroke="#000000" stroke-miterlimit="10"/></g><g transform="translate(-78,-30) scale(1,1)"><path d="M 549 115 L 756 115" fill="none" stroke="#000000" stroke-miterlimit="10"/></g><g transform="translate(-78,-30) scale(1,1)"><path d="M 745.8373251423759 119.20951775601598 L 756 115 L 745.8373251423758 110.79048224398402" fill="#000000" stroke="none"/></g><g transform="translate(-78,-30) scale(1,1)"><path d="M 745.8373251423759 119.20951775601598 L 756 115 L 745.8373251423758 110.79048224398402 L 745.8373251423759 119.20951775601598" fill="none" stroke="#000000" stroke-miterlimit="10"/></g><g transform="translate(-78,-30) scale(1,1)"><g><path fill="none" stroke="none"/><text fill="#000000" font-family="Arial" font-size="13px" font-style="normal" font-weight="normal" stroke="none" text-decoration="none" x="612.5" y="111.5">4 : getUsers()</text></g></g><g transform="translate(-78,-30) scale(1,1)"><rect fill="#ffffff" height="28" stroke="none" width="13" x="756" y="115"/></g><g transform="translate(-78,-30) scale(1,1)"><path d="M 756 115 L 769 115 L 769 143 L 756 143 L 756 115 Z Z" fill="none" stroke="#000000" stroke-miterlimit="10"/></g><g transform="translate(-78,-30) scale(1,1)"><path d="M 769 120 L 964 120" fill="none" stroke="#000000" stroke-miterlimit="10"/></g><g transform="translate(-78,-30) scale(1,1)"><path d="M 953.8373251423759 124.20951775601598 L 964 120 L 953.8373251423758 115.79048224398402" fill="#000000" stroke="none"/></g><g transform="translate(-78,-30) scale(1,1)"><path d="M 953.8373251423759 124.20951775601598 L 964 120 L 953.8373251423758 115.79048224398402 L 953.8373251423759 124.20951775601598" fill="none" stroke="#000000" stroke-miterlimit="10"/></g><g transform="translate(-78,-30) scale(1,1)"><g><path fill="none" stroke="none"/><text fill="#000000" font-family="Arial" font-size="13px" font-style="normal" font-weight="normal" stroke="none" text-decoration="none" x="808.5" y="116.5">5 : mongoose query</text></g></g><g transform="translate(-78,-30) scale(1,1)"><rect fill="#ffffff" height="28" stroke="none" width="13" x="964" y="120"/></g><g transform="translate(-78,-30) scale(1,1)"><path d="M 964 120 L 977 120 L 977 148 L 964 148 L 964 120 Z Z" fill="none" stroke="#000000" stroke-miterlimit="10"/></g><g transform="translate(-78,-30) scale(1,1)"><path d="M 536 131 L 338 131" fill="none" stroke="#000000" stroke-dasharray="3" stroke-miterlimit="10"/></g><g transform="translate(-78,-30) scale(1,1)"><path d="M 348.16267485762415 126.79048224398402 L 338 131 L 348.16267485762415 135.209517756016" fill="none" stroke="#000000" stroke-miterlimit="10"/></g><g transform="translate(-78,-30) scale(1,1)"><g><path fill="none" stroke="none"/><text fill="#000000" font-family="Arial" font-size="13px" font-style="normal" font-weight="normal" stroke="none" text-decoration="none" x="409.5" y="147.5">6 : User[]</text></g></g><g transform="translate(-78,-30) scale(1,1)"><path d="M 756 131 L 549 131" fill="none" stroke="#000000" stroke-dasharray="3" stroke-miterlimit="10"/></g><g transform="translate(-78,-30) scale(1,1)"><path d="M 559.1626748576241 126.79048224398402 L 549 131 L 559.1626748576241 135.209517756016" fill="none" stroke="#000000" stroke-miterlimit="10"/></g><g transform="translate(-78,-30) scale(1,1)"><g><path fill="none" stroke="none"/><text fill="#000000" font-family="Arial" font-size="13px" font-style="normal" font-weight="normal" stroke="none" text-decoration="none" x="624.5" y="147.5">7 : User[]</text></g></g><g transform="translate(-78,-30) scale(1,1)"><path d="M 1180 132 L 977 132" fill="none" stroke="#000000" stroke-dasharray="3" stroke-miterlimit="10"/></g><g transform="translate(-78,-30) scale(1,1)"><path d="M 987.1626748576241 127.79048224398402 L 977 132 L 987.1626748576241 136.209517756016" fill="none" stroke="#000000" stroke-miterlimit="10"/></g><g transform="translate(-78,-30) scale(1,1)"><g><path fill="none" stroke="none"/><text fill="#000000" font-family="Arial" font-size="13px" font-style="normal" font-weight="normal" stroke="none" text-decoration="none" x="1038.944091796875" y="148.5">8 : document</text></g></g><g transform="translate(-78,-30) scale(1,1)"><path d="M 964 140 L 769 140" fill="none" stroke="#000000" stroke-dasharray="3" stroke-miterlimit="10"/></g><g transform="translate(-78,-30) scale(1,1)"><path d="M 779.1626748576241 135.790482243984 L 769 140 L 779.1626748576241 144.209517756016" fill="none" stroke="#000000" stroke-miterlimit="10"/></g><g transform="translate(-78,-30) scale(1,1)"><g><path fill="none" stroke="none"/><text fill="#000000" font-family="Arial" font-size="13px" font-style="normal" font-weight="normal" stroke="none" text-decoration="none" x="838.154052734375" y="156.5">9 : User[]</text></g></g><g transform="translate(-78,-30) scale(1,1)"><path d="M 325 160 L 143 160" fill="none" stroke="#000000" stroke-dasharray="3" stroke-miterlimit="10"/></g><g transform="translate(-78,-30) scale(1,1)"><path d="M 153.16267485762415 155.790482243984 L 143 160 L 153.16267485762415 164.209517756016" fill="none" stroke="#000000" stroke-miterlimit="10"/></g><g transform="translate(-78,-30) scale(1,1)"><g><path fill="none" stroke="none"/><text fill="#000000" font-family="Arial" font-size="13px" font-style="normal" font-weight="normal" stroke="none" text-decoration="none" x="188.5" y="176.5">10 : show page</text></g></g><g transform="translate(-78,-30) scale(1,1)"><path d="M 143 202 L 325 202" fill="none" stroke="#000000" stroke-miterlimit="10"/></g><g transform="translate(-78,-30) scale(1,1)"><path d="M 314.83732514237585 206.209517756016 L 325 202 L 314.83732514237585 197.790482243984" fill="#000000" stroke="none"/></g><g transform="translate(-78,-30) scale(1,1)"><path d="M 314.83732514237585 206.209517756016 L 325 202 L 314.83732514237585 197.790482243984 L 314.83732514237585 206.209517756016" fill="none" stroke="#000000" stroke-miterlimit="10"/></g><g transform="translate(-78,-30) scale(1,1)"><g><path fill="none" stroke="none"/><text fill="#000000" font-family="Arial" font-size="13px" font-style="normal" font-weight="normal" stroke="none" text-decoration="none" x="148.5" y="198.5">11 : input new user username</text></g></g><g transform="translate(-78,-30) scale(1,1)"><rect fill="#ffffff" height="28" stroke="none" width="13" x="325" y="202"/></g><g transform="translate(-78,-30) scale(1,1)"><path d="M 325 202 L 338 202 L 338 230 L 325 230 L 325 202 Z Z" fill="none" stroke="#000000" stroke-miterlimit="10"/></g><g transform="translate(-78,-30) scale(1,1)"><path d="M 143 242 L 325 242" fill="none" stroke="#000000" stroke-miterlimit="10"/></g><g transform="translate(-78,-30) scale(1,1)"><path d="M 314.83732514237585 246.209517756016 L 325 242 L 314.83732514237585 237.790482243984" fill="#000000" stroke="none"/></g><g transform="translate(-78,-30) scale(1,1)"><path d="M 314.83732514237585 246.209517756016 L 325 242 L 314.83732514237585 237.790482243984 L 314.83732514237585 246.209517756016" fill="none" stroke="#000000" stroke-miterlimit="10"/></g><g transform="translate(-78,-30) scale(1,1)"><g><path fill="none" stroke="none"/><text fill="#000000" font-family="Arial" font-size="13px" font-style="normal" font-weight="normal" stroke="none" text-decoration="none" x="149.5" y="238.5">12 : input new user password</text></g></g><g transform="translate(-78,-30) scale(1,1)"><rect fill="#ffffff" height="28" stroke="none" width="13" x="325" y="242"/></g><g transform="translate(-78,-30) scale(1,1)"><path d="M 325 242 L 338 242 L 338 270 L 325 270 L 325 242 Z Z" fill="none" stroke="#000000" stroke-miterlimit="10"/></g><g transform="translate(-78,-30) scale(1,1)"><path d="M 143 280 L 325 280" fill="none" stroke="#000000" stroke-miterlimit="10"/></g><g transform="translate(-78,-30) scale(1,1)"><path d="M 314.83732514237585 284.209517756016 L 325 280 L 314.83732514237585 275.790482243984" fill="#000000" stroke="none"/></g><g transform="translate(-78,-30) scale(1,1)"><path d="M 314.83732514237585 284.209517756016 L 325 280 L 314.83732514237585 275.790482243984 L 314.83732514237585 284.209517756016" fill="none" stroke="#000000" stroke-miterlimit="10"/></g><g transform="translate(-78,-30) scale(1,1)"><g><path fill="none" stroke="none"/><text fill="#000000" font-family="Arial" font-size="13px" font-style="normal" font-weight="normal" stroke="none" text-decoration="none" x="158.5" y="276.5">13 : press add user button</text></g></g><g transform="translate(-78,-30) scale(1,1)"><rect fill="#ffffff" height="120" stroke="none" width="13" x="325" y="280"/></g><g transform="translate(-78,-30) scale(1,1)"><path d="M 325 280 L 338 280 L 338 400 L 325 400 L 325 280 Z Z" fill="none" stroke="#000000" stroke-miterlimit="10"/></g><g transform="translate(-78,-30) scale(1,1)"><path d="M 338 285 L 536 285" fill="none" stroke="#000000" stroke-miterlimit="10"/></g><g transform="translate(-78,-30) scale(1,1)"><path d="M 525.8373251423759 289.209517756016 L 536 285 L 525.8373251423758 280.790482243984" fill="#000000" stroke="none"/></g><g transform="translate(-78,-30) scale(1,1)"><path d="M 525.8373251423759 289.209517756016 L 536 285 L 525.8373251423758 280.790482243984 L 525.8373251423759 289.209517756016" fill="none" stroke="#000000" stroke-miterlimit="10"/></g><g transform="translate(-78,-30) scale(1,1)"><g><path fill="none" stroke="none"/><text fill="#000000" font-family="Arial" font-size="13px" font-style="normal" font-weight="normal" stroke="none" text-decoration="none" x="395.2236328125" y="281.5">14 : post(data)</text></g></g><g transform="translate(-78,-30) scale(1,1)"><rect fill="#ffffff" height="28" stroke="none" width="13" x="536" y="285"/></g><g transform="translate(-78,-30) scale(1,1)"><path d="M 536 285 L 549 285 L 549 313 L 536 313 L 536 285 Z Z" fill="none" stroke="#000000" stroke-miterlimit="10"/></g><g transform="translate(-78,-30) scale(1,1)"><path d="M 549 290 L 756 290" fill="none" stroke="#000000" stroke-miterlimit="10"/></g><g transform="translate(-78,-30) scale(1,1)"><path d="M 745.8373251423759 294.209517756016 L 756 290 L 745.8373251423758 285.790482243984" fill="#000000" stroke="none"/></g><g transform="translate(-78,-30) scale(1,1)"><path d="M 745.8373251423759 294.209517756016 L 756 290 L 745.8373251423758 285.790482243984 L 745.8373251423759 294.209517756016" fill="none" stroke="#000000" stroke-miterlimit="10"/></g><g transform="translate(-78,-30) scale(1,1)"><g><path fill="none" stroke="none"/><text fill="#000000" font-family="Arial" font-size="13px" font-style="normal" font-weight="normal" stroke="none" text-decoration="none" x="590.5" y="286.5">15 : createUser(data)</text></g></g><g transform="translate(-78,-30) scale(1,1)"><rect fill="#ffffff" height="28" stroke="none" width="13" x="756" y="290"/></g><g transform="translate(-78,-30) scale(1,1)"><path d="M 756 290 L 769 290 L 769 318 L 756 318 L 756 290 Z Z" fill="none" stroke="#000000" stroke-miterlimit="10"/></g><g transform="translate(-78,-30) scale(1,1)"><path d="M 769 291 L 964 291" fill="none" stroke="#000000" stroke-miterlimit="10"/></g><g transform="translate(-78,-30) scale(1,1)"><path d="M 953.8373251423759 295.209517756016 L 964 291 L 953.8373251423758 286.790482243984" fill="#000000" stroke="none"/></g><g transform="translate(-78,-30) scale(1,1)"><path d="M 953.8373251423759 295.209517756016 L 964 291 L 953.8373251423758 286.790482243984 L 953.8373251423759 295.209517756016" fill="none" stroke="#000000" stroke-miterlimit="10"/></g><g transform="translate(-78,-30) scale(1,1)"><g><path fill="none" stroke="none"/><text fill="#000000" font-family="Arial" font-size="13px" font-style="normal" font-weight="normal" stroke="none" text-decoration="none" x="804.5" y="287.5">16 : mongoose query</text></g></g><g transform="translate(-78,-30) scale(1,1)"><rect fill="#ffffff" height="28" stroke="none" width="13" x="964" y="291"/></g><g transform="translate(-78,-30) scale(1,1)"><path d="M 964 291 L 977 291 L 977 319 L 964 319 L 964 291 Z Z" fill="none" stroke="#000000" stroke-miterlimit="10"/></g><g transform="translate(-78,-30) scale(1,1)"><path d="M 977 296 L 1180 296" fill="none" stroke="#000000" stroke-miterlimit="10"/></g><g transform="translate(-78,-30) scale(1,1)"><path d="M 1169.837325142376 300.209517756016 L 1180 296 L 1169.837325142376 291.790482243984" fill="#000000" stroke="none"/></g><g transform="translate(-78,-30) scale(1,1)"><path d="M 1169.837325142376 300.209517756016 L 1180 296 L 1169.837325142376 291.790482243984 L 1169.837325142376 300.209517756016" fill="none" stroke="#000000" stroke-miterlimit="10"/></g><g transform="translate(-78,-30) scale(1,1)"><g><path fill="none" stroke="none"/><text fill="#000000" font-family="Arial" font-size="13px" font-style="normal" font-weight="normal" stroke="none" text-decoration="none" x="1031.5" y="292.5">17 : nosql query</text></g></g><g transform="translate(-78,-30) scale(1,1)"><rect fill="#ffffff" height="28" stroke="none" width="13" x="1180" y="296"/></g><g transform="translate(-78,-30) scale(1,1)"><path d="M 1180 296 L 1193 296 L 1193 324 L 1180 324 L 1180 296 Z Z" fill="none" stroke="#000000" stroke-miterlimit="10"/></g><g transform="translate(-78,-30) scale(1,1)"><path d="M 756 304 L 549 304" fill="none" stroke="#000000" stroke-dasharray="3" stroke-miterlimit="10"/></g><g transform="translate(-78,-30) scale(1,1)"><path d="M 559.1626748576241 299.790482243984 L 549 304 L 559.1626748576241 308.209517756016" fill="none" stroke="#000000" stroke-miterlimit="10"/></g><g transform="translate(-78,-30) scale(1,1)"><g><path fill="none" stroke="none"/><text fill="#000000" font-family="Arial" font-size="13px" font-style="normal" font-weight="normal" stroke="none" text-decoration="none" x="624.5" y="320.5">18 : User</text></g></g><g transform="translate(-78,-30) scale(1,1)"><path d="M 964 304 L 769 304" fill="none" stroke="#000000" stroke-dasharray="3" stroke-miterlimit="10"/></g><g transform="translate(-78,-30) scale(1,1)"><path d="M 779.1626748576241 299.790482243984 L 769 304 L 779.1626748576241 308.209517756016" fill="none" stroke="#000000" stroke-miterlimit="10"/></g><g transform="translate(-78,-30) scale(1,1)"><g><path fill="none" stroke="none"/><text fill="#000000" font-family="Arial" font-size="13px" font-style="normal" font-weight="normal" stroke="none" text-decoration="none" x="838.5" y="320.5">19 : User</text></g></g><g transform="translate(-78,-30) scale(1,1)"><path d="M 1180 305 L 977 305" fill="none" stroke="#000000" stroke-dasharray="3" stroke-miterlimit="10"/></g><g transform="translate(-78,-30) scale(1,1)"><path d="M 987.1626748576241 300.790482243984 L 977 305 L 987.1626748576241 309.209517756016" fill="none" stroke="#000000" stroke-miterlimit="10"/></g><g transform="translate(-78,-30) scale(1,1)"><g><path fill="none" stroke="none"/><text fill="#000000" font-family="Arial" font-size="13px" font-style="normal" font-weight="normal" stroke="none" text-decoration="none" x="1035.5" y="321.5">20 : document</text></g></g><g transform="translate(-78,-30) scale(1,1)"><path d="M 338 342 L 536 342" fill="none" stroke="#000000" stroke-miterlimit="10"/></g><g transform="translate(-78,-30) scale(1,1)"><path d="M 525.8373251423759 346.209517756016 L 536 342 L 525.8373251423758 337.790482243984" fill="#000000" stroke="none"/></g><g transform="translate(-78,-30) scale(1,1)"><path d="M 525.8373251423759 346.209517756016 L 536 342 L 525.8373251423758 337.790482243984 L 525.8373251423759 346.209517756016" fill="none" stroke="#000000" stroke-miterlimit="10"/></g><g transform="translate(-78,-30) scale(1,1)"><g><path fill="none" stroke="none"/><text fill="#000000" font-family="Arial" font-size="13px" font-style="normal" font-weight="normal" stroke="none" text-decoration="none" x="411.12451171875" y="338.5">21 : get()</text></g></g><g transform="translate(-78,-30) scale(1,1)"><rect fill="#ffffff" height="28" stroke="none" width="13" x="536" y="342"/></g><g transform="translate(-78,-30) scale(1,1)"><path d="M 536 342 L 549 342 L 549 370 L 536 370 L 536 342 Z Z" fill="none" stroke="#000000" stroke-miterlimit="10"/></g><g transform="translate(-78,-30) scale(1,1)"><path d="M 549 344 L 756 344" fill="none" stroke="#000000" stroke-miterlimit="10"/></g><g transform="translate(-78,-30) scale(1,1)"><path d="M 745.8373251423759 348.209517756016 L 756 344 L 745.8373251423758 339.790482243984" fill="#000000" stroke="none"/></g><g transform="translate(-78,-30) scale(1,1)"><path d="M 745.8373251423759 348.209517756016 L 756 344 L 745.8373251423758 339.790482243984 L 745.8373251423759 348.209517756016" fill="none" stroke="#000000" stroke-miterlimit="10"/></g><g transform="translate(-78,-30) scale(1,1)"><g><path fill="none" stroke="none"/><text fill="#000000" font-family="Arial" font-size="13px" font-style="normal" font-weight="normal" stroke="none" text-decoration="none" x="609.5" y="340.5">22 : getUsers()</text></g></g><g transform="translate(-78,-30) scale(1,1)"><rect fill="#ffffff" height="40" stroke="none" width="13" x="756" y="344"/></g><g transform="translate(-78,-30) scale(1,1)"><path d="M 756 344 L 769 344 L 769 384 L 756 384 L 756 344 Z Z" fill="none" stroke="#000000" stroke-miterlimit="10"/></g><g transform="translate(-78,-30) scale(1,1)"><path d="M 769 344 L 964 344" fill="none" stroke="#000000" stroke-miterlimit="10"/></g><g transform="translate(-78,-30) scale(1,1)"><path d="M 953.8373251423759 348.209517756016 L 964 344 L 953.8373251423758 339.790482243984" fill="#000000" stroke="none"/></g><g transform="translate(-78,-30) scale(1,1)"><path d="M 953.8373251423759 348.209517756016 L 964 344 L 953.8373251423758 339.790482243984 L 953.8373251423759 348.209517756016" fill="none" stroke="#000000" stroke-miterlimit="10"/></g><g transform="translate(-78,-30) scale(1,1)"><g><path fill="none" stroke="none"/><text fill="#000000" font-family="Arial" font-size="13px" font-style="normal" font-weight="normal" stroke="none" text-decoration="none" x="804.5" y="340.5">23 : mongoose query</text></g></g><g transform="translate(-78,-30) scale(1,1)"><rect fill="#ffffff" height="28" stroke="none" width="13" x="964" y="344"/></g><g transform="translate(-78,-30) scale(1,1)"><path d="M 964 344 L 977 344 L 977 372 L 964 372 L 964 344 Z Z" fill="none" stroke="#000000" stroke-miterlimit="10"/></g><g transform="translate(-78,-30) scale(1,1)"><path d="M 977 344 L 1180 344" fill="none" stroke="#000000" stroke-miterlimit="10"/></g><g transform="translate(-78,-30) scale(1,1)"><path d="M 1169.837325142376 348.209517756016 L 1180 344 L 1169.837325142376 339.790482243984" fill="#000000" stroke="none"/></g><g transform="translate(-78,-30) scale(1,1)"><path d="M 1169.837325142376 348.209517756016 L 1180 344 L 1169.837325142376 339.790482243984 L 1169.837325142376 348.209517756016" fill="none" stroke="#000000" stroke-miterlimit="10"/></g><g transform="translate(-78,-30) scale(1,1)"><g><path fill="none" stroke="none"/><text fill="#000000" font-family="Arial" font-size="13px" font-style="normal" font-weight="normal" stroke="none" text-decoration="none" x="1031.5" y="340.5">24 : nosql query</text></g></g><g transform="translate(-78,-30) scale(1,1)"><rect fill="#ffffff" height="28" stroke="none" width="13" x="1180" y="344"/></g><g transform="translate(-78,-30) scale(1,1)"><path d="M 1180 344 L 1193 344 L 1193 372 L 1180 372 L 1180 344 Z Z" fill="none" stroke="#000000" stroke-miterlimit="10"/></g><g transform="translate(-78,-30) scale(1,1)"><path d="M 756 358 L 549 358" fill="none" stroke="#000000" stroke-dasharray="3" stroke-miterlimit="10"/></g><g transform="translate(-78,-30) scale(1,1)"><path d="M 559.1626748576241 353.790482243984 L 549 358 L 559.1626748576241 362.209517756016" fill="none" stroke="#000000" stroke-miterlimit="10"/></g><g transform="translate(-78,-30) scale(1,1)"><g><path fill="none" stroke="none"/><text fill="#000000" font-family="Arial" font-size="13px" font-style="normal" font-weight="normal" stroke="none" text-decoration="none" x="621.5" y="374.5">25 : User[]</text></g></g><g transform="translate(-78,-30) scale(1,1)"><path d="M 536 360 L 338 360" fill="none" stroke="#000000" stroke-dasharray="3" stroke-miterlimit="10"/></g><g transform="translate(-78,-30) scale(1,1)"><path d="M 348.16267485762415 355.790482243984 L 338 360 L 348.16267485762415 364.209517756016" fill="none" stroke="#000000" stroke-miterlimit="10"/></g><g transform="translate(-78,-30) scale(1,1)"><g><path fill="none" stroke="none"/><text fill="#000000" font-family="Arial" font-size="13px" font-style="normal" font-weight="normal" stroke="none" text-decoration="none" x="406.5" y="376.5">26 : User[]</text></g></g><g transform="translate(-78,-30) scale(1,1)"><path d="M 964 360 L 769 360" fill="none" stroke="#000000" stroke-dasharray="3" stroke-miterlimit="10"/></g><g transform="translate(-78,-30) scale(1,1)"><path d="M 779.1626748576241 355.790482243984 L 769 360 L 779.1626748576241 364.209517756016" fill="none" stroke="#000000" stroke-miterlimit="10"/></g><g transform="translate(-78,-30) scale(1,1)"><g><path fill="none" stroke="none"/><text fill="#000000" font-family="Arial" font-size="13px" font-style="normal" font-weight="normal" stroke="none" text-decoration="none" x="835.5" y="376.5">27 : User[]</text></g></g><g transform="translate(-78,-30) scale(1,1)"><path d="M 1180 360 L 977 360" fill="none" stroke="#000000" stroke-dasharray="3" stroke-miterlimit="10"/></g><g transform="translate(-78,-30) scale(1,1)"><path d="M 987.1626748576241 355.790482243984 L 977 360 L 987.1626748576241 364.209517756016" fill="none" stroke="#000000" stroke-miterlimit="10"/></g><g transform="translate(-78,-30) scale(1,1)"><g><path fill="none" stroke="none"/><text fill="#000000" font-family="Arial" font-size="13px" font-style="normal" font-weight="normal" stroke="none" text-decoration="none" x="1035.5" y="376.5">28 : document</text></g></g><g transform="translate(-78,-30) scale(1,1)"><path d="M 325 381 L 143 381" fill="none" stroke="#000000" stroke-dasharray="3" stroke-miterlimit="10"/></g><g transform="translate(-78,-30) scale(1,1)"><path d="M 153.16267485762415 376.790482243984 L 143 381 L 153.16267485762415 385.209517756016" fill="none" stroke="#000000" stroke-miterlimit="10"/></g><g transform="translate(-78,-30) scale(1,1)"><g><path fill="none" stroke="none"/><text fill="#000000" font-family="Arial" font-size="13px" font-style="normal" font-weight="normal" stroke="none" text-decoration="none" x="172.5" y="397.5">29 : refresh users list</text></g></g></g></svg>