<?xml version="1.0" encoding="UTF-8" standalone="no"?><svg xmlns="http://www.w3.org/2000/svg" xmlns:xlink="http://www.w3.org/1999/xlink" height="507" version="1.1" width="1849.34619140625"><defs/><g><g transform="translate(-52,-46) scale(1,1)"><rect fill="#C0C0C0" height="102" opacity="0.2" stroke="none" width="120" x="1605" y="434"/></g><g transform="translate(-52,-46) scale(1,1)"><rect fill="#ffffff" height="102" stroke="none" width="120" x="1598" y="427"/></g><g transform="translate(-52,-46) scale(1,1)"><path d="M 1598 427 L 1718 427 L 1718 529 L 1598 529 L 1598 427 Z Z" fill="none" stroke="#000000" stroke-miterlimit="10"/></g><g transform="translate(-52,-46) scale(1,1)"><path d="M 1598 452 L 1718 452" fill="none" stroke="#000000" stroke-miterlimit="10"/></g><g transform="translate(-52,-46) scale(1,1)"><path d="M 1598 520 L 1718 520" fill="none" stroke="#000000" stroke-miterlimit="10"/></g><g transform="translate(-52,-46) scale(1,1)"><g><path fill="none" stroke="none"/><text fill="#000000" font-family="Arial" font-size="13px" font-style="normal" font-weight="bold" stroke="none" text-decoration="none" x="1644.2763671875" y="446.5">User</text></g></g><g transform="translate(-52,-46) scale(1,1)"><g><path fill="none" stroke="none"/><text fill="#000000" font-family="Arial" font-size="13px" font-style="normal" font-weight="normal" stroke="none" text-decoration="none" x="1603" y="469.5">+id: ObjectId</text></g></g><g transform="translate(-52,-46) scale(1,1)"><g><path fill="none" stroke="none"/><text fill="#000000" font-family="Arial" font-size="13px" font-style="normal" font-weight="normal" stroke="none" text-decoration="none" x="1603" y="484.5">+username: String</text></g></g><g transform="translate(-52,-46) scale(1,1)"><g><path fill="none" stroke="none"/><text fill="#000000" font-family="Arial" font-size="13px" font-style="normal" font-weight="normal" stroke="none" text-decoration="none" x="1603" y="499.5">+password: String</text></g></g><g transform="translate(-52,-46) scale(1,1)"><g><path fill="none" stroke="none"/><text fill="#000000" font-family="Arial" font-size="13px" font-style="normal" font-weight="normal" stroke="none" text-decoration="none" x="1603" y="514.5">+role: UserRoles</text></g></g><g transform="translate(-52,-46) scale(1,1)"><rect fill="#C0C0C0" height="90" opacity="0.2" stroke="none" width="120" x="1773" y="434"/></g><g transform="translate(-52,-46) scale(1,1)"><rect fill="#ffffff" height="90" stroke="none" width="120" x="1766" y="427"/></g><g transform="translate(-52,-46) scale(1,1)"><path d="M 1766 427 L 1886 427 L 1886 517 L 1766 517 L 1766 427 Z Z" fill="none" stroke="#000000" stroke-miterlimit="10"/></g><g transform="translate(-52,-46) scale(1,1)"><path d="M 1766 465 L 1886 465" fill="none" stroke="#000000" stroke-miterlimit="10"/></g><g transform="translate(-52,-46) scale(1,1)"><g><path fill="none" stroke="none"/><text fill="#000000" font-family="Arial" font-size="13px" font-style="normal" font-weight="normal" stroke="none" text-decoration="none" x="1782.635986328125" y="444.5">«enumeration»</text></g></g><g transform="translate(-52,-46) scale(1,1)"><g><path fill="none" stroke="none"/><text fill="#000000" font-family="Arial" font-size="13px" font-style="normal" font-weight="bold" stroke="none" text-decoration="none" x="1795.658203125" y="459.5">UserRoles</text></g></g><g transform="translate(-52,-46) scale(1,1)"><g><path fill="none" stroke="none"/><text fill="#000000" font-family="Arial" font-size="13px" font-style="normal" font-weight="normal" stroke="none" text-decoration="none" x="1771" y="482.5">TESTER</text></g></g><g transform="translate(-52,-46) scale(1,1)"><g><path fill="none" stroke="none"/><text fill="#000000" font-family="Arial" font-size="13px" font-style="normal" font-weight="normal" stroke="none" text-decoration="none" x="1771" y="497.5">PROGRAMMER</text></g></g><g transform="translate(-52,-46) scale(1,1)"><g><path fill="none" stroke="none"/><text fill="#000000" font-family="Arial" font-size="13px" font-style="normal" font-weight="normal" stroke="none" text-decoration="none" x="1771" y="512.5">ADMIN</text></g></g><g transform="translate(-52,-46) scale(1,1)"><rect fill="#C0C0C0" height="175" opacity="0.2" stroke="none" width="132.21435546875" x="1597" y="98"/></g><g transform="translate(-52,-46) scale(1,1)"><rect fill="#ffffff" height="175" stroke="none" width="132.21435546875" x="1590" y="91"/></g><g transform="translate(-52,-46) scale(1,1)"><path d="M 1590 91 L 1722.21435546875 91 L 1722.21435546875 266 L 1590 266 L 1590 91 Z Z" fill="none" stroke="#000000" stroke-miterlimit="10"/></g><g transform="translate(-52,-46) scale(1,1)"><path d="M 1590 116 L 1722.21435546875 116" fill="none" stroke="#000000" stroke-miterlimit="10"/></g><g transform="translate(-52,-46) scale(1,1)"><path d="M 1590 244 L 1722.21435546875 244" fill="none" stroke="#000000" stroke-miterlimit="10"/></g><g transform="translate(-52,-46) scale(1,1)"><g><path fill="none" stroke="none"/><text fill="#000000" font-family="Arial" font-size="13px" font-style="normal" font-weight="bold" stroke="none" text-decoration="none" x="1644.541748046875" y="110.5">Bug</text></g></g><g transform="translate(-52,-46) scale(1,1)"><g><path fill="none" stroke="none"/><text fill="#000000" font-family="Arial" font-size="13px" font-style="normal" font-weight="normal" stroke="none" text-decoration="none" x="1595" y="133.5">+id: ObjectId</text></g></g><g transform="translate(-52,-46) scale(1,1)"><g><path fill="none" stroke="none"/><text fill="#000000" font-family="Arial" font-size="13px" font-style="normal" font-weight="normal" stroke="none" text-decoration="none" x="1595" y="148.5">+createdBy: User</text></g></g><g transform="translate(-52,-46) scale(1,1)"><g><path fill="none" stroke="none"/><text fill="#000000" font-family="Arial" font-size="13px" font-style="normal" font-weight="normal" stroke="none" text-decoration="none" x="1595" y="163.5">+createdAt: Date</text></g></g><g transform="translate(-52,-46) scale(1,1)"><g><path fill="none" stroke="none"/><text fill="#000000" font-family="Arial" font-size="13px" font-style="normal" font-weight="normal" stroke="none" text-decoration="none" x="1595" y="178.5">+solvedBy: User</text></g></g><g transform="translate(-52,-46) scale(1,1)"><g><path fill="none" stroke="none"/><text fill="#000000" font-family="Arial" font-size="13px" font-style="normal" font-weight="normal" stroke="none" text-decoration="none" x="1595" y="193.5">+solvedAt: Date</text></g></g><g transform="translate(-52,-46) scale(1,1)"><g><path fill="none" stroke="none"/><text fill="#000000" font-family="Arial" font-size="13px" font-style="normal" font-weight="normal" stroke="none" text-decoration="none" x="1595" y="208.5">+title: String</text></g></g><g transform="translate(-52,-46) scale(1,1)"><g><path fill="none" stroke="none"/><text fill="#000000" font-family="Arial" font-size="13px" font-style="normal" font-weight="normal" stroke="none" text-decoration="none" x="1595" y="223.5">+description: String</text></g></g><g transform="translate(-52,-46) scale(1,1)"><g><path fill="none" stroke="none"/><text fill="#000000" font-family="Arial" font-size="13px" font-style="normal" font-weight="normal" stroke="none" text-decoration="none" x="1595" y="238.5">+status: BugStatuses</text></g></g><g transform="translate(-52,-46) scale(1,1)"><g><path fill="none" stroke="none"/><text fill="#000000" font-family="Arial" font-size="13px" font-style="normal" font-weight="normal" stroke="none" text-decoration="none" x="1595" y="261.5">+forUserId(ObjectId)</text></g></g><g transform="translate(-52,-46) scale(1,1)"><path d="M 1658 426 L 1657 267" fill="none" stroke="#000000" stroke-miterlimit="10"/></g><g transform="translate(-52,-46) scale(1,1)"><path d="M 1661.2733494339075 277.1359994384236 L 1657 267 L 1652.8544804260832 277.188948300108" fill="none" stroke="#000000" stroke-miterlimit="10"/></g><g transform="translate(-52,-46) scale(1,1)"><g><path fill="none" stroke="none"/><text fill="#000000" font-family="Arial" font-size="13px" font-style="normal" font-weight="normal" stroke="none" text-decoration="none" x="1611.5" y="351.5">+manages</text></g></g><g transform="translate(-52,-46) scale(1,1)"><g><path fill="none" stroke="none"/><text fill="#000000" font-family="Arial" font-size="13px" font-style="normal" font-weight="normal" stroke="none" text-decoration="none" x="1666.5" y="410.5">1</text></g></g><g transform="translate(-52,-46) scale(1,1)"><g><path fill="none" stroke="none"/><text fill="#000000" font-family="Arial" font-size="13px" font-style="normal" font-weight="normal" stroke="none" text-decoration="none" x="1666.220458984375" y="294.5">*</text></g></g><g transform="translate(-52,-46) scale(1,1)"><path d="M 1719 476 L 1765 474" fill="none" stroke="#000000" stroke-miterlimit="10"/></g><g transform="translate(-52,-46) scale(1,1)"><path d="M 1755.0297668649937 478.6469830248906 L 1765 474 L 1754.6640673312672 470.23589374918504" fill="none" stroke="#000000" stroke-miterlimit="10"/></g><g transform="translate(-52,-46) scale(1,1)"><g><path fill="none" stroke="none"/><text fill="#000000" font-family="Arial" font-size="13px" font-style="normal" font-weight="normal" stroke="none" text-decoration="none" x="1726.5" y="466.5">+has</text></g></g><g transform="translate(-52,-46) scale(1,1)"><rect fill="#C0C0C0" height="75" opacity="0.2" stroke="none" width="125.34619140625" x="1773" y="138"/></g><g transform="translate(-52,-46) scale(1,1)"><rect fill="#ffffff" height="75" stroke="none" width="125.34619140625" x="1766" y="131"/></g><g transform="translate(-52,-46) scale(1,1)"><path d="M 1766 131 L 1891.34619140625 131 L 1891.34619140625 206 L 1766 206 L 1766 131 Z Z" fill="none" stroke="#000000" stroke-miterlimit="10"/></g><g transform="translate(-52,-46) scale(1,1)"><path d="M 1766 169 L 1891.34619140625 169" fill="none" stroke="#000000" stroke-miterlimit="10"/></g><g transform="translate(-52,-46) scale(1,1)"><g><path fill="none" stroke="none"/><text fill="#000000" font-family="Arial" font-size="13px" font-style="normal" font-weight="normal" stroke="none" text-decoration="none" x="1785.30908203125" y="148.5">«enumeration»</text></g></g><g transform="translate(-52,-46) scale(1,1)"><g><path fill="none" stroke="none"/><text fill="#000000" font-family="Arial" font-size="13px" font-style="normal" font-weight="bold" stroke="none" text-decoration="none" x="1791.8154296875" y="163.5">BugStatuses</text></g></g><g transform="translate(-52,-46) scale(1,1)"><g><path fill="none" stroke="none"/><text fill="#000000" font-family="Arial" font-size="13px" font-style="normal" font-weight="normal" stroke="none" text-decoration="none" x="1771" y="186.5">OPEN</text></g></g><g transform="translate(-52,-46) scale(1,1)"><g><path fill="none" stroke="none"/><text fill="#000000" font-family="Arial" font-size="13px" font-style="normal" font-weight="normal" stroke="none" text-decoration="none" x="1771" y="201.5">SOLVED</text></g></g><g transform="translate(-52,-46) scale(1,1)"><path d="M 1723 174 L 1765 172" fill="none" stroke="#000000" stroke-miterlimit="10"/></g><g transform="translate(-52,-46) scale(1,1)"><path d="M 1755.049054231698 176.68814230973317 L 1765 172 L 1754.6486015496341 168.27863598639388" fill="none" stroke="#000000" stroke-miterlimit="10"/></g><g transform="translate(-52,-46) scale(1,1)"><g><path fill="none" stroke="none"/><text fill="#000000" font-family="Arial" font-size="13px" font-style="normal" font-weight="normal" stroke="none" text-decoration="none" x="1728.5" y="164.5">+has</text></g></g><g transform="translate(-52,-46) scale(1,1)"><rect fill="#C0C0C0" height="162" opacity="0.2" stroke="none" width="400.2822265625" x="943" y="255"/></g><g transform="translate(-52,-46) scale(1,1)"><rect fill="#ffffff" height="162" stroke="none" width="400.2822265625" x="936" y="248"/></g><g transform="translate(-52,-46) scale(1,1)"><path d="M 936 248 L 1336.2822265625 248 L 1336.2822265625 410 L 936 410 L 936 248 Z Z" fill="none" stroke="#000000" stroke-miterlimit="10"/></g><g transform="translate(-52,-46) scale(1,1)"><path d="M 936 273 L 1336.2822265625 273" fill="none" stroke="#000000" stroke-miterlimit="10"/></g><g transform="translate(-52,-46) scale(1,1)"><path d="M 936 283 L 1336.2822265625 283" fill="none" stroke="#000000" stroke-miterlimit="10"/></g><g transform="translate(-52,-46) scale(1,1)"><g><path fill="none" stroke="none"/><text fill="#000000" font-family="Arial" font-size="13px" font-style="normal" font-weight="bold" stroke="none" text-decoration="none" x="1102.901611328125" y="267.5">BugService</text></g></g><g transform="translate(-52,-46) scale(1,1)"><g><path fill="none" stroke="none"/><text fill="#000000" font-family="Arial" font-size="13px" font-style="normal" font-weight="normal" stroke="none" text-decoration="none" x="941" y="300.5">+createBug(data): Bug</text></g></g><g transform="translate(-52,-46) scale(1,1)"><g><path fill="none" stroke="none"/><text fill="#000000" font-family="Arial" font-size="13px" font-style="normal" font-weight="normal" stroke="none" text-decoration="none" x="941" y="315.5">+getBugs(user: User, status: BugStatuses): List&lt;Bug&gt;</text></g></g><g transform="translate(-52,-46) scale(1,1)"><g><path fill="none" stroke="none"/><text fill="#000000" font-family="Arial" font-size="13px" font-style="normal" font-weight="normal" stroke="none" text-decoration="none" x="941" y="330.5">+getBugById(user: User, bugId: ObjectId): Bug</text></g></g><g transform="translate(-52,-46) scale(1,1)"><g><path fill="none" stroke="none"/><text fill="#000000" font-family="Arial" font-size="13px" font-style="normal" font-weight="normal" stroke="none" text-decoration="none" x="941" y="345.5">+updateBug(bug: Bug, data)</text></g></g><g transform="translate(-52,-46) scale(1,1)"><g><path fill="none" stroke="none"/><text fill="#000000" font-family="Arial" font-size="13px" font-style="normal" font-weight="normal" stroke="none" text-decoration="none" x="941" y="360.5">+solveBug(user: User, bug: Bug, data)</text></g></g><g transform="translate(-52,-46) scale(1,1)"><g><path fill="none" stroke="none"/><text fill="#000000" font-family="Arial" font-size="13px" font-style="normal" font-weight="normal" stroke="none" text-decoration="none" x="941" y="375.5">+deleteBug(bug: Bug)</text></g></g><g transform="translate(-52,-46) scale(1,1)"><path d="M 1337 271 L 1589 197" fill="none" stroke="#000000" stroke-miterlimit="10"/></g><g transform="translate(-52,-46) scale(1,1)"><path d="M 1580.4350974969 203.90235069468292 L 1589 197 L 1578.0630003775184 195.82439834219426" fill="none" stroke="#000000" stroke-miterlimit="10"/></g><g transform="translate(-52,-46) scale(1,1)"><g><path fill="none" stroke="none"/><text fill="#000000" font-family="Arial" font-size="13px" font-style="normal" font-weight="normal" stroke="none" text-decoration="none" x="1427.5" y="225.5">+manages</text></g></g><g transform="translate(-52,-46) scale(1,1)"><g><path fill="none" stroke="none"/><text fill="#000000" font-family="Arial" font-size="13px" font-style="normal" font-weight="normal" stroke="none" text-decoration="none" x="1325.5" y="252.5">+manages</text></g></g><g transform="translate(-52,-46) scale(1,1)"><g><path fill="none" stroke="none"/><text fill="#000000" font-family="Arial" font-size="13px" font-style="normal" font-weight="normal" stroke="none" text-decoration="none" x="1357.5" y="282.5">1</text></g></g><g transform="translate(-52,-46) scale(1,1)"><g><path fill="none" stroke="none"/><text fill="#000000" font-family="Arial" font-size="13px" font-style="normal" font-weight="normal" stroke="none" text-decoration="none" x="1568.220458984375" y="221.5">*</text></g></g><g transform="translate(-52,-46) scale(1,1)"><path d="M 1337 386 L 1597 461" fill="none" stroke="#000000" stroke-miterlimit="10"/></g><g transform="translate(-52,-46) scale(1,1)"><path d="M 1586.0687495643683 462.2279103849636 L 1597 461 L 1588.4021749302192 454.13870245001357" fill="none" stroke="#000000" stroke-miterlimit="10"/></g><g transform="translate(-52,-46) scale(1,1)"><g><path fill="none" stroke="none"/><text fill="#000000" font-family="Arial" font-size="13px" font-style="normal" font-weight="normal" stroke="none" text-decoration="none" x="1453.5" y="414.5">+uses</text></g></g><g transform="translate(-52,-46) scale(1,1)"><rect fill="#C0C0C0" height="147" opacity="0.2" stroke="none" width="317.8896484375" x="943" y="63"/></g><g transform="translate(-52,-46) scale(1,1)"><rect fill="#ffffff" height="147" stroke="none" width="317.8896484375" x="936" y="56"/></g><g transform="translate(-52,-46) scale(1,1)"><path d="M 936 56 L 1253.8896484375 56 L 1253.8896484375 203 L 936 203 L 936 56 Z Z" fill="none" stroke="#000000" stroke-miterlimit="10"/></g><g transform="translate(-52,-46) scale(1,1)"><path d="M 936 81 L 1253.8896484375 81" fill="none" stroke="#000000" stroke-miterlimit="10"/></g><g transform="translate(-52,-46) scale(1,1)"><path d="M 936 91 L 1253.8896484375 91" fill="none" stroke="#000000" stroke-miterlimit="10"/></g><g transform="translate(-52,-46) scale(1,1)"><g><path fill="none" stroke="none"/><text fill="#000000" font-family="Arial" font-size="13px" font-style="normal" font-weight="bold" stroke="none" text-decoration="none" x="1059.547119140625" y="75.5">UserService</text></g></g><g transform="translate(-52,-46) scale(1,1)"><g><path fill="none" stroke="none"/><text fill="#000000" font-family="Arial" font-size="13px" font-style="normal" font-weight="normal" stroke="none" text-decoration="none" x="941" y="108.5">+createUser(data): User</text></g></g><g transform="translate(-52,-46) scale(1,1)"><g><path fill="none" stroke="none"/><text fill="#000000" font-family="Arial" font-size="13px" font-style="normal" font-weight="normal" stroke="none" text-decoration="none" x="941" y="123.5">+getUsers(): List&lt;User&gt;</text></g></g><g transform="translate(-52,-46) scale(1,1)"><g><path fill="none" stroke="none"/><text fill="#000000" font-family="Arial" font-size="13px" font-style="normal" font-weight="normal" stroke="none" text-decoration="none" x="941" y="138.5">+getUserById(userId: ObjectId): User</text></g></g><g transform="translate(-52,-46) scale(1,1)"><g><path fill="none" stroke="none"/><text fill="#000000" font-family="Arial" font-size="13px" font-style="normal" font-weight="normal" stroke="none" text-decoration="none" x="941" y="153.5">+updateUser(userId: ObjectId, User: user, data): User</text></g></g><g transform="translate(-52,-46) scale(1,1)"><g><path fill="none" stroke="none"/><text fill="#000000" font-family="Arial" font-size="13px" font-style="normal" font-weight="normal" stroke="none" text-decoration="none" x="941" y="168.5">+getUserByUsername(username: String)</text></g></g><g transform="translate(-52,-46) scale(1,1)"><g><path fill="none" stroke="none"/><text fill="#000000" font-family="Arial" font-size="13px" font-style="normal" font-weight="normal" stroke="none" text-decoration="none" x="941" y="183.5">+verifyPassword(user: User, password: String)</text></g></g><g transform="translate(-52,-46) scale(1,1)"><g><path fill="none" stroke="none"/><text fill="#000000" font-family="Arial" font-size="13px" font-style="normal" font-weight="normal" stroke="none" text-decoration="none" x="941" y="198.5">+deleteUser(user: User)</text></g></g><g transform="translate(-52,-46) scale(1,1)"><path d="M 1215 204 L 1597 440" fill="none" stroke="#000000" stroke-miterlimit="10"/></g><g transform="translate(-52,-46) scale(1,1)"><path d="M 1586.1417410890863 438.23982574056953 L 1597 440 L 1590.566682647127 431.07742033730034" fill="none" stroke="#000000" stroke-miterlimit="10"/></g><g transform="translate(-52,-46) scale(1,1)"><g><path fill="none" stroke="none"/><text fill="#000000" font-family="Arial" font-size="13px" font-style="normal" font-weight="normal" stroke="none" text-decoration="none" x="1382.5" y="315.5">+manages</text></g></g><g transform="translate(-52,-46) scale(1,1)"><g><path fill="none" stroke="none"/><text fill="#000000" font-family="Arial" font-size="13px" font-style="normal" font-weight="normal" stroke="none" text-decoration="none" x="1222.5" y="232.5">1</text></g></g><g transform="translate(-52,-46) scale(1,1)"><g><path fill="none" stroke="none"/><text fill="#000000" font-family="Arial" font-size="13px" font-style="normal" font-weight="normal" stroke="none" text-decoration="none" x="1569.220458984375" y="445.5">*</text></g></g><g transform="translate(-52,-46) scale(1,1)"><rect fill="#C0C0C0" height="87" opacity="0.2" stroke="none" width="367.7568359375" x="951" y="463"/></g><g transform="translate(-52,-46) scale(1,1)"><rect fill="#ffffff" height="87" stroke="none" width="367.7568359375" x="944" y="456"/></g><g transform="translate(-52,-46) scale(1,1)"><path d="M 944 456 L 1311.7568359375 456 L 1311.7568359375 543 L 944 543 L 944 456 Z Z" fill="none" stroke="#000000" stroke-miterlimit="10"/></g><g transform="translate(-52,-46) scale(1,1)"><path d="M 944 481 L 1311.7568359375 481" fill="none" stroke="#000000" stroke-miterlimit="10"/></g><g transform="translate(-52,-46) scale(1,1)"><path d="M 944 491 L 1311.7568359375 491" fill="none" stroke="#000000" stroke-miterlimit="10"/></g><g transform="translate(-52,-46) scale(1,1)"><g><path fill="none" stroke="none"/><text fill="#000000" font-family="Arial" font-size="13px" font-style="normal" font-weight="bold" stroke="none" text-decoration="none" x="1092.8330078125" y="475.5">AuthService</text></g></g><g transform="translate(-52,-46) scale(1,1)"><g><path fill="none" stroke="none"/><text fill="#000000" font-family="Arial" font-size="13px" font-style="normal" font-weight="normal" stroke="none" text-decoration="none" x="949" y="508.5">+createAccessTokenPayload(user: User): String</text></g></g><g transform="translate(-52,-46) scale(1,1)"><g><path fill="none" stroke="none"/><text fill="#000000" font-family="Arial" font-size="13px" font-style="normal" font-weight="normal" stroke="none" text-decoration="none" x="949" y="523.5">+getAccessTokenFromPayload(payload: String): AccessToken</text></g></g><g transform="translate(-52,-46) scale(1,1)"><g><path fill="none" stroke="none"/><text fill="#000000" font-family="Arial" font-size="13px" font-style="normal" font-weight="normal" stroke="none" text-decoration="none" x="949" y="538.5">+getUserFromAccessToken(token: AccessToken): User</text></g></g><g transform="translate(-52,-46) scale(1,1)"><path d="M 1313 492 L 1597 480" fill="none" stroke="#000000" stroke-miterlimit="10"/></g><g transform="translate(-52,-46) scale(1,1)"><path d="M 1587.0240934111002 484.6347910124996 L 1597 480 L 1586.6686766481846 476.2232609568264" fill="none" stroke="#000000" stroke-miterlimit="10"/></g><g transform="translate(-52,-46) scale(1,1)"><g><path fill="none" stroke="none"/><text fill="#000000" font-family="Arial" font-size="13px" font-style="normal" font-weight="normal" stroke="none" text-decoration="none" x="1436.5" y="477.5">+uses</text></g></g><g transform="translate(-52,-46) scale(1,1)"><rect fill="#C0C0C0" height="132" opacity="0.2" stroke="none" width="224.71240234375" x="533" y="194"/></g><g transform="translate(-52,-46) scale(1,1)"><rect fill="#ffffff" height="132" stroke="none" width="224.71240234375" x="526" y="187"/></g><g transform="translate(-52,-46) scale(1,1)"><path d="M 526 187 L 750.71240234375 187 L 750.71240234375 319 L 526 319 L 526 187 Z Z" fill="none" stroke="#000000" stroke-miterlimit="10"/></g><g transform="translate(-52,-46) scale(1,1)"><path d="M 526 212 L 750.71240234375 212" fill="none" stroke="#000000" stroke-miterlimit="10"/></g><g transform="translate(-52,-46) scale(1,1)"><path d="M 526 222 L 750.71240234375 222" fill="none" stroke="#000000" stroke-miterlimit="10"/></g><g transform="translate(-52,-46) scale(1,1)"><g><path fill="none" stroke="none"/><text fill="#000000" font-family="Arial" font-size="13px" font-style="normal" font-weight="bold" stroke="none" text-decoration="none" x="611.97216796875" y="206.5">api_bugs</text></g></g><g transform="translate(-52,-46) scale(1,1)"><g><path fill="none" stroke="none"/><text fill="#000000" font-family="Arial" font-size="13px" font-style="normal" font-weight="normal" stroke="none" text-decoration="none" x="531" y="239.5">+get(status: BugStatuses): List&lt;Bug&gt;</text></g></g><g transform="translate(-52,-46) scale(1,1)"><g><path fill="none" stroke="none"/><text fill="#000000" font-family="Arial" font-size="13px" font-style="normal" font-weight="normal" stroke="none" text-decoration="none" x="531" y="254.5">+post(data): Bug</text></g></g><g transform="translate(-52,-46) scale(1,1)"><g><path fill="none" stroke="none"/><text fill="#000000" font-family="Arial" font-size="13px" font-style="normal" font-weight="normal" stroke="none" text-decoration="none" x="531" y="269.5">+get(bugId: ObjectId): Bug</text></g></g><g transform="translate(-52,-46) scale(1,1)"><g><path fill="none" stroke="none"/><text fill="#000000" font-family="Arial" font-size="13px" font-style="normal" font-weight="normal" stroke="none" text-decoration="none" x="531" y="284.5">+post(bugId: ObjectId, data): Bug</text></g></g><g transform="translate(-52,-46) scale(1,1)"><g><path fill="none" stroke="none"/><text fill="#000000" font-family="Arial" font-size="13px" font-style="normal" font-weight="normal" stroke="none" text-decoration="none" x="531" y="299.5">+solve_post(bugId: ObjectId): Bug</text></g></g><g transform="translate(-52,-46) scale(1,1)"><g><path fill="none" stroke="none"/><text fill="#000000" font-family="Arial" font-size="13px" font-style="normal" font-weight="normal" stroke="none" text-decoration="none" x="531" y="314.5">+delete(bugId: ObjectId)</text></g></g><g transform="translate(-52,-46) scale(1,1)"><rect fill="#C0C0C0" height="44" opacity="0.2" stroke="none" width="50.919921875" x="293" y="234"/></g><g transform="translate(-52,-46) scale(1,1)"><rect fill="#ffffff" height="44" stroke="none" width="50.919921875" x="286" y="227"/></g><g transform="translate(-52,-46) scale(1,1)"><path d="M 286 227 L 336.919921875 227 L 336.919921875 271 L 286 271 L 286 227 Z Z" fill="none" stroke="#000000" stroke-miterlimit="10"/></g><g transform="translate(-52,-46) scale(1,1)"><path d="M 286 252 L 336.919921875 252" fill="none" stroke="#000000" stroke-miterlimit="10"/></g><g transform="translate(-52,-46) scale(1,1)"><path d="M 286 262 L 336.919921875 262" fill="none" stroke="#000000" stroke-miterlimit="10"/></g><g transform="translate(-52,-46) scale(1,1)"><g><path fill="none" stroke="none"/><text fill="#000000" font-family="Arial" font-size="13px" font-style="normal" font-weight="bold" stroke="none" text-decoration="none" x="302.785888671875" y="246.5">api</text></g></g><g transform="translate(-52,-46) scale(1,1)"><path d="M 338 249 L 525 252" fill="none" stroke="#000000" stroke-miterlimit="10"/></g><g transform="translate(-52,-46) scale(1,1)"><path d="M 514.7711089962772 256.04595956899715 L 525 252 L 514.9061563596051 247.62800725489404" fill="none" stroke="#000000" stroke-miterlimit="10"/></g><g transform="translate(-52,-46) scale(1,1)"><g><path fill="none" stroke="none"/><text fill="#000000" font-family="Arial" font-size="13px" font-style="normal" font-weight="normal" stroke="none" text-decoration="none" x="413.5" y="241.5">+uses</text></g></g><g transform="translate(-52,-46) scale(1,1)"><rect fill="#C0C0C0" height="72" opacity="0.2" stroke="none" width="322.22509765625" x="437" y="402"/></g><g transform="translate(-52,-46) scale(1,1)"><rect fill="#ffffff" height="72" stroke="none" width="322.22509765625" x="430" y="395"/></g><g transform="translate(-52,-46) scale(1,1)"><path d="M 430 395 L 752.22509765625 395 L 752.22509765625 467 L 430 467 L 430 395 Z Z" fill="none" stroke="#000000" stroke-miterlimit="10"/></g><g transform="translate(-52,-46) scale(1,1)"><path d="M 430 420 L 752.22509765625 420" fill="none" stroke="#000000" stroke-miterlimit="10"/></g><g transform="translate(-52,-46) scale(1,1)"><path d="M 430 430 L 752.22509765625 430" fill="none" stroke="#000000" stroke-miterlimit="10"/></g><g transform="translate(-52,-46) scale(1,1)"><g><path fill="none" stroke="none"/><text fill="#000000" font-family="Arial" font-size="13px" font-style="normal" font-weight="bold" stroke="none" text-decoration="none" x="566.172607421875" y="414.5">api_auth</text></g></g><g transform="translate(-52,-46) scale(1,1)"><g><path fill="none" stroke="none"/><text fill="#000000" font-family="Arial" font-size="13px" font-style="normal" font-weight="normal" stroke="none" text-decoration="none" x="435" y="447.5">+login_post(username: String, password: String): User</text></g></g><g transform="translate(-52,-46) scale(1,1)"><g><path fill="none" stroke="none"/><text fill="#000000" font-family="Arial" font-size="13px" font-style="normal" font-weight="normal" stroke="none" text-decoration="none" x="435" y="462.5">+user_get()</text></g></g><g transform="translate(-52,-46) scale(1,1)"><path d="M 338 266 L 534 394" fill="none" stroke="#000000" stroke-miterlimit="10"/></g><g transform="translate(-52,-46) scale(1,1)"><path d="M 523.1893745069591 391.9676672395461 L 534 394 L 527.7928096815472 384.91865712845805" fill="none" stroke="#000000" stroke-miterlimit="10"/></g><g transform="translate(-52,-46) scale(1,1)"><g><path fill="none" stroke="none"/><text fill="#000000" font-family="Arial" font-size="13px" font-style="normal" font-weight="normal" stroke="none" text-decoration="none" x="426.5" y="323.5">+uses</text></g></g><g transform="translate(-52,-46) scale(1,1)"><path d="M 752 270 L 935 298" fill="none" stroke="#000000" stroke-miterlimit="10"/></g><g transform="translate(-52,-46) scale(1,1)"><path d="M 924.3175640424628 300.6240354443329 L 935 298 L 925.5909038380728 292.30185035159604" fill="none" stroke="#000000" stroke-miterlimit="10"/></g><g transform="translate(-52,-46) scale(1,1)"><g><path fill="none" stroke="none"/><text fill="#000000" font-family="Arial" font-size="13px" font-style="normal" font-weight="normal" stroke="none" text-decoration="none" x="761.5" y="265.5">+uses</text></g></g><g transform="translate(-52,-46) scale(1,1)"><path d="M 753 452 L 943 476" fill="none" stroke="#000000" stroke-miterlimit="10"/></g><g transform="translate(-52,-46) scale(1,1)"><path d="M 932.389907221785 478.90274546553275 L 943 476 L 933.444980444769 470.5500824502425" fill="none" stroke="#000000" stroke-miterlimit="10"/></g><g transform="translate(-52,-46) scale(1,1)"><g><path fill="none" stroke="none"/><text fill="#000000" font-family="Arial" font-size="13px" font-style="normal" font-weight="normal" stroke="none" text-decoration="none" x="762.5" y="446.5">+uses</text></g></g><g transform="translate(-52,-46) scale(1,1)"><rect fill="#C0C0C0" height="44" opacity="0.2" stroke="none" width="58.7021484375" x="69" y="226"/></g><g transform="translate(-52,-46) scale(1,1)"><rect fill="#ffffff" height="44" stroke="none" width="58.7021484375" x="62" y="219"/></g><g transform="translate(-52,-46) scale(1,1)"><path d="M 62 219 L 120.7021484375 219 L 120.7021484375 263 L 62 263 L 62 219 Z Z" fill="none" stroke="#000000" stroke-miterlimit="10"/></g><g transform="translate(-52,-46) scale(1,1)"><path d="M 62 244 L 120.7021484375 244" fill="none" stroke="#000000" stroke-miterlimit="10"/></g><g transform="translate(-52,-46) scale(1,1)"><path d="M 62 254 L 120.7021484375 254" fill="none" stroke="#000000" stroke-miterlimit="10"/></g><g transform="translate(-52,-46) scale(1,1)"><g><path fill="none" stroke="none"/><text fill="#000000" font-family="Arial" font-size="13px" font-style="normal" font-weight="bold" stroke="none" text-decoration="none" x="68.23291015625" y="238.5">Window</text></g></g><g transform="translate(-52,-46) scale(1,1)"><path d="M 122 242 L 285 248" fill="none" stroke="#000000" stroke-miterlimit="10"/></g><g transform="translate(-52,-46) scale(1,1)"><path d="M 274.6893564718676 251.83283576947693 L 285 248 L 274.9990498790889 243.41949820663189" fill="none" stroke="#000000" stroke-miterlimit="10"/></g><g transform="translate(-52,-46) scale(1,1)"><g><path fill="none" stroke="none"/><text fill="#000000" font-family="Arial" font-size="13px" font-style="normal" font-weight="normal" stroke="none" text-decoration="none" x="185.5" y="236.5">+uses</text></g></g></g></svg>