<?xml version="1.0" encoding="UTF-8" standalone="no"?><svg xmlns="http://www.w3.org/2000/svg" xmlns:xlink="http://www.w3.org/1999/xlink" height="458" version="1.1" width="321.34619140625"><defs/><g><g transform="translate(-1824,-401) scale(1,1)"><rect fill="#C0C0C0" height="102" opacity="0.2" stroke="none" width="120" x="1849" y="754"/></g><g transform="translate(-1824,-401) scale(1,1)"><rect fill="#ffffff" height="102" stroke="none" width="120" x="1842" y="747"/></g><g transform="translate(-1824,-401) scale(1,1)"><path d="M 1842 747 L 1962 747 L 1962 849 L 1842 849 L 1842 747 Z Z" fill="none" stroke="#000000" stroke-miterlimit="10"/></g><g transform="translate(-1824,-401) scale(1,1)"><path d="M 1842 772 L 1962 772" fill="none" stroke="#000000" stroke-miterlimit="10"/></g><g transform="translate(-1824,-401) scale(1,1)"><path d="M 1842 840 L 1962 840" fill="none" stroke="#000000" stroke-miterlimit="10"/></g><g transform="translate(-1824,-401) scale(1,1)"><g><path fill="none" stroke="none"/><text fill="#000000" font-family="Arial" font-size="13px" font-style="normal" font-weight="bold" stroke="none" text-decoration="none" x="1888.2763671875" y="766.5">User</text></g></g><g transform="translate(-1824,-401) scale(1,1)"><g><path fill="none" stroke="none"/><text fill="#000000" font-family="Arial" font-size="13px" font-style="normal" font-weight="normal" stroke="none" text-decoration="none" x="1847" y="789.5">+id: ObjectId</text></g></g><g transform="translate(-1824,-401) scale(1,1)"><g><path fill="none" stroke="none"/><text fill="#000000" font-family="Arial" font-size="13px" font-style="normal" font-weight="normal" stroke="none" text-decoration="none" x="1847" y="804.5">+username: String</text></g></g><g transform="translate(-1824,-401) scale(1,1)"><g><path fill="none" stroke="none"/><text fill="#000000" font-family="Arial" font-size="13px" font-style="normal" font-weight="normal" stroke="none" text-decoration="none" x="1847" y="819.5">+password: String</text></g></g><g transform="translate(-1824,-401) scale(1,1)"><g><path fill="none" stroke="none"/><text fill="#000000" font-family="Arial" font-size="13px" font-style="normal" font-weight="normal" stroke="none" text-decoration="none" x="1847" y="834.5">+role: UserRoles</text></g></g><g transform="translate(-1824,-401) scale(1,1)"><rect fill="#C0C0C0" height="90" opacity="0.2" stroke="none" width="120" x="2017" y="754"/></g><g transform="translate(-1824,-401) scale(1,1)"><rect fill="#ffffff" height="90" stroke="none" width="120" x="2010" y="747"/></g><g transform="translate(-1824,-401) scale(1,1)"><path d="M 2010 747 L 2130 747 L 2130 837 L 2010 837 L 2010 747 Z Z" fill="none" stroke="#000000" stroke-miterlimit="10"/></g><g transform="translate(-1824,-401) scale(1,1)"><path d="M 2010 785 L 2130 785" fill="none" stroke="#000000" stroke-miterlimit="10"/></g><g transform="translate(-1824,-401) scale(1,1)"><g><path fill="none" stroke="none"/><text fill="#000000" font-family="Arial" font-size="13px" font-style="normal" font-weight="normal" stroke="none" text-decoration="none" x="2026.635986328125" y="764.5">«enumeration»</text></g></g><g transform="translate(-1824,-401) scale(1,1)"><g><path fill="none" stroke="none"/><text fill="#000000" font-family="Arial" font-size="13px" font-style="normal" font-weight="bold" stroke="none" text-decoration="none" x="2039.658203125" y="779.5">UserRoles</text></g></g><g transform="translate(-1824,-401) scale(1,1)"><g><path fill="none" stroke="none"/><text fill="#000000" font-family="Arial" font-size="13px" font-style="normal" font-weight="normal" stroke="none" text-decoration="none" x="2015" y="802.5">TESTER</text></g></g><g transform="translate(-1824,-401) scale(1,1)"><g><path fill="none" stroke="none"/><text fill="#000000" font-family="Arial" font-size="13px" font-style="normal" font-weight="normal" stroke="none" text-decoration="none" x="2015" y="817.5">PROGRAMMER</text></g></g><g transform="translate(-1824,-401) scale(1,1)"><g><path fill="none" stroke="none"/><text fill="#000000" font-family="Arial" font-size="13px" font-style="normal" font-weight="normal" stroke="none" text-decoration="none" x="2015" y="832.5">ADMIN</text></g></g><g transform="translate(-1824,-401) scale(1,1)"><rect fill="#C0C0C0" height="175" opacity="0.2" stroke="none" width="132.21435546875" x="1841" y="418"/></g><g transform="translate(-1824,-401) scale(1,1)"><rect fill="#ffffff" height="175" stroke="none" width="132.21435546875" x="1834" y="411"/></g><g transform="translate(-1824,-401) scale(1,1)"><path d="M 1834 411 L 1966.21435546875 411 L 1966.21435546875 586 L 1834 586 L 1834 411 Z Z" fill="none" stroke="#000000" stroke-miterlimit="10"/></g><g transform="translate(-1824,-401) scale(1,1)"><path d="M 1834 436 L 1966.21435546875 436" fill="none" stroke="#000000" stroke-miterlimit="10"/></g><g transform="translate(-1824,-401) scale(1,1)"><path d="M 1834 564 L 1966.21435546875 564" fill="none" stroke="#000000" stroke-miterlimit="10"/></g><g transform="translate(-1824,-401) scale(1,1)"><g><path fill="none" stroke="none"/><text fill="#000000" font-family="Arial" font-size="13px" font-style="normal" font-weight="bold" stroke="none" text-decoration="none" x="1888.541748046875" y="430.5">Bug</text></g></g><g transform="translate(-1824,-401) scale(1,1)"><g><path fill="none" stroke="none"/><text fill="#000000" font-family="Arial" font-size="13px" font-style="normal" font-weight="normal" stroke="none" text-decoration="none" x="1839" y="453.5">+id: ObjectId</text></g></g><g transform="translate(-1824,-401) scale(1,1)"><g><path fill="none" stroke="none"/><text fill="#000000" font-family="Arial" font-size="13px" font-style="normal" font-weight="normal" stroke="none" text-decoration="none" x="1839" y="468.5">+createdBy: User</text></g></g><g transform="translate(-1824,-401) scale(1,1)"><g><path fill="none" stroke="none"/><text fill="#000000" font-family="Arial" font-size="13px" font-style="normal" font-weight="normal" stroke="none" text-decoration="none" x="1839" y="483.5">+createdAt: Date</text></g></g><g transform="translate(-1824,-401) scale(1,1)"><g><path fill="none" stroke="none"/><text fill="#000000" font-family="Arial" font-size="13px" font-style="normal" font-weight="normal" stroke="none" text-decoration="none" x="1839" y="498.5">+solvedBy: User</text></g></g><g transform="translate(-1824,-401) scale(1,1)"><g><path fill="none" stroke="none"/><text fill="#000000" font-family="Arial" font-size="13px" font-style="normal" font-weight="normal" stroke="none" text-decoration="none" x="1839" y="513.5">+solvedAt: Date</text></g></g><g transform="translate(-1824,-401) scale(1,1)"><g><path fill="none" stroke="none"/><text fill="#000000" font-family="Arial" font-size="13px" font-style="normal" font-weight="normal" stroke="none" text-decoration="none" x="1839" y="528.5">+title: String</text></g></g><g transform="translate(-1824,-401) scale(1,1)"><g><path fill="none" stroke="none"/><text fill="#000000" font-family="Arial" font-size="13px" font-style="normal" font-weight="normal" stroke="none" text-decoration="none" x="1839" y="543.5">+description: String</text></g></g><g transform="translate(-1824,-401) scale(1,1)"><g><path fill="none" stroke="none"/><text fill="#000000" font-family="Arial" font-size="13px" font-style="normal" font-weight="normal" stroke="none" text-decoration="none" x="1839" y="558.5">+status: BugStatuses</text></g></g><g transform="translate(-1824,-401) scale(1,1)"><g><path fill="none" stroke="none"/><text fill="#000000" font-family="Arial" font-size="13px" font-style="normal" font-weight="normal" stroke="none" text-decoration="none" x="1839" y="581.5">+forUserId(ObjectId)</text></g></g><g transform="translate(-1824,-401) scale(1,1)"><path d="M 1902 746 L 1901 587" fill="none" stroke="#000000" stroke-miterlimit="10"/></g><g transform="translate(-1824,-401) scale(1,1)"><path d="M 1905.2733494339075 597.1359994384236 L 1901 587 L 1896.8544804260832 597.188948300108" fill="none" stroke="#000000" stroke-miterlimit="10"/></g><g transform="translate(-1824,-401) scale(1,1)"><g><path fill="none" stroke="none"/><text fill="#000000" font-family="Arial" font-size="13px" font-style="normal" font-weight="normal" stroke="none" text-decoration="none" x="1855.5" y="671.5">+manages</text></g></g><g transform="translate(-1824,-401) scale(1,1)"><g><path fill="none" stroke="none"/><text fill="#000000" font-family="Arial" font-size="13px" font-style="normal" font-weight="normal" stroke="none" text-decoration="none" x="1910.5" y="730.5">1</text></g></g><g transform="translate(-1824,-401) scale(1,1)"><g><path fill="none" stroke="none"/><text fill="#000000" font-family="Arial" font-size="13px" font-style="normal" font-weight="normal" stroke="none" text-decoration="none" x="1910.220458984375" y="614.5">*</text></g></g><g transform="translate(-1824,-401) scale(1,1)"><path d="M 1963 796 L 2009 794" fill="none" stroke="#000000" stroke-miterlimit="10"/></g><g transform="translate(-1824,-401) scale(1,1)"><path d="M 1999.0297668649937 798.6469830248906 L 2009 794 L 1998.6640673312672 790.235893749185" fill="none" stroke="#000000" stroke-miterlimit="10"/></g><g transform="translate(-1824,-401) scale(1,1)"><g><path fill="none" stroke="none"/><text fill="#000000" font-family="Arial" font-size="13px" font-style="normal" font-weight="normal" stroke="none" text-decoration="none" x="1970.5" y="786.5">+has</text></g></g><g transform="translate(-1824,-401) scale(1,1)"><rect fill="#C0C0C0" height="75" opacity="0.2" stroke="none" width="125.34619140625" x="2017" y="458"/></g><g transform="translate(-1824,-401) scale(1,1)"><rect fill="#ffffff" height="75" stroke="none" width="125.34619140625" x="2010" y="451"/></g><g transform="translate(-1824,-401) scale(1,1)"><path d="M 2010 451 L 2135.34619140625 451 L 2135.34619140625 526 L 2010 526 L 2010 451 Z Z" fill="none" stroke="#000000" stroke-miterlimit="10"/></g><g transform="translate(-1824,-401) scale(1,1)"><path d="M 2010 489 L 2135.34619140625 489" fill="none" stroke="#000000" stroke-miterlimit="10"/></g><g transform="translate(-1824,-401) scale(1,1)"><g><path fill="none" stroke="none"/><text fill="#000000" font-family="Arial" font-size="13px" font-style="normal" font-weight="normal" stroke="none" text-decoration="none" x="2029.30908203125" y="468.5">«enumeration»</text></g></g><g transform="translate(-1824,-401) scale(1,1)"><g><path fill="none" stroke="none"/><text fill="#000000" font-family="Arial" font-size="13px" font-style="normal" font-weight="bold" stroke="none" text-decoration="none" x="2035.8154296875" y="483.5">BugStatuses</text></g></g><g transform="translate(-1824,-401) scale(1,1)"><g><path fill="none" stroke="none"/><text fill="#000000" font-family="Arial" font-size="13px" font-style="normal" font-weight="normal" stroke="none" text-decoration="none" x="2015" y="506.5">OPEN</text></g></g><g transform="translate(-1824,-401) scale(1,1)"><g><path fill="none" stroke="none"/><text fill="#000000" font-family="Arial" font-size="13px" font-style="normal" font-weight="normal" stroke="none" text-decoration="none" x="2015" y="521.5">SOLVED</text></g></g><g transform="translate(-1824,-401) scale(1,1)"><path d="M 1967 494 L 2009 492" fill="none" stroke="#000000" stroke-miterlimit="10"/></g><g transform="translate(-1824,-401) scale(1,1)"><path d="M 1999.049054231698 496.68814230973317 L 2009 492 L 1998.6486015496341 488.2786359863939" fill="none" stroke="#000000" stroke-miterlimit="10"/></g><g transform="translate(-1824,-401) scale(1,1)"><g><path fill="none" stroke="none"/><text fill="#000000" font-family="Arial" font-size="13px" font-style="normal" font-weight="normal" stroke="none" text-decoration="none" x="1972.5" y="484.5">+has</text></g></g></g></svg>