<?xml version="1.0" encoding="UTF-8" standalone="no"?><svg xmlns="http://www.w3.org/2000/svg" xmlns:xlink="http://www.w3.org/1999/xlink" height="596" version="1.1" width="1849.34619140625"><defs/><g><g transform="translate(-50,-46) scale(1,1)"><rect fill="#C0C0C0" height="102" opacity="0.2" stroke="none" width="120" x="1603" y="537"/></g><g transform="translate(-50,-46) scale(1,1)"><rect fill="#ffffff" height="102" stroke="none" width="120" x="1596" y="530"/></g><g transform="translate(-50,-46) scale(1,1)"><path d="M 1596 530 L 1716 530 L 1716 632 L 1596 632 L 1596 530 Z Z" fill="none" stroke="#000000" stroke-miterlimit="10"/></g><g transform="translate(-50,-46) scale(1,1)"><path d="M 1596 555 L 1716 555" fill="none" stroke="#000000" stroke-miterlimit="10"/></g><g transform="translate(-50,-46) scale(1,1)"><path d="M 1596 623 L 1716 623" fill="none" stroke="#000000" stroke-miterlimit="10"/></g><g transform="translate(-50,-46) scale(1,1)"><g><path fill="none" stroke="none"/><text fill="#000000" font-family="Arial" font-size="13px" font-style="normal" font-weight="bold" stroke="none" text-decoration="none" x="1642.2763671875" y="549.5">User</text></g></g><g transform="translate(-50,-46) scale(1,1)"><g><path fill="none" stroke="none"/><text fill="#000000" font-family="Arial" font-size="13px" font-style="normal" font-weight="normal" stroke="none" text-decoration="none" x="1601" y="572.5">+id: ObjectId</text></g></g><g transform="translate(-50,-46) scale(1,1)"><g><path fill="none" stroke="none"/><text fill="#000000" font-family="Arial" font-size="13px" font-style="normal" font-weight="normal" stroke="none" text-decoration="none" x="1601" y="587.5">+username: String</text></g></g><g transform="translate(-50,-46) scale(1,1)"><g><path fill="none" stroke="none"/><text fill="#000000" font-family="Arial" font-size="13px" font-style="normal" font-weight="normal" stroke="none" text-decoration="none" x="1601" y="602.5">+password: String</text></g></g><g transform="translate(-50,-46) scale(1,1)"><g><path fill="none" stroke="none"/><text fill="#000000" font-family="Arial" font-size="13px" font-style="normal" font-weight="normal" stroke="none" text-decoration="none" x="1601" y="617.5">+role: UserRoles</text></g></g><g transform="translate(-50,-46) scale(1,1)"><rect fill="#C0C0C0" height="90" opacity="0.2" stroke="none" width="120" x="1771" y="537"/></g><g transform="translate(-50,-46) scale(1,1)"><rect fill="#ffffff" height="90" stroke="none" width="120" x="1764" y="530"/></g><g transform="translate(-50,-46) scale(1,1)"><path d="M 1764 530 L 1884 530 L 1884 620 L 1764 620 L 1764 530 Z Z" fill="none" stroke="#000000" stroke-miterlimit="10"/></g><g transform="translate(-50,-46) scale(1,1)"><path d="M 1764 568 L 1884 568" fill="none" stroke="#000000" stroke-miterlimit="10"/></g><g transform="translate(-50,-46) scale(1,1)"><g><path fill="none" stroke="none"/><text fill="#000000" font-family="Arial" font-size="13px" font-style="normal" font-weight="normal" stroke="none" text-decoration="none" x="1780.635986328125" y="547.5">«enumeration»</text></g></g><g transform="translate(-50,-46) scale(1,1)"><g><path fill="none" stroke="none"/><text fill="#000000" font-family="Arial" font-size="13px" font-style="normal" font-weight="bold" stroke="none" text-decoration="none" x="1793.658203125" y="562.5">UserRoles</text></g></g><g transform="translate(-50,-46) scale(1,1)"><g><path fill="none" stroke="none"/><text fill="#000000" font-family="Arial" font-size="13px" font-style="normal" font-weight="normal" stroke="none" text-decoration="none" x="1769" y="585.5">TESTER</text></g></g><g transform="translate(-50,-46) scale(1,1)"><g><path fill="none" stroke="none"/><text fill="#000000" font-family="Arial" font-size="13px" font-style="normal" font-weight="normal" stroke="none" text-decoration="none" x="1769" y="600.5">PROGRAMMER</text></g></g><g transform="translate(-50,-46) scale(1,1)"><g><path fill="none" stroke="none"/><text fill="#000000" font-family="Arial" font-size="13px" font-style="normal" font-weight="normal" stroke="none" text-decoration="none" x="1769" y="615.5">ADMIN</text></g></g><g transform="translate(-50,-46) scale(1,1)"><rect fill="#C0C0C0" height="175" opacity="0.2" stroke="none" width="132.21435546875" x="1595" y="201"/></g><g transform="translate(-50,-46) scale(1,1)"><rect fill="#ffffff" height="175" stroke="none" width="132.21435546875" x="1588" y="194"/></g><g transform="translate(-50,-46) scale(1,1)"><path d="M 1588 194 L 1720.21435546875 194 L 1720.21435546875 369 L 1588 369 L 1588 194 Z Z" fill="none" stroke="#000000" stroke-miterlimit="10"/></g><g transform="translate(-50,-46) scale(1,1)"><path d="M 1588 219 L 1720.21435546875 219" fill="none" stroke="#000000" stroke-miterlimit="10"/></g><g transform="translate(-50,-46) scale(1,1)"><path d="M 1588 347 L 1720.21435546875 347" fill="none" stroke="#000000" stroke-miterlimit="10"/></g><g transform="translate(-50,-46) scale(1,1)"><g><path fill="none" stroke="none"/><text fill="#000000" font-family="Arial" font-size="13px" font-style="normal" font-weight="bold" stroke="none" text-decoration="none" x="1642.541748046875" y="213.5">Bug</text></g></g><g transform="translate(-50,-46) scale(1,1)"><g><path fill="none" stroke="none"/><text fill="#000000" font-family="Arial" font-size="13px" font-style="normal" font-weight="normal" stroke="none" text-decoration="none" x="1593" y="236.5">+id: ObjectId</text></g></g><g transform="translate(-50,-46) scale(1,1)"><g><path fill="none" stroke="none"/><text fill="#000000" font-family="Arial" font-size="13px" font-style="normal" font-weight="normal" stroke="none" text-decoration="none" x="1593" y="251.5">+createdBy: User</text></g></g><g transform="translate(-50,-46) scale(1,1)"><g><path fill="none" stroke="none"/><text fill="#000000" font-family="Arial" font-size="13px" font-style="normal" font-weight="normal" stroke="none" text-decoration="none" x="1593" y="266.5">+createdAt: Date</text></g></g><g transform="translate(-50,-46) scale(1,1)"><g><path fill="none" stroke="none"/><text fill="#000000" font-family="Arial" font-size="13px" font-style="normal" font-weight="normal" stroke="none" text-decoration="none" x="1593" y="281.5">+solvedBy: User</text></g></g><g transform="translate(-50,-46) scale(1,1)"><g><path fill="none" stroke="none"/><text fill="#000000" font-family="Arial" font-size="13px" font-style="normal" font-weight="normal" stroke="none" text-decoration="none" x="1593" y="296.5">+solvedAt: Date</text></g></g><g transform="translate(-50,-46) scale(1,1)"><g><path fill="none" stroke="none"/><text fill="#000000" font-family="Arial" font-size="13px" font-style="normal" font-weight="normal" stroke="none" text-decoration="none" x="1593" y="311.5">+title: String</text></g></g><g transform="translate(-50,-46) scale(1,1)"><g><path fill="none" stroke="none"/><text fill="#000000" font-family="Arial" font-size="13px" font-style="normal" font-weight="normal" stroke="none" text-decoration="none" x="1593" y="326.5">+description: String</text></g></g><g transform="translate(-50,-46) scale(1,1)"><g><path fill="none" stroke="none"/><text fill="#000000" font-family="Arial" font-size="13px" font-style="normal" font-weight="normal" stroke="none" text-decoration="none" x="1593" y="341.5">+status: BugStatuses</text></g></g><g transform="translate(-50,-46) scale(1,1)"><g><path fill="none" stroke="none"/><text fill="#000000" font-family="Arial" font-size="13px" font-style="normal" font-weight="normal" stroke="none" text-decoration="none" x="1593" y="364.5">+forUserId(ObjectId)</text></g></g><g transform="translate(-50,-46) scale(1,1)"><path d="M 1656 529 L 1655 370" fill="none" stroke="#000000" stroke-miterlimit="10"/></g><g transform="translate(-50,-46) scale(1,1)"><path d="M 1659.2733494339075 380.1359994384236 L 1655 370 L 1650.8544804260832 380.188948300108" fill="none" stroke="#000000" stroke-miterlimit="10"/></g><g transform="translate(-50,-46) scale(1,1)"><g><path fill="none" stroke="none"/><text fill="#000000" font-family="Arial" font-size="13px" font-style="normal" font-weight="normal" stroke="none" text-decoration="none" x="1609.5" y="454.5">+manages</text></g></g><g transform="translate(-50,-46) scale(1,1)"><g><path fill="none" stroke="none"/><text fill="#000000" font-family="Arial" font-size="13px" font-style="normal" font-weight="normal" stroke="none" text-decoration="none" x="1664.5" y="513.5">1</text></g></g><g transform="translate(-50,-46) scale(1,1)"><g><path fill="none" stroke="none"/><text fill="#000000" font-family="Arial" font-size="13px" font-style="normal" font-weight="normal" stroke="none" text-decoration="none" x="1664.220458984375" y="397.5">*</text></g></g><g transform="translate(-50,-46) scale(1,1)"><path d="M 1717 579 L 1763 577" fill="none" stroke="#000000" stroke-miterlimit="10"/></g><g transform="translate(-50,-46) scale(1,1)"><path d="M 1753.0297668649937 581.6469830248906 L 1763 577 L 1752.6640673312672 573.235893749185" fill="none" stroke="#000000" stroke-miterlimit="10"/></g><g transform="translate(-50,-46) scale(1,1)"><g><path fill="none" stroke="none"/><text fill="#000000" font-family="Arial" font-size="13px" font-style="normal" font-weight="normal" stroke="none" text-decoration="none" x="1724.5" y="569.5">+has</text></g></g><g transform="translate(-50,-46) scale(1,1)"><rect fill="#C0C0C0" height="75" opacity="0.2" stroke="none" width="125.34619140625" x="1771" y="241"/></g><g transform="translate(-50,-46) scale(1,1)"><rect fill="#ffffff" height="75" stroke="none" width="125.34619140625" x="1764" y="234"/></g><g transform="translate(-50,-46) scale(1,1)"><path d="M 1764 234 L 1889.34619140625 234 L 1889.34619140625 309 L 1764 309 L 1764 234 Z Z" fill="none" stroke="#000000" stroke-miterlimit="10"/></g><g transform="translate(-50,-46) scale(1,1)"><path d="M 1764 272 L 1889.34619140625 272" fill="none" stroke="#000000" stroke-miterlimit="10"/></g><g transform="translate(-50,-46) scale(1,1)"><g><path fill="none" stroke="none"/><text fill="#000000" font-family="Arial" font-size="13px" font-style="normal" font-weight="normal" stroke="none" text-decoration="none" x="1783.30908203125" y="251.5">«enumeration»</text></g></g><g transform="translate(-50,-46) scale(1,1)"><g><path fill="none" stroke="none"/><text fill="#000000" font-family="Arial" font-size="13px" font-style="normal" font-weight="bold" stroke="none" text-decoration="none" x="1789.8154296875" y="266.5">BugStatuses</text></g></g><g transform="translate(-50,-46) scale(1,1)"><g><path fill="none" stroke="none"/><text fill="#000000" font-family="Arial" font-size="13px" font-style="normal" font-weight="normal" stroke="none" text-decoration="none" x="1769" y="289.5">OPEN</text></g></g><g transform="translate(-50,-46) scale(1,1)"><g><path fill="none" stroke="none"/><text fill="#000000" font-family="Arial" font-size="13px" font-style="normal" font-weight="normal" stroke="none" text-decoration="none" x="1769" y="304.5">SOLVED</text></g></g><g transform="translate(-50,-46) scale(1,1)"><path d="M 1721 277 L 1763 275" fill="none" stroke="#000000" stroke-miterlimit="10"/></g><g transform="translate(-50,-46) scale(1,1)"><path d="M 1753.049054231698 279.68814230973317 L 1763 275 L 1752.6486015496341 271.2786359863939" fill="none" stroke="#000000" stroke-miterlimit="10"/></g><g transform="translate(-50,-46) scale(1,1)"><g><path fill="none" stroke="none"/><text fill="#000000" font-family="Arial" font-size="13px" font-style="normal" font-weight="normal" stroke="none" text-decoration="none" x="1726.5" y="267.5">+has</text></g></g><g transform="translate(-50,-46) scale(1,1)"><rect fill="#C0C0C0" height="136" opacity="0.2" stroke="none" width="400.2822265625" x="935" y="327"/></g><g transform="translate(-50,-46) scale(1,1)"><rect fill="#ffffff" height="136" stroke="none" width="400.2822265625" x="928" y="320"/></g><g transform="translate(-50,-46) scale(1,1)"><path d="M 928 320 L 1328.2822265625 320 L 1328.2822265625 456 L 928 456 L 928 320 Z Z" fill="none" stroke="#000000" stroke-miterlimit="10"/></g><g transform="translate(-50,-46) scale(1,1)"><path d="M 928 345 L 1328.2822265625 345" fill="none" stroke="#000000" stroke-miterlimit="10"/></g><g transform="translate(-50,-46) scale(1,1)"><path d="M 928 355 L 1328.2822265625 355" fill="none" stroke="#000000" stroke-miterlimit="10"/></g><g transform="translate(-50,-46) scale(1,1)"><g><path fill="none" stroke="none"/><text fill="#000000" font-family="Arial" font-size="13px" font-style="normal" font-weight="bold" stroke="none" text-decoration="none" x="1094.901611328125" y="339.5">BugService</text></g></g><g transform="translate(-50,-46) scale(1,1)"><g><path fill="none" stroke="none"/><text fill="#000000" font-family="Arial" font-size="13px" font-style="normal" font-weight="normal" stroke="none" text-decoration="none" x="933" y="372.5">+createBug(data): Bug</text></g></g><g transform="translate(-50,-46) scale(1,1)"><g><path fill="none" stroke="none"/><text fill="#000000" font-family="Arial" font-size="13px" font-style="normal" font-weight="normal" stroke="none" text-decoration="none" x="933" y="387.5">+getBugs(user: User, status: BugStatuses): List&lt;Bug&gt;</text></g></g><g transform="translate(-50,-46) scale(1,1)"><g><path fill="none" stroke="none"/><text fill="#000000" font-family="Arial" font-size="13px" font-style="normal" font-weight="normal" stroke="none" text-decoration="none" x="933" y="402.5">+getBugById(user: User, bugId: ObjectId): Bug</text></g></g><g transform="translate(-50,-46) scale(1,1)"><g><path fill="none" stroke="none"/><text fill="#000000" font-family="Arial" font-size="13px" font-style="normal" font-weight="normal" stroke="none" text-decoration="none" x="933" y="417.5">+updateBug(bug: Bug, data)</text></g></g><g transform="translate(-50,-46) scale(1,1)"><g><path fill="none" stroke="none"/><text fill="#000000" font-family="Arial" font-size="13px" font-style="normal" font-weight="normal" stroke="none" text-decoration="none" x="933" y="432.5">+solveBug(user: User, bug: Bug, data)</text></g></g><g transform="translate(-50,-46) scale(1,1)"><g><path fill="none" stroke="none"/><text fill="#000000" font-family="Arial" font-size="13px" font-style="normal" font-weight="normal" stroke="none" text-decoration="none" x="933" y="447.5">+deleteBug(bug: Bug)</text></g></g><g transform="translate(-50,-46) scale(1,1)"><path d="M 1329 347 L 1587 295" fill="none" stroke="#000000" stroke-miterlimit="10"/></g><g transform="translate(-50,-46) scale(1,1)"><path d="M 1577.8693638757754 301.13445058395666 L 1587 295 L 1576.2059536732445 292.8813768867835" fill="none" stroke="#000000" stroke-miterlimit="10"/></g><g transform="translate(-50,-46) scale(1,1)"><g><path fill="none" stroke="none"/><text fill="#000000" font-family="Arial" font-size="13px" font-style="normal" font-weight="normal" stroke="none" text-decoration="none" x="1424.5" y="312.5">+manages</text></g></g><g transform="translate(-50,-46) scale(1,1)"><g><path fill="none" stroke="none"/><text fill="#000000" font-family="Arial" font-size="13px" font-style="normal" font-weight="normal" stroke="none" text-decoration="none" x="1319.5" y="330.5">+manages</text></g></g><g transform="translate(-50,-46) scale(1,1)"><g><path fill="none" stroke="none"/><text fill="#000000" font-family="Arial" font-size="13px" font-style="normal" font-weight="normal" stroke="none" text-decoration="none" x="1348.5" y="360.5">1</text></g></g><g transform="translate(-50,-46) scale(1,1)"><g><path fill="none" stroke="none"/><text fill="#000000" font-family="Arial" font-size="13px" font-style="normal" font-weight="normal" stroke="none" text-decoration="none" x="1565.220458984375" y="317.5">*</text></g></g><g transform="translate(-50,-46) scale(1,1)"><path d="M 1317 457 L 1595 559" fill="none" stroke="#000000" stroke-miterlimit="10"/></g><g transform="translate(-50,-46) scale(1,1)"><path d="M 1584.0092635647 559.4513453331629 L 1595 559 L 1586.9092263906289 551.5475250821016" fill="none" stroke="#000000" stroke-miterlimit="10"/></g><g transform="translate(-50,-46) scale(1,1)"><g><path fill="none" stroke="none"/><text fill="#000000" font-family="Arial" font-size="13px" font-style="normal" font-weight="normal" stroke="none" text-decoration="none" x="1443.5" y="499.5">+uses</text></g></g><g transform="translate(-50,-46) scale(1,1)"><rect fill="#C0C0C0" height="147" opacity="0.2" stroke="none" width="317.8896484375" x="951" y="63"/></g><g transform="translate(-50,-46) scale(1,1)"><rect fill="#ffffff" height="147" stroke="none" width="317.8896484375" x="944" y="56"/></g><g transform="translate(-50,-46) scale(1,1)"><path d="M 944 56 L 1261.8896484375 56 L 1261.8896484375 203 L 944 203 L 944 56 Z Z" fill="none" stroke="#000000" stroke-miterlimit="10"/></g><g transform="translate(-50,-46) scale(1,1)"><path d="M 944 81 L 1261.8896484375 81" fill="none" stroke="#000000" stroke-miterlimit="10"/></g><g transform="translate(-50,-46) scale(1,1)"><path d="M 944 91 L 1261.8896484375 91" fill="none" stroke="#000000" stroke-miterlimit="10"/></g><g transform="translate(-50,-46) scale(1,1)"><g><path fill="none" stroke="none"/><text fill="#000000" font-family="Arial" font-size="13px" font-style="normal" font-weight="bold" stroke="none" text-decoration="none" x="1067.547119140625" y="75.5">UserService</text></g></g><g transform="translate(-50,-46) scale(1,1)"><g><path fill="none" stroke="none"/><text fill="#000000" font-family="Arial" font-size="13px" font-style="normal" font-weight="normal" stroke="none" text-decoration="none" x="949" y="108.5">+createUser(data): User</text></g></g><g transform="translate(-50,-46) scale(1,1)"><g><path fill="none" stroke="none"/><text fill="#000000" font-family="Arial" font-size="13px" font-style="normal" font-weight="normal" stroke="none" text-decoration="none" x="949" y="123.5">+getUsers(): List&lt;User&gt;</text></g></g><g transform="translate(-50,-46) scale(1,1)"><g><path fill="none" stroke="none"/><text fill="#000000" font-family="Arial" font-size="13px" font-style="normal" font-weight="normal" stroke="none" text-decoration="none" x="949" y="138.5">+getUserById(userId: ObjectId): User</text></g></g><g transform="translate(-50,-46) scale(1,1)"><g><path fill="none" stroke="none"/><text fill="#000000" font-family="Arial" font-size="13px" font-style="normal" font-weight="normal" stroke="none" text-decoration="none" x="949" y="153.5">+updateUser(userId: ObjectId, User: user, data): User</text></g></g><g transform="translate(-50,-46) scale(1,1)"><g><path fill="none" stroke="none"/><text fill="#000000" font-family="Arial" font-size="13px" font-style="normal" font-weight="normal" stroke="none" text-decoration="none" x="949" y="168.5">+getUserByUsername(username: String)</text></g></g><g transform="translate(-50,-46) scale(1,1)"><g><path fill="none" stroke="none"/><text fill="#000000" font-family="Arial" font-size="13px" font-style="normal" font-weight="normal" stroke="none" text-decoration="none" x="949" y="183.5">+verifyPassword(user: User, password: String)</text></g></g><g transform="translate(-50,-46) scale(1,1)"><g><path fill="none" stroke="none"/><text fill="#000000" font-family="Arial" font-size="13px" font-style="normal" font-weight="normal" stroke="none" text-decoration="none" x="949" y="198.5">+deleteUser(user: User)</text></g></g><g transform="translate(-50,-46) scale(1,1)"><path d="M 1194 204 L 1595 531" fill="none" stroke="#000000" stroke-miterlimit="10"/></g><g transform="translate(-50,-46) scale(1,1)"><path d="M 1584.463727145151 527.8397857148326 L 1595 531 L 1589.7843389669492 521.3151210648601" fill="none" stroke="#000000" stroke-miterlimit="10"/></g><g transform="translate(-50,-46) scale(1,1)"><g><path fill="none" stroke="none"/><text fill="#000000" font-family="Arial" font-size="13px" font-style="normal" font-weight="normal" stroke="none" text-decoration="none" x="1372.5" y="361.5">+manages</text></g></g><g transform="translate(-50,-46) scale(1,1)"><g><path fill="none" stroke="none"/><text fill="#000000" font-family="Arial" font-size="13px" font-style="normal" font-weight="normal" stroke="none" text-decoration="none" x="1198.5" y="233.5">1</text></g></g><g transform="translate(-50,-46) scale(1,1)"><g><path fill="none" stroke="none"/><text fill="#000000" font-family="Arial" font-size="13px" font-style="normal" font-weight="normal" stroke="none" text-decoration="none" x="1567.220458984375" y="533.5">*</text></g></g><g transform="translate(-50,-46) scale(1,1)"><rect fill="#C0C0C0" height="87" opacity="0.2" stroke="none" width="367.7568359375" x="947" y="545"/></g><g transform="translate(-50,-46) scale(1,1)"><rect fill="#ffffff" height="87" stroke="none" width="367.7568359375" x="940" y="538"/></g><g transform="translate(-50,-46) scale(1,1)"><path d="M 940 538 L 1307.7568359375 538 L 1307.7568359375 625 L 940 625 L 940 538 Z Z" fill="none" stroke="#000000" stroke-miterlimit="10"/></g><g transform="translate(-50,-46) scale(1,1)"><path d="M 940 563 L 1307.7568359375 563" fill="none" stroke="#000000" stroke-miterlimit="10"/></g><g transform="translate(-50,-46) scale(1,1)"><path d="M 940 573 L 1307.7568359375 573" fill="none" stroke="#000000" stroke-miterlimit="10"/></g><g transform="translate(-50,-46) scale(1,1)"><g><path fill="none" stroke="none"/><text fill="#000000" font-family="Arial" font-size="13px" font-style="normal" font-weight="bold" stroke="none" text-decoration="none" x="1088.8330078125" y="557.5">AuthService</text></g></g><g transform="translate(-50,-46) scale(1,1)"><g><path fill="none" stroke="none"/><text fill="#000000" font-family="Arial" font-size="13px" font-style="normal" font-weight="normal" stroke="none" text-decoration="none" x="945" y="590.5">+createAccessTokenPayload(user: User): String</text></g></g><g transform="translate(-50,-46) scale(1,1)"><g><path fill="none" stroke="none"/><text fill="#000000" font-family="Arial" font-size="13px" font-style="normal" font-weight="normal" stroke="none" text-decoration="none" x="945" y="605.5">+getAccessTokenFromPayload(payload: String): AccessToken</text></g></g><g transform="translate(-50,-46) scale(1,1)"><g><path fill="none" stroke="none"/><text fill="#000000" font-family="Arial" font-size="13px" font-style="normal" font-weight="normal" stroke="none" text-decoration="none" x="945" y="620.5">+getUserFromAccessToken(token: AccessToken): User</text></g></g><g transform="translate(-50,-46) scale(1,1)"><path d="M 1309 581 L 1595 581" fill="none" stroke="#000000" stroke-miterlimit="10"/></g><g transform="translate(-50,-46) scale(1,1)"><path d="M 1584.837325142376 585.209517756016 L 1595 581 L 1584.837325142376 576.790482243984" fill="none" stroke="#000000" stroke-miterlimit="10"/></g><g transform="translate(-50,-46) scale(1,1)"><g><path fill="none" stroke="none"/><text fill="#000000" font-family="Arial" font-size="13px" font-style="normal" font-weight="normal" stroke="none" text-decoration="none" x="1434.5" y="572.5">+uses</text></g></g><g transform="translate(-50,-46) scale(1,1)"><rect fill="#C0C0C0" height="132" opacity="0.2" stroke="none" width="224.71240234375" x="531" y="297"/></g><g transform="translate(-50,-46) scale(1,1)"><rect fill="#ffffff" height="132" stroke="none" width="224.71240234375" x="524" y="290"/></g><g transform="translate(-50,-46) scale(1,1)"><path d="M 524 290 L 748.71240234375 290 L 748.71240234375 422 L 524 422 L 524 290 Z Z" fill="none" stroke="#000000" stroke-miterlimit="10"/></g><g transform="translate(-50,-46) scale(1,1)"><path d="M 524 315 L 748.71240234375 315" fill="none" stroke="#000000" stroke-miterlimit="10"/></g><g transform="translate(-50,-46) scale(1,1)"><path d="M 524 325 L 748.71240234375 325" fill="none" stroke="#000000" stroke-miterlimit="10"/></g><g transform="translate(-50,-46) scale(1,1)"><g><path fill="none" stroke="none"/><text fill="#000000" font-family="Arial" font-size="13px" font-style="normal" font-weight="bold" stroke="none" text-decoration="none" x="609.97216796875" y="309.5">api_bugs</text></g></g><g transform="translate(-50,-46) scale(1,1)"><g><path fill="none" stroke="none"/><text fill="#000000" font-family="Arial" font-size="13px" font-style="normal" font-weight="normal" stroke="none" text-decoration="none" x="529" y="342.5">+get(status: BugStatuses): List&lt;Bug&gt;</text></g></g><g transform="translate(-50,-46) scale(1,1)"><g><path fill="none" stroke="none"/><text fill="#000000" font-family="Arial" font-size="13px" font-style="normal" font-weight="normal" stroke="none" text-decoration="none" x="529" y="357.5">+post(data): Bug</text></g></g><g transform="translate(-50,-46) scale(1,1)"><g><path fill="none" stroke="none"/><text fill="#000000" font-family="Arial" font-size="13px" font-style="normal" font-weight="normal" stroke="none" text-decoration="none" x="529" y="372.5">+get(bugId: ObjectId): Bug</text></g></g><g transform="translate(-50,-46) scale(1,1)"><g><path fill="none" stroke="none"/><text fill="#000000" font-family="Arial" font-size="13px" font-style="normal" font-weight="normal" stroke="none" text-decoration="none" x="529" y="387.5">+post(bugId: ObjectId, data): Bug</text></g></g><g transform="translate(-50,-46) scale(1,1)"><g><path fill="none" stroke="none"/><text fill="#000000" font-family="Arial" font-size="13px" font-style="normal" font-weight="normal" stroke="none" text-decoration="none" x="529" y="402.5">+solve_post(bugId: ObjectId): Bug</text></g></g><g transform="translate(-50,-46) scale(1,1)"><g><path fill="none" stroke="none"/><text fill="#000000" font-family="Arial" font-size="13px" font-style="normal" font-weight="normal" stroke="none" text-decoration="none" x="529" y="417.5">+delete(bugId: ObjectId)</text></g></g><g transform="translate(-50,-46) scale(1,1)"><rect fill="#C0C0C0" height="44" opacity="0.2" stroke="none" width="50.919921875" x="291" y="337"/></g><g transform="translate(-50,-46) scale(1,1)"><rect fill="#ffffff" height="44" stroke="none" width="50.919921875" x="284" y="330"/></g><g transform="translate(-50,-46) scale(1,1)"><path d="M 284 330 L 334.919921875 330 L 334.919921875 374 L 284 374 L 284 330 Z Z" fill="none" stroke="#000000" stroke-miterlimit="10"/></g><g transform="translate(-50,-46) scale(1,1)"><path d="M 284 355 L 334.919921875 355" fill="none" stroke="#000000" stroke-miterlimit="10"/></g><g transform="translate(-50,-46) scale(1,1)"><path d="M 284 365 L 334.919921875 365" fill="none" stroke="#000000" stroke-miterlimit="10"/></g><g transform="translate(-50,-46) scale(1,1)"><g><path fill="none" stroke="none"/><text fill="#000000" font-family="Arial" font-size="13px" font-style="normal" font-weight="bold" stroke="none" text-decoration="none" x="300.785888671875" y="349.5">api</text></g></g><g transform="translate(-50,-46) scale(1,1)"><path d="M 336 352 L 523 355" fill="none" stroke="#000000" stroke-miterlimit="10"/></g><g transform="translate(-50,-46) scale(1,1)"><path d="M 512.7711089962772 359.04595956899715 L 523 355 L 512.9061563596051 350.62800725489404" fill="none" stroke="#000000" stroke-miterlimit="10"/></g><g transform="translate(-50,-46) scale(1,1)"><g><path fill="none" stroke="none"/><text fill="#000000" font-family="Arial" font-size="13px" font-style="normal" font-weight="normal" stroke="none" text-decoration="none" x="411.5" y="344.5">+uses</text></g></g><g transform="translate(-50,-46) scale(1,1)"><rect fill="#C0C0C0" height="72" opacity="0.2" stroke="none" width="322.22509765625" x="435" y="505"/></g><g transform="translate(-50,-46) scale(1,1)"><rect fill="#ffffff" height="72" stroke="none" width="322.22509765625" x="428" y="498"/></g><g transform="translate(-50,-46) scale(1,1)"><path d="M 428 498 L 750.22509765625 498 L 750.22509765625 570 L 428 570 L 428 498 Z Z" fill="none" stroke="#000000" stroke-miterlimit="10"/></g><g transform="translate(-50,-46) scale(1,1)"><path d="M 428 523 L 750.22509765625 523" fill="none" stroke="#000000" stroke-miterlimit="10"/></g><g transform="translate(-50,-46) scale(1,1)"><path d="M 428 533 L 750.22509765625 533" fill="none" stroke="#000000" stroke-miterlimit="10"/></g><g transform="translate(-50,-46) scale(1,1)"><g><path fill="none" stroke="none"/><text fill="#000000" font-family="Arial" font-size="13px" font-style="normal" font-weight="bold" stroke="none" text-decoration="none" x="564.172607421875" y="517.5">api_auth</text></g></g><g transform="translate(-50,-46) scale(1,1)"><g><path fill="none" stroke="none"/><text fill="#000000" font-family="Arial" font-size="13px" font-style="normal" font-weight="normal" stroke="none" text-decoration="none" x="433" y="550.5">+login_post(username: String, password: String): User</text></g></g><g transform="translate(-50,-46) scale(1,1)"><g><path fill="none" stroke="none"/><text fill="#000000" font-family="Arial" font-size="13px" font-style="normal" font-weight="normal" stroke="none" text-decoration="none" x="433" y="565.5">+user_get()</text></g></g><g transform="translate(-50,-46) scale(1,1)"><path d="M 336 369 L 532 497" fill="none" stroke="#000000" stroke-miterlimit="10"/></g><g transform="translate(-50,-46) scale(1,1)"><path d="M 521.1893745069591 494.9676672395461 L 532 497 L 525.7928096815472 487.91865712845805" fill="none" stroke="#000000" stroke-miterlimit="10"/></g><g transform="translate(-50,-46) scale(1,1)"><g><path fill="none" stroke="none"/><text fill="#000000" font-family="Arial" font-size="13px" font-style="normal" font-weight="normal" stroke="none" text-decoration="none" x="424.5" y="426.5">+uses</text></g></g><g transform="translate(-50,-46) scale(1,1)"><path d="M 750 363 L 927 375" fill="none" stroke="#000000" stroke-miterlimit="10"/></g><g transform="translate(-50,-46) scale(1,1)"><path d="M 916.5758632912564 378.5124598043854 L 927 375 L 917.1453380989057 370.1127063915578" fill="none" stroke="#000000" stroke-miterlimit="10"/></g><g transform="translate(-50,-46) scale(1,1)"><g><path fill="none" stroke="none"/><text fill="#000000" font-family="Arial" font-size="13px" font-style="normal" font-weight="normal" stroke="none" text-decoration="none" x="758.5" y="355.5">+uses</text></g></g><g transform="translate(-50,-46) scale(1,1)"><path d="M 751 548 L 939 565" fill="none" stroke="#000000" stroke-miterlimit="10"/></g><g transform="translate(-50,-46) scale(1,1)"><path d="M 928.4995199009519 568.2771813635339 L 939 565 L 929.2577221509157 559.8923564815817" fill="none" stroke="#000000" stroke-miterlimit="10"/></g><g transform="translate(-50,-46) scale(1,1)"><g><path fill="none" stroke="none"/><text fill="#000000" font-family="Arial" font-size="13px" font-style="normal" font-weight="normal" stroke="none" text-decoration="none" x="760.5" y="541.5">+uses</text></g></g><g transform="translate(-50,-46) scale(1,1)"><rect fill="#C0C0C0" height="44" opacity="0.2" stroke="none" width="58.7021484375" x="67" y="335"/></g><g transform="translate(-50,-46) scale(1,1)"><rect fill="#ffffff" height="44" stroke="none" width="58.7021484375" x="60" y="328"/></g><g transform="translate(-50,-46) scale(1,1)"><path d="M 60 328 L 118.7021484375 328 L 118.7021484375 372 L 60 372 L 60 328 Z Z" fill="none" stroke="#000000" stroke-miterlimit="10"/></g><g transform="translate(-50,-46) scale(1,1)"><path d="M 60 353 L 118.7021484375 353" fill="none" stroke="#000000" stroke-miterlimit="10"/></g><g transform="translate(-50,-46) scale(1,1)"><path d="M 60 363 L 118.7021484375 363" fill="none" stroke="#000000" stroke-miterlimit="10"/></g><g transform="translate(-50,-46) scale(1,1)"><g><path fill="none" stroke="none"/><text fill="#000000" font-family="Arial" font-size="13px" font-style="normal" font-weight="bold" stroke="none" text-decoration="none" x="66.23291015625" y="347.5">Window</text></g></g><g transform="translate(-50,-46) scale(1,1)"><path d="M 120 350 L 283 352" fill="none" stroke="#000000" stroke-miterlimit="10"/></g><g transform="translate(-50,-46) scale(1,1)"><path d="M 272.7864434214199 356.08451490585395 L 283 352 L 272.8897366954667 347.6661130710404" fill="none" stroke="#000000" stroke-miterlimit="10"/></g><g transform="translate(-50,-46) scale(1,1)"><g><path fill="none" stroke="none"/><text fill="#000000" font-family="Arial" font-size="13px" font-style="normal" font-weight="normal" stroke="none" text-decoration="none" x="183.5" y="342.5">+uses</text></g></g><g transform="translate(-50,-46) scale(1,1)"><rect fill="#C0C0C0" height="102" opacity="0.2" stroke="none" width="208.7861328125" x="527" y="95"/></g><g transform="translate(-50,-46) scale(1,1)"><rect fill="#ffffff" height="102" stroke="none" width="208.7861328125" x="520" y="88"/></g><g transform="translate(-50,-46) scale(1,1)"><path d="M 520 88 L 728.7861328125 88 L 728.7861328125 190 L 520 190 L 520 88 Z Z" fill="none" stroke="#000000" stroke-miterlimit="10"/></g><g transform="translate(-50,-46) scale(1,1)"><path d="M 520 113 L 728.7861328125 113" fill="none" stroke="#000000" stroke-miterlimit="10"/></g><g transform="translate(-50,-46) scale(1,1)"><path d="M 520 123 L 728.7861328125 123" fill="none" stroke="#000000" stroke-miterlimit="10"/></g><g transform="translate(-50,-46) scale(1,1)"><g><path fill="none" stroke="none"/><text fill="#000000" font-family="Arial" font-size="13px" font-style="normal" font-weight="bold" stroke="none" text-decoration="none" x="596.20947265625" y="107.5">api_users</text></g></g><g transform="translate(-50,-46) scale(1,1)"><g><path fill="none" stroke="none"/><text fill="#000000" font-family="Arial" font-size="13px" font-style="normal" font-weight="normal" stroke="none" text-decoration="none" x="525" y="140.5">+get(): List&lt;User&gt;</text></g></g><g transform="translate(-50,-46) scale(1,1)"><g><path fill="none" stroke="none"/><text fill="#000000" font-family="Arial" font-size="13px" font-style="normal" font-weight="normal" stroke="none" text-decoration="none" x="525" y="155.5">+post(data): User</text></g></g><g transform="translate(-50,-46) scale(1,1)"><g><path fill="none" stroke="none"/><text fill="#000000" font-family="Arial" font-size="13px" font-style="normal" font-weight="normal" stroke="none" text-decoration="none" x="525" y="170.5">+post(userId: ObjectId, data): User</text></g></g><g transform="translate(-50,-46) scale(1,1)"><g><path fill="none" stroke="none"/><text fill="#000000" font-family="Arial" font-size="13px" font-style="normal" font-weight="normal" stroke="none" text-decoration="none" x="525" y="185.5">+delete(userId: ObjectId)</text></g></g><g transform="translate(-50,-46) scale(1,1)"><path d="M 336 334 L 547 191" fill="none" stroke="#000000" stroke-miterlimit="10"/></g><g transform="translate(-50,-46) scale(1,1)"><path d="M 540.9489566376633 200.18612400455822 L 547 191 L 536.2256956287943 193.2168367816815" fill="none" stroke="#000000" stroke-miterlimit="10"/></g><g transform="translate(-50,-46) scale(1,1)"><g><path fill="none" stroke="none"/><text fill="#000000" font-family="Arial" font-size="13px" font-style="normal" font-weight="normal" stroke="none" text-decoration="none" x="414.5" y="255.5">+uses</text></g></g><g transform="translate(-50,-46) scale(1,1)"><path d="M 730 137 L 943 132" fill="none" stroke="#000000" stroke-miterlimit="10"/></g><g transform="translate(-50,-46) scale(1,1)"><path d="M 932.9389117476126 136.446853176986 L 943 132 L 932.7413362342328 128.03013630700823" fill="none" stroke="#000000" stroke-miterlimit="10"/></g><g transform="translate(-50,-46) scale(1,1)"><g><path fill="none" stroke="none"/><text fill="#000000" font-family="Arial" font-size="13px" font-style="normal" font-weight="normal" stroke="none" text-decoration="none" x="737.5" y="127.5">+uses</text></g></g></g></svg>